<svg xmlns="http://www.w3.org/2000/svg" xmlns:xlink="http://www.w3.org/1999/xlink" contentStyleType="text/css" data-diagram-type="CLASS" height="474px" preserveAspectRatio="none" style="width:1509px;height:474px;background:#FFFFFF;" version="1.1" viewBox="0 0 1509 474" width="1509px" zoomAndPan="magnify"><title>Association Diagram - Fitness App</title><defs/><g><text fill="#000000" font-family="sans-serif" font-size="14" font-weight="bold" lengthAdjust="spacing" textLength="270.9355" x="612.0476" y="22.9951">Association Diagram - Fitness App</text><!--class User--><g id="elem_User"><rect codeLine="11" fill="#FFFFFF" height="48" id="User" rx="2.5" ry="2.5" style="stroke:#000000;stroke-width:0.5;" width="59.3516" x="671.5" y="44.2969"/><ellipse cx="686.5" cy="60.2969" fill="#ADD1B2" rx="11" ry="11" style="stroke:#181818;stroke-width:1;"/><path d="M689.4688,65.9375 Q688.8906,66.2344 688.25,66.375 Q687.6094,66.5313 686.9063,66.5313 Q684.4063,66.5313 683.0781,64.8906 Q681.7656,63.2344 681.7656,60.1094 Q681.7656,56.9844 683.0781,55.3281 Q684.4063,53.6719 686.9063,53.6719 Q687.6094,53.6719 688.25,53.8281 Q688.9063,53.9844 689.4688,54.2813 L689.4688,57 Q688.8438,56.4219 688.25,56.1563 Q687.6563,55.875 687.0313,55.875 Q685.6875,55.875 685,56.9531 Q684.3125,58.0156 684.3125,60.1094 Q684.3125,62.2031 685,63.2813 Q685.6875,64.3438 687.0313,64.3438 Q687.6563,64.3438 688.25,64.0781 Q688.8438,63.7969 689.4688,63.2188 L689.4688,65.9375 Z " fill="#000000"/><text fill="#000000" font-family="sans-serif" font-size="12" lengthAdjust="spacing" textLength="27.3516" x="700.5" y="64.4512">User</text><line style="stroke:#000000;stroke-width:0.5;" x1="672.5" x2="729.8516" y1="76.2969" y2="76.2969"/><line style="stroke:#000000;stroke-width:0.5;" x1="672.5" x2="729.8516" y1="84.2969" y2="84.2969"/></g><!--class FitnessAppFacade--><g id="elem_FitnessAppFacade"><rect codeLine="12" fill="#FFFFFF" height="48" id="FitnessAppFacade" rx="2.5" ry="2.5" style="stroke:#000000;stroke-width:0.5;" width="141.084" x="630.5" y="169.2969"/><ellipse cx="645.5" cy="185.2969" fill="#ADD1B2" rx="11" ry="11" style="stroke:#181818;stroke-width:1;"/><path d="M648.4688,190.9375 Q647.8906,191.2344 647.25,191.375 Q646.6094,191.5313 645.9063,191.5313 Q643.4063,191.5313 642.0781,189.8906 Q640.7656,188.2344 640.7656,185.1094 Q640.7656,181.9844 642.0781,180.3281 Q643.4063,178.6719 645.9063,178.6719 Q646.6094,178.6719 647.25,178.8281 Q647.9063,178.9844 648.4688,179.2813 L648.4688,182 Q647.8438,181.4219 647.25,181.1563 Q646.6563,180.875 646.0313,180.875 Q644.6875,180.875 644,181.9531 Q643.3125,183.0156 643.3125,185.1094 Q643.3125,187.2031 644,188.2813 Q644.6875,189.3438 646.0313,189.3438 Q646.6563,189.3438 647.25,189.0781 Q647.8438,188.7969 648.4688,188.2188 L648.4688,190.9375 Z " fill="#000000"/><text fill="#000000" font-family="sans-serif" font-size="12" lengthAdjust="spacing" textLength="109.084" x="659.5" y="189.4512">FitnessAppFacade</text><line style="stroke:#000000;stroke-width:0.5;" x1="631.5" x2="770.584" y1="201.2969" y2="201.2969"/><line style="stroke:#000000;stroke-width:0.5;" x1="631.5" x2="770.584" y1="209.2969" y2="209.2969"/></g><!--class UserManagement--><g id="elem_UserManagement"><rect codeLine="13" fill="#FFFFFF" height="48" id="UserManagement" rx="2.5" ry="2.5" style="stroke:#000000;stroke-width:0.5;" width="138.4004" x="863" y="294.2969"/><ellipse cx="878" cy="310.2969" fill="#ADD1B2" rx="11" ry="11" style="stroke:#181818;stroke-width:1;"/><path d="M880.9688,315.9375 Q880.3906,316.2344 879.75,316.375 Q879.1094,316.5313 878.4063,316.5313 Q875.9063,316.5313 874.5781,314.8906 Q873.2656,313.2344 873.2656,310.1094 Q873.2656,306.9844 874.5781,305.3281 Q875.9063,303.6719 878.4063,303.6719 Q879.1094,303.6719 879.75,303.8281 Q880.4063,303.9844 880.9688,304.2813 L880.9688,307 Q880.3438,306.4219 879.75,306.1563 Q879.1563,305.875 878.5313,305.875 Q877.1875,305.875 876.5,306.9531 Q875.8125,308.0156 875.8125,310.1094 Q875.8125,312.2031 876.5,313.2813 Q877.1875,314.3438 878.5313,314.3438 Q879.1563,314.3438 879.75,314.0781 Q880.3438,313.7969 880.9688,313.2188 L880.9688,315.9375 Z " fill="#000000"/><text fill="#000000" font-family="sans-serif" font-size="12" lengthAdjust="spacing" textLength="106.4004" x="892" y="314.4512">UserManagement</text><line style="stroke:#000000;stroke-width:0.5;" x1="864" x2="1000.4004" y1="326.2969" y2="326.2969"/><line style="stroke:#000000;stroke-width:0.5;" x1="864" x2="1000.4004" y1="334.2969" y2="334.2969"/></g><!--class Authenticator--><g id="elem_Authenticator"><rect codeLine="14" fill="#FFFFFF" height="48" id="Authenticator" rx="2.5" ry="2.5" style="stroke:#000000;stroke-width:0.5;" width="114.084" x="7" y="294.2969"/><ellipse cx="22" cy="310.2969" fill="#ADD1B2" rx="11" ry="11" style="stroke:#181818;stroke-width:1;"/><path d="M24.9688,315.9375 Q24.3906,316.2344 23.75,316.375 Q23.1094,316.5313 22.4063,316.5313 Q19.9063,316.5313 18.5781,314.8906 Q17.2656,313.2344 17.2656,310.1094 Q17.2656,306.9844 18.5781,305.3281 Q19.9063,303.6719 22.4063,303.6719 Q23.1094,303.6719 23.75,303.8281 Q24.4063,303.9844 24.9688,304.2813 L24.9688,307 Q24.3438,306.4219 23.75,306.1563 Q23.1563,305.875 22.5313,305.875 Q21.1875,305.875 20.5,306.9531 Q19.8125,308.0156 19.8125,310.1094 Q19.8125,312.2031 20.5,313.2813 Q21.1875,314.3438 22.5313,314.3438 Q23.1563,314.3438 23.75,314.0781 Q24.3438,313.7969 24.9688,313.2188 L24.9688,315.9375 Z " fill="#000000"/><text fill="#000000" font-family="sans-serif" font-size="12" lengthAdjust="spacing" textLength="82.084" x="36" y="314.4512">Authenticator</text><line style="stroke:#000000;stroke-width:0.5;" x1="8" x2="120.084" y1="326.2969" y2="326.2969"/><line style="stroke:#000000;stroke-width:0.5;" x1="8" x2="120.084" y1="334.2969" y2="334.2969"/></g><!--class ActivityProvider--><g id="elem_ActivityProvider"><rect codeLine="15" fill="#FFFFFF" height="48" id="ActivityProvider" rx="2.5" ry="2.5" style="stroke:#000000;stroke-width:0.5;" width="126.9688" x="1036.5" y="294.2969"/><ellipse cx="1051.5" cy="310.2969" fill="#ADD1B2" rx="11" ry="11" style="stroke:#181818;stroke-width:1;"/><path d="M1054.4688,315.9375 Q1053.8906,316.2344 1053.25,316.375 Q1052.6094,316.5313 1051.9063,316.5313 Q1049.4063,316.5313 1048.0781,314.8906 Q1046.7656,313.2344 1046.7656,310.1094 Q1046.7656,306.9844 1048.0781,305.3281 Q1049.4063,303.6719 1051.9063,303.6719 Q1052.6094,303.6719 1053.25,303.8281 Q1053.9063,303.9844 1054.4688,304.2813 L1054.4688,307 Q1053.8438,306.4219 1053.25,306.1563 Q1052.6563,305.875 1052.0313,305.875 Q1050.6875,305.875 1050,306.9531 Q1049.3125,308.0156 1049.3125,310.1094 Q1049.3125,312.2031 1050,313.2813 Q1050.6875,314.3438 1052.0313,314.3438 Q1052.6563,314.3438 1053.25,314.0781 Q1053.8438,313.7969 1054.4688,313.2188 L1054.4688,315.9375 Z " fill="#000000"/><text fill="#000000" font-family="sans-serif" font-size="12" lengthAdjust="spacing" textLength="94.9688" x="1065.5" y="314.4512">ActivityProvider</text><line style="stroke:#000000;stroke-width:0.5;" x1="1037.5" x2="1162.4688" y1="326.2969" y2="326.2969"/><line style="stroke:#000000;stroke-width:0.5;" x1="1037.5" x2="1162.4688" y1="334.2969" y2="334.2969"/></g><!--class WearableDevice--><g id="elem_WearableDevice"><rect codeLine="16" fill="#FFFFFF" height="48" id="WearableDevice" rx="2.5" ry="2.5" style="stroke:#000000;stroke-width:0.5;" width="130.2617" x="1066" y="419.2969"/><ellipse cx="1081" cy="435.2969" fill="#ADD1B2" rx="11" ry="11" style="stroke:#181818;stroke-width:1;"/><path d="M1083.9688,440.9375 Q1083.3906,441.2344 1082.75,441.375 Q1082.1094,441.5313 1081.4063,441.5313 Q1078.9063,441.5313 1077.5781,439.8906 Q1076.2656,438.2344 1076.2656,435.1094 Q1076.2656,431.9844 1077.5781,430.3281 Q1078.9063,428.6719 1081.4063,428.6719 Q1082.1094,428.6719 1082.75,428.8281 Q1083.4063,428.9844 1083.9688,429.2813 L1083.9688,432 Q1083.3438,431.4219 1082.75,431.1563 Q1082.1563,430.875 1081.5313,430.875 Q1080.1875,430.875 1079.5,431.9531 Q1078.8125,433.0156 1078.8125,435.1094 Q1078.8125,437.2031 1079.5,438.2813 Q1080.1875,439.3438 1081.5313,439.3438 Q1082.1563,439.3438 1082.75,439.0781 Q1083.3438,438.7969 1083.9688,438.2188 L1083.9688,440.9375 Z " fill="#000000"/><text fill="#000000" font-family="sans-serif" font-size="12" lengthAdjust="spacing" textLength="98.2617" x="1095" y="439.4512">WearableDevice</text><line style="stroke:#000000;stroke-width:0.5;" x1="1067" x2="1195.2617" y1="451.2969" y2="451.2969"/><line style="stroke:#000000;stroke-width:0.5;" x1="1067" x2="1195.2617" y1="459.2969" y2="459.2969"/></g><!--class DeviceSensor--><g id="elem_DeviceSensor"><rect codeLine="17" fill="#FFFFFF" height="48" id="DeviceSensor" rx="2.5" ry="2.5" style="stroke:#000000;stroke-width:0.5;" width="114.1719" x="917" y="419.2969"/><ellipse cx="932" cy="435.2969" fill="#ADD1B2" rx="11" ry="11" style="stroke:#181818;stroke-width:1;"/><path d="M934.9688,440.9375 Q934.3906,441.2344 933.75,441.375 Q933.1094,441.5313 932.4063,441.5313 Q929.9063,441.5313 928.5781,439.8906 Q927.2656,438.2344 927.2656,435.1094 Q927.2656,431.9844 928.5781,430.3281 Q929.9063,428.6719 932.4063,428.6719 Q933.1094,428.6719 933.75,428.8281 Q934.4063,428.9844 934.9688,429.2813 L934.9688,432 Q934.3438,431.4219 933.75,431.1563 Q933.1563,430.875 932.5313,430.875 Q931.1875,430.875 930.5,431.9531 Q929.8125,433.0156 929.8125,435.1094 Q929.8125,437.2031 930.5,438.2813 Q931.1875,439.3438 932.5313,439.3438 Q933.1563,439.3438 933.75,439.0781 Q934.3438,438.7969 934.9688,438.2188 L934.9688,440.9375 Z " fill="#000000"/><text fill="#000000" font-family="sans-serif" font-size="12" lengthAdjust="spacing" textLength="82.1719" x="946" y="439.4512">DeviceSensor</text><line style="stroke:#000000;stroke-width:0.5;" x1="918" x2="1030.1719" y1="451.2969" y2="451.2969"/><line style="stroke:#000000;stroke-width:0.5;" x1="918" x2="1030.1719" y1="459.2969" y2="459.2969"/></g><!--class ProgressTracker--><g id="elem_ProgressTracker"><rect codeLine="18" fill="#FFFFFF" height="48" id="ProgressTracker" rx="2.5" ry="2.5" style="stroke:#000000;stroke-width:0.5;" width="129.4297" x="158.5" y="294.2969"/><ellipse cx="173.5" cy="310.2969" fill="#ADD1B2" rx="11" ry="11" style="stroke:#181818;stroke-width:1;"/><path d="M176.4688,315.9375 Q175.8906,316.2344 175.25,316.375 Q174.6094,316.5313 173.9063,316.5313 Q171.4063,316.5313 170.0781,314.8906 Q168.7656,313.2344 168.7656,310.1094 Q168.7656,306.9844 170.0781,305.3281 Q171.4063,303.6719 173.9063,303.6719 Q174.6094,303.6719 175.25,303.8281 Q175.9063,303.9844 176.4688,304.2813 L176.4688,307 Q175.8438,306.4219 175.25,306.1563 Q174.6563,305.875 174.0313,305.875 Q172.6875,305.875 172,306.9531 Q171.3125,308.0156 171.3125,310.1094 Q171.3125,312.2031 172,313.2813 Q172.6875,314.3438 174.0313,314.3438 Q174.6563,314.3438 175.25,314.0781 Q175.8438,313.7969 176.4688,313.2188 L176.4688,315.9375 Z " fill="#000000"/><text fill="#000000" font-family="sans-serif" font-size="12" lengthAdjust="spacing" textLength="97.4297" x="187.5" y="314.4512">ProgressTracker</text><line style="stroke:#000000;stroke-width:0.5;" x1="159.5" x2="286.9297" y1="326.2969" y2="326.2969"/><line style="stroke:#000000;stroke-width:0.5;" x1="159.5" x2="286.9297" y1="334.2969" y2="334.2969"/></g><!--class NutritionAPI--><g id="elem_NutritionAPI"><rect codeLine="19" fill="#FFFFFF" height="48" id="NutritionAPI" rx="2.5" ry="2.5" style="stroke:#000000;stroke-width:0.5;" width="103.5254" x="156" y="419.2969"/><ellipse cx="171" cy="435.2969" fill="#ADD1B2" rx="11" ry="11" style="stroke:#181818;stroke-width:1;"/><path d="M173.9688,440.9375 Q173.3906,441.2344 172.75,441.375 Q172.1094,441.5313 171.4063,441.5313 Q168.9063,441.5313 167.5781,439.8906 Q166.2656,438.2344 166.2656,435.1094 Q166.2656,431.9844 167.5781,430.3281 Q168.9063,428.6719 171.4063,428.6719 Q172.1094,428.6719 172.75,428.8281 Q173.4063,428.9844 173.9688,429.2813 L173.9688,432 Q173.3438,431.4219 172.75,431.1563 Q172.1563,430.875 171.5313,430.875 Q170.1875,430.875 169.5,431.9531 Q168.8125,433.0156 168.8125,435.1094 Q168.8125,437.2031 169.5,438.2813 Q170.1875,439.3438 171.5313,439.3438 Q172.1563,439.3438 172.75,439.0781 Q173.3438,438.7969 173.9688,438.2188 L173.9688,440.9375 Z " fill="#000000"/><text fill="#000000" font-family="sans-serif" font-size="12" lengthAdjust="spacing" textLength="71.5254" x="185" y="439.4512">NutritionAPI</text><line style="stroke:#000000;stroke-width:0.5;" x1="157" x2="258.5254" y1="451.2969" y2="451.2969"/><line style="stroke:#000000;stroke-width:0.5;" x1="157" x2="258.5254" y1="459.2969" y2="459.2969"/></g><!--class CalendarService--><g id="elem_CalendarService"><rect codeLine="20" fill="#FFFFFF" height="48" id="CalendarService" rx="2.5" ry="2.5" style="stroke:#000000;stroke-width:0.5;" width="130.3086" x="1199" y="294.2969"/><ellipse cx="1214" cy="310.2969" fill="#ADD1B2" rx="11" ry="11" style="stroke:#181818;stroke-width:1;"/><path d="M1216.9688,315.9375 Q1216.3906,316.2344 1215.75,316.375 Q1215.1094,316.5313 1214.4063,316.5313 Q1211.9063,316.5313 1210.5781,314.8906 Q1209.2656,313.2344 1209.2656,310.1094 Q1209.2656,306.9844 1210.5781,305.3281 Q1211.9063,303.6719 1214.4063,303.6719 Q1215.1094,303.6719 1215.75,303.8281 Q1216.4063,303.9844 1216.9688,304.2813 L1216.9688,307 Q1216.3438,306.4219 1215.75,306.1563 Q1215.1563,305.875 1214.5313,305.875 Q1213.1875,305.875 1212.5,306.9531 Q1211.8125,308.0156 1211.8125,310.1094 Q1211.8125,312.2031 1212.5,313.2813 Q1213.1875,314.3438 1214.5313,314.3438 Q1215.1563,314.3438 1215.75,314.0781 Q1216.3438,313.7969 1216.9688,313.2188 L1216.9688,315.9375 Z " fill="#000000"/><text fill="#000000" font-family="sans-serif" font-size="12" lengthAdjust="spacing" textLength="98.3086" x="1228" y="314.4512">CalendarService</text><line style="stroke:#000000;stroke-width:0.5;" x1="1200" x2="1328.3086" y1="326.2969" y2="326.2969"/><line style="stroke:#000000;stroke-width:0.5;" x1="1200" x2="1328.3086" y1="334.2969" y2="334.2969"/></g><!--class NotificationSystem--><g id="elem_NotificationSystem"><rect codeLine="21" fill="#FFFFFF" height="48" id="NotificationSystem" rx="2.5" ry="2.5" style="stroke:#000000;stroke-width:0.5;" width="145.6016" x="1298" y="419.2969"/><ellipse cx="1313" cy="435.2969" fill="#ADD1B2" rx="11" ry="11" style="stroke:#181818;stroke-width:1;"/><path d="M1315.9688,440.9375 Q1315.3906,441.2344 1314.75,441.375 Q1314.1094,441.5313 1313.4063,441.5313 Q1310.9063,441.5313 1309.5781,439.8906 Q1308.2656,438.2344 1308.2656,435.1094 Q1308.2656,431.9844 1309.5781,430.3281 Q1310.9063,428.6719 1313.4063,428.6719 Q1314.1094,428.6719 1314.75,428.8281 Q1315.4063,428.9844 1315.9688,429.2813 L1315.9688,432 Q1315.3438,431.4219 1314.75,431.1563 Q1314.1563,430.875 1313.5313,430.875 Q1312.1875,430.875 1311.5,431.9531 Q1310.8125,433.0156 1310.8125,435.1094 Q1310.8125,437.2031 1311.5,438.2813 Q1312.1875,439.3438 1313.5313,439.3438 Q1314.1563,439.3438 1314.75,439.0781 Q1315.3438,438.7969 1315.9688,438.2188 L1315.9688,440.9375 Z " fill="#000000"/><text fill="#000000" font-family="sans-serif" font-size="12" lengthAdjust="spacing" textLength="113.6016" x="1327" y="439.4512">NotificationSystem</text><line style="stroke:#000000;stroke-width:0.5;" x1="1299" x2="1442.6016" y1="451.2969" y2="451.2969"/><line style="stroke:#000000;stroke-width:0.5;" x1="1299" x2="1442.6016" y1="459.2969" y2="459.2969"/></g><!--class AnalyticsSystem--><g id="elem_AnalyticsSystem"><rect codeLine="22" fill="#FFFFFF" height="48" id="AnalyticsSystem" rx="2.5" ry="2.5" style="stroke:#000000;stroke-width:0.5;" width="131.2402" x="322.5" y="294.2969"/><ellipse cx="337.5" cy="310.2969" fill="#ADD1B2" rx="11" ry="11" style="stroke:#181818;stroke-width:1;"/><path d="M340.4688,315.9375 Q339.8906,316.2344 339.25,316.375 Q338.6094,316.5313 337.9063,316.5313 Q335.4063,316.5313 334.0781,314.8906 Q332.7656,313.2344 332.7656,310.1094 Q332.7656,306.9844 334.0781,305.3281 Q335.4063,303.6719 337.9063,303.6719 Q338.6094,303.6719 339.25,303.8281 Q339.9063,303.9844 340.4688,304.2813 L340.4688,307 Q339.8438,306.4219 339.25,306.1563 Q338.6563,305.875 338.0313,305.875 Q336.6875,305.875 336,306.9531 Q335.3125,308.0156 335.3125,310.1094 Q335.3125,312.2031 336,313.2813 Q336.6875,314.3438 338.0313,314.3438 Q338.6563,314.3438 339.25,314.0781 Q339.8438,313.7969 340.4688,313.2188 L340.4688,315.9375 Z " fill="#000000"/><text fill="#000000" font-family="sans-serif" font-size="12" lengthAdjust="spacing" textLength="99.2402" x="351.5" y="314.4512">AnalyticsSystem</text><line style="stroke:#000000;stroke-width:0.5;" x1="323.5" x2="452.7402" y1="326.2969" y2="326.2969"/><line style="stroke:#000000;stroke-width:0.5;" x1="323.5" x2="452.7402" y1="334.2969" y2="334.2969"/></g><!--class SocialFeedSystem--><g id="elem_SocialFeedSystem"><rect codeLine="23" fill="#FFFFFF" height="48" id="SocialFeedSystem" rx="2.5" ry="2.5" style="stroke:#000000;stroke-width:0.5;" width="141.6113" x="489" y="294.2969"/><ellipse cx="504" cy="310.2969" fill="#ADD1B2" rx="11" ry="11" style="stroke:#181818;stroke-width:1;"/><path d="M506.9688,315.9375 Q506.3906,316.2344 505.75,316.375 Q505.1094,316.5313 504.4063,316.5313 Q501.9063,316.5313 500.5781,314.8906 Q499.2656,313.2344 499.2656,310.1094 Q499.2656,306.9844 500.5781,305.3281 Q501.9063,303.6719 504.4063,303.6719 Q505.1094,303.6719 505.75,303.8281 Q506.4063,303.9844 506.9688,304.2813 L506.9688,307 Q506.3438,306.4219 505.75,306.1563 Q505.1563,305.875 504.5313,305.875 Q503.1875,305.875 502.5,306.9531 Q501.8125,308.0156 501.8125,310.1094 Q501.8125,312.2031 502.5,313.2813 Q503.1875,314.3438 504.5313,314.3438 Q505.1563,314.3438 505.75,314.0781 Q506.3438,313.7969 506.9688,313.2188 L506.9688,315.9375 Z " fill="#000000"/><text fill="#000000" font-family="sans-serif" font-size="12" lengthAdjust="spacing" textLength="109.6113" x="518" y="314.4512">SocialFeedSystem</text><line style="stroke:#000000;stroke-width:0.5;" x1="490" x2="629.6113" y1="326.2969" y2="326.2969"/><line style="stroke:#000000;stroke-width:0.5;" x1="490" x2="629.6113" y1="334.2969" y2="334.2969"/></g><!--class Database--><g id="elem_Database"><rect codeLine="24" fill="#FFFFFF" height="48" id="Database" rx="2.5" ry="2.5" style="stroke:#000000;stroke-width:0.5;" width="89.2578" x="453.5" y="419.2969"/><ellipse cx="468.5" cy="435.2969" fill="#ADD1B2" rx="11" ry="11" style="stroke:#181818;stroke-width:1;"/><path d="M471.4688,440.9375 Q470.8906,441.2344 470.25,441.375 Q469.6094,441.5313 468.9063,441.5313 Q466.4063,441.5313 465.0781,439.8906 Q463.7656,438.2344 463.7656,435.1094 Q463.7656,431.9844 465.0781,430.3281 Q466.4063,428.6719 468.9063,428.6719 Q469.6094,428.6719 470.25,428.8281 Q470.9063,428.9844 471.4688,429.2813 L471.4688,432 Q470.8438,431.4219 470.25,431.1563 Q469.6563,430.875 469.0313,430.875 Q467.6875,430.875 467,431.9531 Q466.3125,433.0156 466.3125,435.1094 Q466.3125,437.2031 467,438.2813 Q467.6875,439.3438 469.0313,439.3438 Q469.6563,439.3438 470.25,439.0781 Q470.8438,438.7969 471.4688,438.2188 L471.4688,440.9375 Z " fill="#000000"/><text fill="#000000" font-family="sans-serif" font-size="12" lengthAdjust="spacing" textLength="57.2578" x="482.5" y="439.4512">Database</text><line style="stroke:#000000;stroke-width:0.5;" x1="454.5" x2="541.7578" y1="451.2969" y2="451.2969"/><line style="stroke:#000000;stroke-width:0.5;" x1="454.5" x2="541.7578" y1="459.2969" y2="459.2969"/></g><!--reverse link ActivityProvider to WearableDevice--><g id="link_ActivityProvider_WearableDevice"><path codeLine="27" d="M1110.2274,359.8915 C1115.7674,381.8815 1119.66,397.3069 1125.2,419.2669 " fill="transparent" id="ActivityProvider-backto-WearableDevice" style="stroke:#2F4F4F;stroke-width:1;"/><polygon fill="transparent" points="1105.83,342.4369,1104.4092,361.3573,1116.0456,358.4257,1105.83,342.4369" style="stroke:#2F4F4F;stroke-width:1;"/></g><!--reverse link ActivityProvider to DeviceSensor--><g id="link_ActivityProvider_DeviceSensor"><path codeLine="28" d="M1063.4186,355.0095 C1040.8886,376.9995 1020.08,397.3069 997.59,419.2669 " fill="transparent" id="ActivityProvider-backto-DeviceSensor" style="stroke:#2F4F4F;stroke-width:1;"/><polygon fill="transparent" points="1076.3,342.4369,1059.2278,350.7157,1067.6095,359.3033,1076.3,342.4369" style="stroke:#2F4F4F;stroke-width:1;"/></g><!--reverse link ProgressTracker to NutritionAPI--><g id="link_ProgressTracker_NutritionAPI"><path codeLine="30" d="M218.0024,360.3047 C215.3224,382.2947 213.49,397.3069 210.81,419.2669 " fill="transparent" id="ProgressTracker-backto-NutritionAPI" style="stroke:#2F4F4F;stroke-width:1;"/><polygon fill="transparent" points="220.18,342.4369,212.0465,359.5788,223.9583,361.0305,220.18,342.4369" style="stroke:#2F4F4F;stroke-width:1;"/></g><!--link User to FitnessAppFacade--><g id="link_User_FitnessAppFacade"><path codeLine="33" d="M701,92.4369 C701,114.4269 701,141.3069 701,163.2669 " fill="transparent" id="User-to-FitnessAppFacade" style="stroke:#2F4F4F;stroke-width:1;"/><polygon fill="#2F4F4F" points="701,169.2669,705,160.2669,701,164.2669,697,160.2669,701,169.2669" style="stroke:#2F4F4F;stroke-width:1;"/><text fill="#000000" font-family="sans-serif" font-size="13" lengthAdjust="spacing" textLength="57.2749" x="702" y="135.3638">interacts</text></g><!--link FitnessAppFacade to UserManagement--><g id="link_FitnessAppFacade_UserManagement"><path codeLine="34" d="M744.45,217.4369 C785.75,239.4269 842.214,269.4868 883.454,291.4468 " fill="transparent" id="FitnessAppFacade-to-UserManagement" style="stroke:#2F4F4F;stroke-width:1;"/><polygon fill="#2F4F4F" points="888.75,294.2669,882.6861,286.5061,884.3367,291.9168,878.926,293.5674,888.75,294.2669" style="stroke:#2F4F4F;stroke-width:1;"/><text fill="#000000" font-family="sans-serif" font-size="13" lengthAdjust="spacing" textLength="92.3457" x="832" y="260.3638">manages user</text></g><!--link FitnessAppFacade to Authenticator--><g id="link_FitnessAppFacade_Authenticator"><path codeLine="35" d="M630.49,197.1969 C506.32,202.9769 253.94,218.0069 171,247.2969 C141.28,257.7969 116.3347,274.4886 95.8047,290.5586 " fill="transparent" id="FitnessAppFacade-to-Authenticator" style="stroke:#2F4F4F;stroke-width:1;"/><polygon fill="#2F4F4F" points="91.08,294.2569,100.6326,291.8592,95.0172,291.175,95.7015,285.5597,91.08,294.2569" style="stroke:#2F4F4F;stroke-width:1;"/><text fill="#000000" font-family="sans-serif" font-size="13" lengthAdjust="spacing" textLength="89.4702" x="172" y="260.3638">authenticates</text></g><!--link FitnessAppFacade to ActivityProvider--><g id="link_FitnessAppFacade_ActivityProvider"><path codeLine="36" d="M771.65,207.1469 C818.05,216.3869 879.8,230.2069 933,247.2969 C973.71,260.3669 1012.8243,276.8318 1045.6843,291.7118 " fill="transparent" id="FitnessAppFacade-to-ActivityProvider" style="stroke:#2F4F4F;stroke-width:1;"/><polygon fill="#2F4F4F" points="1051.15,294.1869,1044.6014,286.8305,1046.5952,292.1243,1041.3014,294.1181,1051.15,294.1869" style="stroke:#2F4F4F;stroke-width:1;"/><text fill="#000000" font-family="sans-serif" font-size="13" lengthAdjust="spacing" textLength="82.7544" x="981" y="260.3638">collects data</text></g><!--link FitnessAppFacade to ProgressTracker--><g id="link_FitnessAppFacade_ProgressTracker"><path codeLine="37" d="M630.34,198.0769 C529.93,204.3569 351.72,219.1369 294,247.2969 C272.06,257.9969 256.528,273.4857 243.608,289.4257 " fill="transparent" id="FitnessAppFacade-to-ProgressTracker" style="stroke:#2F4F4F;stroke-width:1;"/><polygon fill="#2F4F4F" points="239.83,294.0869,248.6045,289.6138,242.9784,290.2026,242.3896,284.5764,239.83,294.0869" style="stroke:#2F4F4F;stroke-width:1;"/><text fill="#000000" font-family="sans-serif" font-size="13" lengthAdjust="spacing" textLength="100.6802" x="295" y="260.3638">tracks progress</text></g><!--link FitnessAppFacade to SocialFeedSystem--><g id="link_FitnessAppFacade_SocialFeedSystem"><path codeLine="38" d="M630.34,200.7669 C599.81,207.4769 566.83,220.8469 548,247.2969 C538.35,260.8569 540.0007,274.0084 545.8107,288.6784 " fill="transparent" id="FitnessAppFacade-to-SocialFeedSystem" style="stroke:#2F4F4F;stroke-width:1;"/><polygon fill="#2F4F4F" points="548.02,294.2569,548.425,284.4163,546.1789,289.6082,540.9871,287.3621,548.02,294.2569" style="stroke:#2F4F4F;stroke-width:1;"/><text fill="#000000" font-family="sans-serif" font-size="13" lengthAdjust="spacing" textLength="125.2329" x="549" y="260.3638">handles social feed</text></g><!--link FitnessAppFacade to CalendarService--><g id="link_FitnessAppFacade_CalendarService"><path codeLine="39" d="M771.59,199.9869 C846.85,207.0669 969.13,221.4969 1072,247.2969 C1119.66,259.2469 1166.3896,276.5025 1204.3496,291.8925 " fill="transparent" id="FitnessAppFacade-to-CalendarService" style="stroke:#2F4F4F;stroke-width:1;"/><polygon fill="#2F4F4F" points="1209.91,294.1469,1203.0723,287.0584,1205.2763,292.2683,1200.0665,294.4723,1209.91,294.1469" style="stroke:#2F4F4F;stroke-width:1;"/><text fill="#000000" font-family="sans-serif" font-size="13" lengthAdjust="spacing" textLength="89.0322" x="1127" y="260.3638">sets schedule</text></g><!--link FitnessAppFacade to NotificationSystem--><g id="link_FitnessAppFacade_NotificationSystem"><path codeLine="40" d="M771.51,195.4269 C873.08,198.3969 1065.85,209.0869 1225,247.2969 C1281.1,260.7669 1304.17,254.5669 1346,294.2969 C1378.62,325.2869 1385.19,344.4969 1381,389.2969 C1380.08,399.1769 1379.3963,404.0873 1377.5163,413.3273 " fill="transparent" id="FitnessAppFacade-to-NotificationSystem" style="stroke:#2F4F4F;stroke-width:1;"/><polygon fill="#2F4F4F" points="1376.32,419.2069,1382.0341,411.1851,1377.3169,414.3073,1374.1947,409.5901,1376.32,419.2069" style="stroke:#2F4F4F;stroke-width:1;"/><text fill="#000000" font-family="sans-serif" font-size="13" lengthAdjust="spacing" textLength="121.0308" x="1380" y="322.8638">triggers reminders</text></g><!--link FitnessAppFacade to AnalyticsSystem--><g id="link_FitnessAppFacade_AnalyticsSystem"><path codeLine="41" d="M630.37,199.8169 C557.17,206.8369 449.05,221.3169 417,247.2969 C402.8,258.8169 396.8687,272.6222 393.1387,288.1822 " fill="transparent" id="FitnessAppFacade-to-AnalyticsSystem" style="stroke:#2F4F4F;stroke-width:1;"/><polygon fill="#2F4F4F" points="391.74,294.0169,397.7278,286.1973,392.9056,289.1546,389.9482,284.3324,391.74,294.0169" style="stroke:#2F4F4F;stroke-width:1;"/><text fill="#000000" font-family="sans-serif" font-size="13" lengthAdjust="spacing" textLength="116.562" x="418" y="260.3638">generates reports</text></g><!--link FitnessAppFacade to Database--><g id="link_FitnessAppFacade_Database"><path codeLine="42" d="M702,217.3869 C702.45,257.5669 697.5,340.6969 653,389.2969 C624.67,420.2369 583.4603,432.2053 548.5903,437.5653 " fill="transparent" id="FitnessAppFacade-to-Database" style="stroke:#2F4F4F;stroke-width:1;"/><polygon fill="#2F4F4F" points="542.66,438.4769,552.1632,441.0631,547.602,437.7172,550.9478,433.1559,542.66,438.4769" style="stroke:#2F4F4F;stroke-width:1;"/><text fill="#000000" font-family="sans-serif" font-size="13" lengthAdjust="spacing" textLength="125.563" x="697" y="322.8638">stores/fetches data</text></g><!--link UserManagement to Database--><g id="link_UserManagement_Database"><path codeLine="44" d="M869.72,342.4069 C829.35,356.9269 775.46,375.4569 727,389.2969 C663.63,407.3969 594.9554,422.5403 548.5454,432.1503 " fill="transparent" id="UserManagement-to-Database" style="stroke:#2F4F4F;stroke-width:1;"/><polygon fill="#2F4F4F" points="542.67,433.3669,552.2941,435.4589,547.5661,432.353,550.672,427.6251,542.67,433.3669" style="stroke:#2F4F4F;stroke-width:1;"/><text fill="#000000" font-family="sans-serif" font-size="13" lengthAdjust="spacing" textLength="80.1709" x="780" y="385.3638">reads/writes</text></g><!--link Authenticator to Database--><g id="link_Authenticator_Database"><path codeLine="45" d="M80.57,342.4069 C93.3,358.2969 112.34,378.4269 134,389.2969 C162.11,403.3969 356.5475,426.517 447.4275,436.727 " fill="transparent" id="Authenticator-to-Database" style="stroke:#2F4F4F;stroke-width:1;"/><polygon fill="#2F4F4F" points="453.39,437.3969,444.8928,432.4171,448.4213,436.8387,443.9997,440.3671,453.39,437.3969" style="stroke:#2F4F4F;stroke-width:1;"/><text fill="#000000" font-family="sans-serif" font-size="13" lengthAdjust="spacing" textLength="121.0054" x="135" y="385.3638">checks credentials</text></g><!--link ProgressTracker to Database--><g id="link_ProgressTracker_Database"><path codeLine="46" d="M237.6,342.4769 C248.54,357.9869 264.88,377.6169 284,389.2969 C336.59,421.4169 401.7056,433.4544 447.2256,438.4344 " fill="transparent" id="ProgressTracker-to-Database" style="stroke:#2F4F4F;stroke-width:1;"/><polygon fill="#2F4F4F" points="453.19,439.0869,444.6784,434.1318,448.2197,438.5431,443.8084,442.0844,453.19,439.0869" style="stroke:#2F4F4F;stroke-width:1;"/><text fill="#000000" font-family="sans-serif" font-size="13" lengthAdjust="spacing" textLength="97.4492" x="285" y="385.3638">syncs progress</text></g><!--link CalendarService to NotificationSystem--><g id="link_CalendarService_NotificationSystem"><path codeLine="47" d="M1254.75,342.4369 C1250.53,356.9669 1248.2,375.4969 1257,389.2969 C1266.62,404.3869 1276.3752,412.6415 1292.5352,420.4315 " fill="transparent" id="CalendarService-to-NotificationSystem" style="stroke:#2F4F4F;stroke-width:1;"/><polygon fill="#2F4F4F" points="1297.94,423.0369,1291.5697,415.5256,1293.436,420.8657,1288.0959,422.732,1297.94,423.0369" style="stroke:#2F4F4F;stroke-width:1;"/><text fill="#000000" font-family="sans-serif" font-size="13" lengthAdjust="spacing" textLength="118.6821" x="1258" y="385.3638">creates reminders</text></g><!--link SocialFeedSystem to Database--><g id="link_SocialFeedSystem_Database"><path codeLine="48" d="M561.17,342.4469 C560.99,356.6269 559.08,374.7869 552,389.2969 C546.52,400.5069 542.0644,406.6009 533.0944,414.9809 " fill="transparent" id="SocialFeedSystem-to-Database" style="stroke:#2F4F4F;stroke-width:1;"/><polygon fill="#2F4F4F" points="528.71,419.0769,538.0172,415.8558,532.3637,415.6635,532.5559,410.01,528.71,419.0769" style="stroke:#2F4F4F;stroke-width:1;"/><text fill="#000000" font-family="sans-serif" font-size="13" lengthAdjust="spacing" textLength="85.5347" x="559" y="385.3638">updates feed</text></g><!--link AnalyticsSystem to Database--><g id="link_AnalyticsSystem_Database"><path codeLine="49" d="M386.2,342.3369 C386.21,357.0169 388.47,375.7369 398,389.2969 C411.22,408.1069 427.6916,418.5032 447.7116,426.7432 " fill="transparent" id="AnalyticsSystem-to-Database" style="stroke:#2F4F4F;stroke-width:1;"/><polygon fill="#2F4F4F" points="453.26,429.0269,446.4598,421.9024,448.6363,427.1238,443.4149,429.3003,453.26,429.0269" style="stroke:#2F4F4F;stroke-width:1;"/><text fill="#000000" font-family="sans-serif" font-size="13" lengthAdjust="spacing" textLength="144.7329" x="399" y="385.3638">fetches historical data</text></g><!--SRC=[TLBBRjim4BphA_RMas6qHwCEeDXma4E304gHyuPSIuGfKY0f1-xZtxlKmxKe-SPz37TsPeCAcY3ttWg5GLa3UuMbmnfMS531aFUGDqsM-PCo3SQ2qCZ9tnd08ufJwMnhvCvgw-2zKe5YtZf9hiyzQcxYNEwS_UnJUtIdGcEW9uSNBXsi2ONwHV3rM_Otoxx0Thk5dNK4kpYAFAmvh1jho0GVgrdFuQSdDpm7haprW08btNJyG8CbrOmTadaRAewKm617V2w2EgjmUNNshEJrstVYbJyqxUcinFXf7nHa_1NEiDBn_3V7srxHBsrmAegQlpuFgHrgCX9TGUxcnnSRr37ouTxYuWFL8os3-i9C_IHRHBFqWKXEqdiC-86UHWcVJKKy7usWJhHqH_Z-PxLALrnkcgoS9TlsBPDb1mOtTzNx5ls0rUfXvXTiG9b0_67msQmO4LChkR_k0Wzjl895oCHeHk3_cEvCcQs_0M6r9gO5alLTHgM2R234buTcA2p3KXyPLw6HcfVgTDDmvDeoDZaaXdfYZbvK95jDow3vdNLKLLcIy-2eLePtlYVDz1OPMP9XnrXBXZRMtNDklCl8aOqWlpvIO9w3ebdYR09nXDAlF_cssBEfeqadVnar5uvax47jPvUQqhaOSMDIgkbToNZ4iFQesCpAP5BRo0xH6PegcVIEwbGgoiMpTIVKFm00]--></g></svg>