<svg xmlns="http://www.w3.org/2000/svg" xmlns:xlink="http://www.w3.org/1999/xlink" contentStyleType="text/css" data-diagram-type="CLASS" height="979px" preserveAspectRatio="none" style="width:1832px;height:979px;background:#FFFFFF;" version="1.1" viewBox="0 0 1832 979" width="1832px" zoomAndPan="magnify"><title>Class Diagram - Fitness App</title><defs/><g><text fill="#000000" font-family="sans-serif" font-size="14" font-weight="bold" lengthAdjust="spacing" textLength="221.3818" x="798.6084" y="22.9951">Class Diagram - Fitness App</text><!--class ICalendarService--><g id="elem_ICalendarService"><rect codeLine="3" fill="#F1F1F1" height="64.2969" id="ICalendarService" rx="2.5" ry="2.5" style="stroke:#181818;stroke-width:0.5;" width="163.4707" x="7" y="422.2969"/><ellipse cx="27.6918" cy="438.2969" fill="#B4A7E5" rx="11" ry="11" style="stroke:#181818;stroke-width:1;"/><path d="M23.6137,434.0625 L23.6137,431.9063 L31.0043,431.9063 L31.0043,434.0625 L28.5355,434.0625 L28.5355,442.1406 L31.0043,442.1406 L31.0043,444.2969 L23.6137,444.2969 L23.6137,442.1406 L26.0824,442.1406 L26.0824,434.0625 L23.6137,434.0625 Z " fill="#000000"/><text fill="#000000" font-family="sans-serif" font-size="14" font-style="italic" lengthAdjust="spacing" textLength="118.8223" x="42.9566" y="443.1436">ICalendarService</text><line style="stroke:#181818;stroke-width:0.5;" x1="8" x2="169.4707" y1="454.2969" y2="454.2969"/><line style="stroke:#181818;stroke-width:0.5;" x1="8" x2="169.4707" y1="462.2969" y2="462.2969"/><ellipse cx="18" cy="475.9453" fill="#84BE84" rx="3" ry="3" style="stroke:#038048;stroke-width:1;"/><text fill="#000000" font-family="sans-serif" font-size="14" lengthAdjust="spacing" textLength="137.4707" x="27" y="479.292">schedule_workout()</text></g><!--class INotificationService--><g id="elem_INotificationService"><rect codeLine="7" fill="#F1F1F1" height="80.5938" id="INotificationService" rx="2.5" ry="2.5" style="stroke:#181818;stroke-width:0.5;" width="210.8711" x="1313" y="413.7969"/><ellipse cx="1347.2023" cy="429.7969" fill="#B4A7E5" rx="11" ry="11" style="stroke:#181818;stroke-width:1;"/><path d="M1343.1242,425.5625 L1343.1242,423.4063 L1350.5148,423.4063 L1350.5148,425.5625 L1348.0461,425.5625 L1348.0461,433.6406 L1350.5148,433.6406 L1350.5148,435.7969 L1343.1242,435.7969 L1343.1242,433.6406 L1345.593,433.6406 L1345.593,425.5625 L1343.1242,425.5625 Z " fill="#000000"/><text fill="#000000" font-family="sans-serif" font-size="14" font-style="italic" lengthAdjust="spacing" textLength="136.1992" x="1365.4695" y="434.6436">INotificationService</text><line style="stroke:#181818;stroke-width:0.5;" x1="1314" x2="1522.8711" y1="445.7969" y2="445.7969"/><line style="stroke:#181818;stroke-width:0.5;" x1="1314" x2="1522.8711" y1="453.7969" y2="453.7969"/><ellipse cx="1324" cy="467.4453" fill="#84BE84" rx="3" ry="3" style="stroke:#038048;stroke-width:1;"/><text fill="#000000" font-family="sans-serif" font-size="14" lengthAdjust="spacing" textLength="126.6973" x="1333" y="470.792">create_reminder()</text><ellipse cx="1324" cy="483.7422" fill="#84BE84" rx="3" ry="3" style="stroke:#038048;stroke-width:1;"/><text fill="#000000" font-family="sans-serif" font-size="14" lengthAdjust="spacing" textLength="184.8711" x="1333" y="487.0889">send_reminder(user, msg)</text></g><!--class IActivityDataProvider--><g id="elem_IActivityDataProvider"><rect codeLine="12" fill="#F1F1F1" height="64.2969" id="IActivityDataProvider" rx="2.5" ry="2.5" style="stroke:#181818;stroke-width:0.5;" width="187.5879" x="1089.5" y="669.2969"/><ellipse cx="1107.7555" cy="685.2969" fill="#B4A7E5" rx="11" ry="11" style="stroke:#181818;stroke-width:1;"/><path d="M1103.6773,681.0625 L1103.6773,678.9063 L1111.068,678.9063 L1111.068,681.0625 L1108.5992,681.0625 L1108.5992,689.1406 L1111.068,689.1406 L1111.068,691.2969 L1103.6773,691.2969 L1103.6773,689.1406 L1106.1461,689.1406 L1106.1461,681.0625 L1103.6773,681.0625 Z " fill="#000000"/><text fill="#000000" font-family="sans-serif" font-size="14" font-style="italic" lengthAdjust="spacing" textLength="148.3535" x="1122.4789" y="690.1436">IActivityDataProvider</text><line style="stroke:#181818;stroke-width:0.5;" x1="1090.5" x2="1276.0879" y1="701.2969" y2="701.2969"/><line style="stroke:#181818;stroke-width:0.5;" x1="1090.5" x2="1276.0879" y1="709.2969" y2="709.2969"/><ellipse cx="1100.5" cy="722.9453" fill="#84BE84" rx="3" ry="3" style="stroke:#038048;stroke-width:1;"/><text fill="#000000" font-family="sans-serif" font-size="14" lengthAdjust="spacing" textLength="161.5879" x="1109.5" y="726.292">get_activity_data(user)</text></g><!--class IProgressTracker--><g id="elem_IProgressTracker"><rect codeLine="16" fill="#F1F1F1" height="96.8906" id="IProgressTracker" rx="2.5" ry="2.5" style="stroke:#181818;stroke-width:0.5;" width="171.1133" x="349" y="652.7969"/><ellipse cx="373.5924" cy="668.7969" fill="#B4A7E5" rx="11" ry="11" style="stroke:#181818;stroke-width:1;"/><path d="M369.5143,664.5625 L369.5143,662.4063 L376.9049,662.4063 L376.9049,664.5625 L374.4361,664.5625 L374.4361,672.6406 L376.9049,672.6406 L376.9049,674.7969 L369.5143,674.7969 L369.5143,672.6406 L371.983,672.6406 L371.983,664.5625 L369.5143,664.5625 Z " fill="#000000"/><text fill="#000000" font-family="sans-serif" font-size="14" font-style="italic" lengthAdjust="spacing" textLength="117.7969" x="389.724" y="673.6436">IProgressTracker</text><line style="stroke:#181818;stroke-width:0.5;" x1="350" x2="519.1133" y1="684.7969" y2="684.7969"/><line style="stroke:#181818;stroke-width:0.5;" x1="350" x2="519.1133" y1="692.7969" y2="692.7969"/><ellipse cx="360" cy="706.4453" fill="#84BE84" rx="3" ry="3" style="stroke:#038048;stroke-width:1;"/><text fill="#000000" font-family="sans-serif" font-size="14" lengthAdjust="spacing" textLength="138.3457" x="369" y="709.792">fetch_calories(user)</text><ellipse cx="360" cy="722.7422" fill="#84BE84" rx="3" ry="3" style="stroke:#038048;stroke-width:1;"/><text fill="#000000" font-family="sans-serif" font-size="14" lengthAdjust="spacing" textLength="145.1133" x="369" y="726.0889">fetch_progress(user)</text><ellipse cx="360" cy="739.0391" fill="#84BE84" rx="3" ry="3" style="stroke:#038048;stroke-width:1;"/><text fill="#000000" font-family="sans-serif" font-size="14" lengthAdjust="spacing" textLength="112.1436" x="369" y="742.3857">sync_data(user)</text></g><!--class User--><g id="elem_User"><rect codeLine="22" fill="#F1F1F1" height="243.5625" id="User" rx="2.5" ry="2.5" style="stroke:#181818;stroke-width:0.5;" width="201.3828" x="1175" y="44.2969"/><ellipse cx="1255.4863" cy="60.2969" fill="#ADD1B2" rx="11" ry="11" style="stroke:#181818;stroke-width:1;"/><path d="M1258.4551,65.9375 Q1257.877,66.2344 1257.2363,66.375 Q1256.5957,66.5313 1255.8926,66.5313 Q1253.3926,66.5313 1252.0645,64.8906 Q1250.752,63.2344 1250.752,60.1094 Q1250.752,56.9844 1252.0645,55.3281 Q1253.3926,53.6719 1255.8926,53.6719 Q1256.5957,53.6719 1257.2363,53.8281 Q1257.8926,53.9844 1258.4551,54.2813 L1258.4551,57 Q1257.8301,56.4219 1257.2363,56.1563 Q1256.6426,55.875 1256.0176,55.875 Q1254.6738,55.875 1253.9863,56.9531 Q1253.2988,58.0156 1253.2988,60.1094 Q1253.2988,62.2031 1253.9863,63.2813 Q1254.6738,64.3438 1256.0176,64.3438 Q1256.6426,64.3438 1257.2363,64.0781 Q1257.8301,63.7969 1258.4551,63.2188 L1258.4551,65.9375 Z " fill="#000000"/><text fill="#000000" font-family="sans-serif" font-size="14" lengthAdjust="spacing" textLength="31.9102" x="1275.9863" y="65.1436">User</text><line style="stroke:#181818;stroke-width:0.5;" x1="1176" x2="1375.3828" y1="76.2969" y2="76.2969"/><rect fill="transparent" height="6" style="stroke:#C82930;stroke-width:1;" width="6" x="1183" y="86.9453"/><text fill="#000000" font-family="sans-serif" font-size="14" lengthAdjust="spacing" textLength="50.3125" x="1195" y="93.292">user_id</text><rect fill="transparent" height="6" style="stroke:#C82930;stroke-width:1;" width="6" x="1183" y="103.2422"/><text fill="#000000" font-family="sans-serif" font-size="14" lengthAdjust="spacing" textLength="39.7031" x="1195" y="109.5889">name</text><rect fill="transparent" height="6" style="stroke:#C82930;stroke-width:1;" width="6" x="1183" y="119.5391"/><text fill="#000000" font-family="sans-serif" font-size="14" lengthAdjust="spacing" textLength="26.0791" x="1195" y="125.8857">age</text><rect fill="transparent" height="6" style="stroke:#C82930;stroke-width:1;" width="6" x="1183" y="135.8359"/><text fill="#000000" font-family="sans-serif" font-size="14" lengthAdjust="spacing" textLength="47.2021" x="1195" y="142.1826">weight</text><rect fill="transparent" height="6" style="stroke:#C82930;stroke-width:1;" width="6" x="1183" y="152.1328"/><text fill="#000000" font-family="sans-serif" font-size="14" lengthAdjust="spacing" textLength="44.625" x="1195" y="158.4795">height</text><rect fill="transparent" height="6" style="stroke:#C82930;stroke-width:1;" width="6" x="1183" y="168.4297"/><text fill="#000000" font-family="sans-serif" font-size="14" lengthAdjust="spacing" textLength="37.2148" x="1195" y="174.7764">goals</text><rect fill="transparent" height="6" style="stroke:#C82930;stroke-width:1;" width="6" x="1183" y="184.7266"/><text fill="#000000" font-family="sans-serif" font-size="14" lengthAdjust="spacing" textLength="94.0352" x="1195" y="191.0732">workout_plan</text><line style="stroke:#181818;stroke-width:0.5;" x1="1176" x2="1375.3828" y1="198.375" y2="198.375"/><ellipse cx="1186" cy="212.0234" fill="#84BE84" rx="3" ry="3" style="stroke:#038048;stroke-width:1;"/><text fill="#000000" font-family="sans-serif" font-size="14" lengthAdjust="spacing" textLength="106.4561" x="1195" y="215.3701">set_goals(goal)</text><ellipse cx="1186" cy="228.3203" fill="#84BE84" rx="3" ry="3" style="stroke:#038048;stroke-width:1;"/><text fill="#000000" font-family="sans-serif" font-size="14" lengthAdjust="spacing" textLength="175.3828" x="1195" y="231.667">generate_workout_plan()</text><ellipse cx="1186" cy="244.6172" fill="#84BE84" rx="3" ry="3" style="stroke:#038048;stroke-width:1;"/><text fill="#000000" font-family="sans-serif" font-size="14" lengthAdjust="spacing" textLength="122.4043" x="1195" y="247.9639">log_activity(data)</text><ellipse cx="1186" cy="260.9141" fill="#84BE84" rx="3" ry="3" style="stroke:#038048;stroke-width:1;"/><text fill="#000000" font-family="sans-serif" font-size="14" lengthAdjust="spacing" textLength="153.8564" x="1195" y="264.2607">post_to_feed(content)</text><ellipse cx="1186" cy="277.2109" fill="#84BE84" rx="3" ry="3" style="stroke:#038048;stroke-width:1;"/><text fill="#000000" font-family="sans-serif" font-size="14" lengthAdjust="spacing" textLength="111.7813" x="1195" y="280.5576">update_profile()</text></g><!--class FitnessAppSystem--><g id="elem_FitnessAppSystem"><rect codeLine="38" fill="#F1F1F1" height="178.375" id="FitnessAppSystem" rx="2.5" ry="2.5" style="stroke:#181818;stroke-width:0.5;" width="210.8711" x="753" y="365.2969"/><ellipse cx="790.4139" cy="381.2969" fill="#ADD1B2" rx="11" ry="11" style="stroke:#181818;stroke-width:1;"/><path d="M793.3826,386.9375 Q792.8045,387.2344 792.1639,387.375 Q791.5232,387.5313 790.8201,387.5313 Q788.3201,387.5313 786.992,385.8906 Q785.6795,384.2344 785.6795,381.1094 Q785.6795,377.9844 786.992,376.3281 Q788.3201,374.6719 790.8201,374.6719 Q791.5232,374.6719 792.1639,374.8281 Q792.8201,374.9844 793.3826,375.2813 L793.3826,378 Q792.7576,377.4219 792.1639,377.1563 Q791.5701,376.875 790.9451,376.875 Q789.6014,376.875 788.9139,377.9531 Q788.2264,379.0156 788.2264,381.1094 Q788.2264,383.2031 788.9139,384.2813 Q789.6014,385.3438 790.9451,385.3438 Q791.5701,385.3438 792.1639,385.0781 Q792.7576,384.7969 793.3826,384.2188 L793.3826,386.9375 Z " fill="#000000"/><text fill="#000000" font-family="sans-serif" font-size="14" lengthAdjust="spacing" textLength="129.0625" x="809.3947" y="386.1436">FitnessAppSystem</text><line style="stroke:#181818;stroke-width:0.5;" x1="754" x2="962.8711" y1="397.2969" y2="397.2969"/><rect fill="transparent" height="6" style="stroke:#C82930;stroke-width:1;" width="6" x="761" y="407.9453"/><text fill="#000000" font-family="sans-serif" font-size="14" lengthAdjust="spacing" textLength="37.8301" x="773" y="414.292">users</text><rect fill="transparent" height="6" style="stroke:#C82930;stroke-width:1;" width="6" x="761" y="424.2422"/><text fill="#000000" font-family="sans-serif" font-size="14" lengthAdjust="spacing" textLength="53.2793" x="773" y="430.5889">devices</text><rect fill="transparent" height="6" style="stroke:#C82930;stroke-width:1;" width="6" x="761" y="440.5391"/><text fill="#000000" font-family="sans-serif" font-size="14" lengthAdjust="spacing" textLength="95.3477" x="773" y="446.8857">nutrition_apis</text><rect fill="transparent" height="6" style="stroke:#C82930;stroke-width:1;" width="6" x="761" y="456.8359"/><text fill="#000000" font-family="sans-serif" font-size="14" lengthAdjust="spacing" textLength="86.0234" x="773" y="463.1826">notifications</text><line style="stroke:#181818;stroke-width:0.5;" x1="754" x2="962.8711" y1="470.4844" y2="470.4844"/><ellipse cx="764" cy="484.1328" fill="#84BE84" rx="3" ry="3" style="stroke:#038048;stroke-width:1;"/><text fill="#000000" font-family="sans-serif" font-size="14" lengthAdjust="spacing" textLength="133.2939" x="773" y="487.4795">register_user(user)</text><ellipse cx="764" cy="500.4297" fill="#84BE84" rx="3" ry="3" style="stroke:#038048;stroke-width:1;"/><text fill="#000000" font-family="sans-serif" font-size="14" lengthAdjust="spacing" textLength="176.9277" x="773" y="503.7764">sync_with_wearable(dev)</text><ellipse cx="764" cy="516.7266" fill="#84BE84" rx="3" ry="3" style="stroke:#038048;stroke-width:1;"/><text fill="#000000" font-family="sans-serif" font-size="14" lengthAdjust="spacing" textLength="161.7861" x="773" y="520.0732">connect_nutrition_api()</text><ellipse cx="764" cy="533.0234" fill="#84BE84" rx="3" ry="3" style="stroke:#038048;stroke-width:1;"/><text fill="#000000" font-family="sans-serif" font-size="14" lengthAdjust="spacing" textLength="184.8711" x="773" y="536.3701">send_reminder(user, msg)</text></g><!--class IUserManagement--><g id="elem_IUserManagement"><rect codeLine="48" fill="#F1F1F1" height="80.5938" id="IUserManagement" rx="2.5" ry="2.5" style="stroke:#181818;stroke-width:0.5;" width="192.5508" x="555" y="660.7969"/><ellipse cx="584.5296" cy="676.7969" fill="#B4A7E5" rx="11" ry="11" style="stroke:#181818;stroke-width:1;"/><path d="M580.4515,672.5625 L580.4515,670.4063 L587.8421,670.4063 L587.8421,672.5625 L585.3734,672.5625 L585.3734,680.6406 L587.8421,680.6406 L587.8421,682.7969 L580.4515,682.7969 L580.4515,680.6406 L582.9203,680.6406 L582.9203,672.5625 L580.4515,672.5625 Z " fill="#000000"/><text fill="#000000" font-family="sans-serif" font-size="14" font-style="italic" lengthAdjust="spacing" textLength="128.2627" x="601.7584" y="681.6436">IUserManagement</text><line style="stroke:#181818;stroke-width:0.5;" x1="556" x2="746.5508" y1="692.7969" y2="692.7969"/><line style="stroke:#181818;stroke-width:0.5;" x1="556" x2="746.5508" y1="700.7969" y2="700.7969"/><ellipse cx="566" cy="714.4453" fill="#84BE84" rx="3" ry="3" style="stroke:#038048;stroke-width:1;"/><text fill="#000000" font-family="sans-serif" font-size="14" lengthAdjust="spacing" textLength="166.5508" x="575" y="717.792">register_user(user_info)</text><ellipse cx="566" cy="730.7422" fill="#84BE84" rx="3" ry="3" style="stroke:#038048;stroke-width:1;"/><text fill="#000000" font-family="sans-serif" font-size="14" lengthAdjust="spacing" textLength="122.6094" x="575" y="734.0889">login(credentials)</text></g><!--class WearableDevice--><g id="elem_WearableDevice"><rect codeLine="53" fill="#F1F1F1" height="113.1875" id="WearableDevice" rx="2.5" ry="2.5" style="stroke:#181818;stroke-width:0.5;" width="187.5879" x="909.5" y="851.2969"/><ellipse cx="942.9271" cy="867.2969" fill="#ADD1B2" rx="11" ry="11" style="stroke:#181818;stroke-width:1;"/><path d="M945.8959,872.9375 Q945.3178,873.2344 944.6771,873.375 Q944.0365,873.5313 943.3334,873.5313 Q940.8334,873.5313 939.5053,871.8906 Q938.1928,870.2344 938.1928,867.1094 Q938.1928,863.9844 939.5053,862.3281 Q940.8334,860.6719 943.3334,860.6719 Q944.0365,860.6719 944.6771,860.8281 Q945.3334,860.9844 945.8959,861.2813 L945.8959,864 Q945.2709,863.4219 944.6771,863.1563 Q944.0834,862.875 943.4584,862.875 Q942.1146,862.875 941.4271,863.9531 Q940.7396,865.0156 940.7396,867.1094 Q940.7396,869.2031 941.4271,870.2813 Q942.1146,871.3438 943.4584,871.3438 Q944.0834,871.3438 944.6771,871.0781 Q945.2709,870.7969 945.8959,870.2188 L945.8959,872.9375 Z " fill="#000000"/><text fill="#000000" font-family="sans-serif" font-size="14" lengthAdjust="spacing" textLength="114.6387" x="961.0221" y="872.1436">WearableDevice</text><line style="stroke:#181818;stroke-width:0.5;" x1="910.5" x2="1096.0879" y1="883.2969" y2="883.2969"/><rect fill="transparent" height="6" style="stroke:#C82930;stroke-width:1;" width="6" x="917.5" y="893.9453"/><text fill="#000000" font-family="sans-serif" font-size="14" lengthAdjust="spacing" textLength="65.7617" x="929.5" y="900.292">device_id</text><rect fill="transparent" height="6" style="stroke:#C82930;stroke-width:1;" width="6" x="917.5" y="910.2422"/><text fill="#000000" font-family="sans-serif" font-size="14" lengthAdjust="spacing" textLength="31.2744" x="929.5" y="916.5889">type</text><rect fill="transparent" height="6" style="stroke:#C82930;stroke-width:1;" width="6" x="917.5" y="926.5391"/><text fill="#000000" font-family="sans-serif" font-size="14" lengthAdjust="spacing" textLength="40.9814" x="929.5" y="932.8857">brand</text><line style="stroke:#181818;stroke-width:0.5;" x1="910.5" x2="1096.0879" y1="940.1875" y2="940.1875"/><ellipse cx="920.5" cy="953.8359" fill="#84BE84" rx="3" ry="3" style="stroke:#038048;stroke-width:1;"/><text fill="#000000" font-family="sans-serif" font-size="14" lengthAdjust="spacing" textLength="161.5879" x="929.5" y="957.1826">get_activity_data(user)</text></g><!--class NutritionAPI--><g id="elem_NutritionAPI"><rect codeLine="60" fill="#F1F1F1" height="129.4844" id="NutritionAPI" rx="2.5" ry="2.5" style="stroke:#181818;stroke-width:0.5;" width="171.1133" x="214" y="843.2969"/><ellipse cx="254.0501" cy="859.2969" fill="#ADD1B2" rx="11" ry="11" style="stroke:#181818;stroke-width:1;"/><path d="M257.0189,864.9375 Q256.4408,865.2344 255.8001,865.375 Q255.1595,865.5313 254.4564,865.5313 Q251.9564,865.5313 250.6283,863.8906 Q249.3158,862.2344 249.3158,859.1094 Q249.3158,855.9844 250.6283,854.3281 Q251.9564,852.6719 254.4564,852.6719 Q255.1595,852.6719 255.8001,852.8281 Q256.4564,852.9844 257.0189,853.2813 L257.0189,856 Q256.3939,855.4219 255.8001,855.1563 Q255.2064,854.875 254.5814,854.875 Q253.2376,854.875 252.5501,855.9531 Q251.8626,857.0156 251.8626,859.1094 Q251.8626,861.2031 252.5501,862.2813 Q253.2376,863.3438 254.5814,863.3438 Q255.2064,863.3438 255.8001,863.0781 Q256.3939,862.7969 257.0189,862.2188 L257.0189,864.9375 Z " fill="#000000"/><text fill="#000000" font-family="sans-serif" font-size="14" lengthAdjust="spacing" textLength="83.4463" x="273.6168" y="864.1436">NutritionAPI</text><line style="stroke:#181818;stroke-width:0.5;" x1="215" x2="384.1133" y1="875.2969" y2="875.2969"/><rect fill="transparent" height="6" style="stroke:#C82930;stroke-width:1;" width="6" x="222" y="885.9453"/><text fill="#000000" font-family="sans-serif" font-size="14" lengthAdjust="spacing" textLength="39.7031" x="234" y="892.292">name</text><rect fill="transparent" height="6" style="stroke:#C82930;stroke-width:1;" width="6" x="222" y="902.2422"/><text fill="#000000" font-family="sans-serif" font-size="14" lengthAdjust="spacing" textLength="53.3613" x="234" y="908.5889">api_key</text><line style="stroke:#181818;stroke-width:0.5;" x1="215" x2="384.1133" y1="915.8906" y2="915.8906"/><ellipse cx="225" cy="929.5391" fill="#84BE84" rx="3" ry="3" style="stroke:#038048;stroke-width:1;"/><text fill="#000000" font-family="sans-serif" font-size="14" lengthAdjust="spacing" textLength="138.3457" x="234" y="932.8857">fetch_calories(user)</text><ellipse cx="225" cy="945.8359" fill="#84BE84" rx="3" ry="3" style="stroke:#038048;stroke-width:1;"/><text fill="#000000" font-family="sans-serif" font-size="14" lengthAdjust="spacing" textLength="145.1133" x="234" y="949.1826">fetch_progress(user)</text><ellipse cx="225" cy="962.1328" fill="#84BE84" rx="3" ry="3" style="stroke:#038048;stroke-width:1;"/><text fill="#000000" font-family="sans-serif" font-size="14" lengthAdjust="spacing" textLength="112.1436" x="234" y="965.4795">sync_data(user)</text></g><!--class DeviceSensor--><g id="elem_DeviceSensor"><rect codeLine="68" fill="#F1F1F1" height="80.5938" id="DeviceSensor" rx="2.5" ry="2.5" style="stroke:#181818;stroke-width:0.5;" width="182.3789" x="1132.5" y="867.2969"/><ellipse cx="1172.0303" cy="883.2969" fill="#ADD1B2" rx="11" ry="11" style="stroke:#181818;stroke-width:1;"/><path d="M1174.999,888.9375 Q1174.4209,889.2344 1173.7803,889.375 Q1173.1396,889.5313 1172.4365,889.5313 Q1169.9365,889.5313 1168.6084,887.8906 Q1167.2959,886.2344 1167.2959,883.1094 Q1167.2959,879.9844 1168.6084,878.3281 Q1169.9365,876.6719 1172.4365,876.6719 Q1173.1396,876.6719 1173.7803,876.8281 Q1174.4365,876.9844 1174.999,877.2813 L1174.999,880 Q1174.374,879.4219 1173.7803,879.1563 Q1173.1865,878.875 1172.5615,878.875 Q1171.2178,878.875 1170.5303,879.9531 Q1169.8428,881.0156 1169.8428,883.1094 Q1169.8428,885.2031 1170.5303,886.2813 Q1171.2178,887.3438 1172.5615,887.3438 Q1173.1865,887.3438 1173.7803,887.0781 Q1174.374,886.7969 1174.999,886.2188 L1174.999,888.9375 Z " fill="#000000"/><text fill="#000000" font-family="sans-serif" font-size="14" lengthAdjust="spacing" textLength="95.8672" x="1191.4814" y="888.1436">DeviceSensor</text><line style="stroke:#181818;stroke-width:0.5;" x1="1133.5" x2="1313.8789" y1="899.2969" y2="899.2969"/><rect fill="transparent" height="6" style="stroke:#C82930;stroke-width:1;" width="6" x="1140.5" y="909.9453"/><text fill="#000000" font-family="sans-serif" font-size="14" lengthAdjust="spacing" textLength="84.6699" x="1152.5" y="916.292">sensor_type</text><line style="stroke:#181818;stroke-width:0.5;" x1="1133.5" x2="1313.8789" y1="923.5938" y2="923.5938"/><ellipse cx="1143.5" cy="937.2422" fill="#84BE84" rx="3" ry="3" style="stroke:#038048;stroke-width:1;"/><text fill="#000000" font-family="sans-serif" font-size="14" lengthAdjust="spacing" textLength="156.3789" x="1152.5" y="940.5889">get_sensor_data(user)</text></g><!--class CalendarService--><g id="elem_CalendarService"><rect codeLine="73" fill="#F1F1F1" height="80.5938" id="CalendarService" rx="2.5" ry="2.5" style="stroke:#181818;stroke-width:0.5;" width="163.4707" x="7" y="660.7969"/><ellipse cx="29.5498" cy="676.7969" fill="#ADD1B2" rx="11" ry="11" style="stroke:#181818;stroke-width:1;"/><path d="M32.5186,682.4375 Q31.9404,682.7344 31.2998,682.875 Q30.6592,683.0313 29.9561,683.0313 Q27.4561,683.0313 26.1279,681.3906 Q24.8154,679.7344 24.8154,676.6094 Q24.8154,673.4844 26.1279,671.8281 Q27.4561,670.1719 29.9561,670.1719 Q30.6592,670.1719 31.2998,670.3281 Q31.9561,670.4844 32.5186,670.7813 L32.5186,673.5 Q31.8936,672.9219 31.2998,672.6563 Q30.7061,672.375 30.0811,672.375 Q28.7373,672.375 28.0498,673.4531 Q27.3623,674.5156 27.3623,676.6094 Q27.3623,678.7031 28.0498,679.7813 Q28.7373,680.8438 30.0811,680.8438 Q30.7061,680.8438 31.2998,680.5781 Q31.8936,680.2969 32.5186,679.7188 L32.5186,682.4375 Z " fill="#000000"/><text fill="#000000" font-family="sans-serif" font-size="14" lengthAdjust="spacing" textLength="114.6934" x="45.2275" y="681.6436">CalendarService</text><line style="stroke:#181818;stroke-width:0.5;" x1="8" x2="169.4707" y1="692.7969" y2="692.7969"/><rect fill="transparent" height="6" style="stroke:#C82930;stroke-width:1;" width="6" x="15" y="703.4453"/><text fill="#000000" font-family="sans-serif" font-size="14" lengthAdjust="spacing" textLength="88.4229" x="27" y="709.792">service_type</text><line style="stroke:#181818;stroke-width:0.5;" x1="8" x2="169.4707" y1="717.0938" y2="717.0938"/><ellipse cx="18" cy="730.7422" fill="#84BE84" rx="3" ry="3" style="stroke:#038048;stroke-width:1;"/><text fill="#000000" font-family="sans-serif" font-size="14" lengthAdjust="spacing" textLength="137.4707" x="27" y="734.0889">schedule_workout()</text></g><!--class NotificationSystem--><g id="elem_NotificationSystem"><rect codeLine="78" fill="#F1F1F1" height="96.8906" id="NotificationSystem" rx="2.5" ry="2.5" style="stroke:#181818;stroke-width:0.5;" width="210.8711" x="1313" y="652.7969"/><ellipse cx="1348.8512" cy="668.7969" fill="#ADD1B2" rx="11" ry="11" style="stroke:#181818;stroke-width:1;"/><path d="M1351.8199,674.4375 Q1351.2418,674.7344 1350.6012,674.875 Q1349.9605,675.0313 1349.2574,675.0313 Q1346.7574,675.0313 1345.4293,673.3906 Q1344.1168,671.7344 1344.1168,668.6094 Q1344.1168,665.4844 1345.4293,663.8281 Q1346.7574,662.1719 1349.2574,662.1719 Q1349.9605,662.1719 1350.6012,662.3281 Q1351.2574,662.4844 1351.8199,662.7813 L1351.8199,665.5 Q1351.1949,664.9219 1350.6012,664.6563 Q1350.0074,664.375 1349.3824,664.375 Q1348.0387,664.375 1347.3512,665.4531 Q1346.6637,666.5156 1346.6637,668.6094 Q1346.6637,670.7031 1347.3512,671.7813 Q1348.0387,672.8438 1349.3824,672.8438 Q1350.0074,672.8438 1350.6012,672.5781 Q1351.1949,672.2969 1351.8199,671.7188 L1351.8199,674.4375 Z " fill="#000000"/><text fill="#000000" font-family="sans-serif" font-size="14" lengthAdjust="spacing" textLength="132.5352" x="1367.4848" y="673.6436">NotificationSystem</text><line style="stroke:#181818;stroke-width:0.5;" x1="1314" x2="1522.8711" y1="684.7969" y2="684.7969"/><rect fill="transparent" height="6" style="stroke:#C82930;stroke-width:1;" width="6" x="1321" y="695.4453"/><text fill="#000000" font-family="sans-serif" font-size="14" lengthAdjust="spacing" textLength="71.3193" x="1333" y="701.792">reminders</text><line style="stroke:#181818;stroke-width:0.5;" x1="1314" x2="1522.8711" y1="709.0938" y2="709.0938"/><ellipse cx="1324" cy="722.7422" fill="#84BE84" rx="3" ry="3" style="stroke:#038048;stroke-width:1;"/><text fill="#000000" font-family="sans-serif" font-size="14" lengthAdjust="spacing" textLength="126.6973" x="1333" y="726.0889">create_reminder()</text><ellipse cx="1324" cy="739.0391" fill="#84BE84" rx="3" ry="3" style="stroke:#038048;stroke-width:1;"/><text fill="#000000" font-family="sans-serif" font-size="14" lengthAdjust="spacing" textLength="184.8711" x="1333" y="742.3857">send_reminder(user, msg)</text></g><!--class ISocialFeed--><g id="elem_ISocialFeed"><rect codeLine="84" fill="#F1F1F1" height="129.4844" id="ISocialFeed" rx="2.5" ry="2.5" style="stroke:#181818;stroke-width:0.5;" width="266.0986" x="1559.5" y="389.7969"/><ellipse cx="1648.3979" cy="405.7969" fill="#B4A7E5" rx="11" ry="11" style="stroke:#181818;stroke-width:1;"/><path d="M1644.3198,401.5625 L1644.3198,399.4063 L1651.7104,399.4063 L1651.7104,401.5625 L1649.2417,401.5625 L1649.2417,409.6406 L1651.7104,409.6406 L1651.7104,411.7969 L1644.3198,411.7969 L1644.3198,409.6406 L1646.7886,409.6406 L1646.7886,401.5625 L1644.3198,401.5625 Z " fill="#000000"/><text fill="#000000" font-family="sans-serif" font-size="14" font-style="italic" lengthAdjust="spacing" textLength="79.8027" x="1668.8979" y="410.6436">ISocialFeed</text><line style="stroke:#181818;stroke-width:0.5;" x1="1560.5" x2="1824.5986" y1="421.7969" y2="421.7969"/><line style="stroke:#181818;stroke-width:0.5;" x1="1560.5" x2="1824.5986" y1="429.7969" y2="429.7969"/><ellipse cx="1570.5" cy="443.4453" fill="#84BE84" rx="3" ry="3" style="stroke:#038048;stroke-width:1;"/><text fill="#000000" font-family="sans-serif" font-size="14" lengthAdjust="spacing" textLength="167.5488" x="1579.5" y="446.792">add_post(user, content)</text><ellipse cx="1570.5" cy="459.7422" fill="#84BE84" rx="3" ry="3" style="stroke:#038048;stroke-width:1;"/><text fill="#000000" font-family="sans-serif" font-size="14" lengthAdjust="spacing" textLength="141.5928" x="1579.5" y="463.0889">join_challenge(user)</text><ellipse cx="1570.5" cy="476.0391" fill="#84BE84" rx="3" ry="3" style="stroke:#038048;stroke-width:1;"/><text fill="#000000" font-family="sans-serif" font-size="14" lengthAdjust="spacing" textLength="122.6709" x="1579.5" y="479.3857">like_post(post_id)</text><ellipse cx="1570.5" cy="492.3359" fill="#84BE84" rx="3" ry="3" style="stroke:#038048;stroke-width:1;"/><text fill="#000000" font-family="sans-serif" font-size="14" lengthAdjust="spacing" textLength="240.0986" x="1579.5" y="495.6826">comment_post(post_id, comment)</text><ellipse cx="1570.5" cy="508.6328" fill="#84BE84" rx="3" ry="3" style="stroke:#038048;stroke-width:1;"/><text fill="#000000" font-family="sans-serif" font-size="14" lengthAdjust="spacing" textLength="137.2861" x="1579.5" y="511.9795">share_post(post_id)</text></g><!--class SocialFeed--><g id="elem_SocialFeed"><rect codeLine="92" fill="#F1F1F1" height="162.0781" id="SocialFeed" rx="2.5" ry="2.5" style="stroke:#181818;stroke-width:0.5;" width="266.0986" x="1559.5" y="620.2969"/><ellipse cx="1650.4624" cy="636.2969" fill="#ADD1B2" rx="11" ry="11" style="stroke:#181818;stroke-width:1;"/><path d="M1653.4312,641.9375 Q1652.853,642.2344 1652.2124,642.375 Q1651.5718,642.5313 1650.8687,642.5313 Q1648.3687,642.5313 1647.0405,640.8906 Q1645.728,639.2344 1645.728,636.1094 Q1645.728,632.9844 1647.0405,631.3281 Q1648.3687,629.6719 1650.8687,629.6719 Q1651.5718,629.6719 1652.2124,629.8281 Q1652.8687,629.9844 1653.4312,630.2813 L1653.4312,633 Q1652.8062,632.4219 1652.2124,632.1563 Q1651.6187,631.875 1650.9937,631.875 Q1649.6499,631.875 1648.9624,632.9531 Q1648.2749,634.0156 1648.2749,636.1094 Q1648.2749,638.2031 1648.9624,639.2813 Q1649.6499,640.3438 1650.9937,640.3438 Q1651.6187,640.3438 1652.2124,640.0781 Q1652.8062,639.7969 1653.4312,639.2188 L1653.4312,641.9375 Z " fill="#000000"/><text fill="#000000" font-family="sans-serif" font-size="14" lengthAdjust="spacing" textLength="75.6738" x="1670.9624" y="641.1436">SocialFeed</text><line style="stroke:#181818;stroke-width:0.5;" x1="1560.5" x2="1824.5986" y1="652.2969" y2="652.2969"/><rect fill="transparent" height="6" style="stroke:#C82930;stroke-width:1;" width="6" x="1567.5" y="662.9453"/><text fill="#000000" font-family="sans-serif" font-size="14" lengthAdjust="spacing" textLength="37.5293" x="1579.5" y="669.292">posts</text><rect fill="transparent" height="6" style="stroke:#C82930;stroke-width:1;" width="6" x="1567.5" y="679.2422"/><text fill="#000000" font-family="sans-serif" font-size="14" lengthAdjust="spacing" textLength="75.209" x="1579.5" y="685.5889">challenges</text><line style="stroke:#181818;stroke-width:0.5;" x1="1560.5" x2="1824.5986" y1="692.8906" y2="692.8906"/><ellipse cx="1570.5" cy="706.5391" fill="#84BE84" rx="3" ry="3" style="stroke:#038048;stroke-width:1;"/><text fill="#000000" font-family="sans-serif" font-size="14" lengthAdjust="spacing" textLength="167.5488" x="1579.5" y="709.8857">add_post(user, content)</text><ellipse cx="1570.5" cy="722.8359" fill="#84BE84" rx="3" ry="3" style="stroke:#038048;stroke-width:1;"/><text fill="#000000" font-family="sans-serif" font-size="14" lengthAdjust="spacing" textLength="141.5928" x="1579.5" y="726.1826">join_challenge(user)</text><ellipse cx="1570.5" cy="739.1328" fill="#84BE84" rx="3" ry="3" style="stroke:#038048;stroke-width:1;"/><text fill="#000000" font-family="sans-serif" font-size="14" lengthAdjust="spacing" textLength="122.6709" x="1579.5" y="742.4795">like_post(post_id)</text><ellipse cx="1570.5" cy="755.4297" fill="#84BE84" rx="3" ry="3" style="stroke:#038048;stroke-width:1;"/><text fill="#000000" font-family="sans-serif" font-size="14" lengthAdjust="spacing" textLength="240.0986" x="1579.5" y="758.7764">comment_post(post_id, comment)</text><ellipse cx="1570.5" cy="771.7266" fill="#84BE84" rx="3" ry="3" style="stroke:#038048;stroke-width:1;"/><text fill="#000000" font-family="sans-serif" font-size="14" lengthAdjust="spacing" textLength="137.2861" x="1579.5" y="775.0732">share_post(post_id)</text></g><!--class AnalyticsSystem--><g id="elem_AnalyticsSystem"><rect codeLine="105" fill="#F1F1F1" height="96.8906" id="AnalyticsSystem" rx="2.5" ry="2.5" style="stroke:#181818;stroke-width:0.5;" width="150.4141" x="783.5" y="652.7969"/><ellipse cx="799.6852" cy="668.7969" fill="#ADD1B2" rx="11" ry="11" style="stroke:#181818;stroke-width:1;"/><path d="M802.654,674.4375 Q802.0758,674.7344 801.4352,674.875 Q800.7946,675.0313 800.0915,675.0313 Q797.5915,675.0313 796.2633,673.3906 Q794.9508,671.7344 794.9508,668.6094 Q794.9508,665.4844 796.2633,663.8281 Q797.5915,662.1719 800.0915,662.1719 Q800.7946,662.1719 801.4352,662.3281 Q802.0915,662.4844 802.654,662.7813 L802.654,665.5 Q802.029,664.9219 801.4352,664.6563 Q800.8415,664.375 800.2165,664.375 Q798.8727,664.375 798.1852,665.4531 Q797.4977,666.5156 797.4977,668.6094 Q797.4977,670.7031 798.1852,671.7813 Q798.8727,672.8438 800.2165,672.8438 Q800.8415,672.8438 801.4352,672.5781 Q802.029,672.2969 802.654,671.7188 L802.654,674.4375 Z " fill="#000000"/><text fill="#000000" font-family="sans-serif" font-size="14" lengthAdjust="spacing" textLength="115.7803" x="813.9486" y="673.6436">AnalyticsSystem</text><line style="stroke:#181818;stroke-width:0.5;" x1="784.5" x2="932.9141" y1="684.7969" y2="684.7969"/><rect fill="transparent" height="6" style="stroke:#C82930;stroke-width:1;" width="6" x="791.5" y="695.4453"/><text fill="#000000" font-family="sans-serif" font-size="14" lengthAdjust="spacing" textLength="67.1699" x="803.5" y="701.792">data_logs</text><line style="stroke:#181818;stroke-width:0.5;" x1="784.5" x2="932.9141" y1="709.0938" y2="709.0938"/><ellipse cx="794.5" cy="722.7422" fill="#84BE84" rx="3" ry="3" style="stroke:#038048;stroke-width:1;"/><text fill="#000000" font-family="sans-serif" font-size="14" lengthAdjust="spacing" textLength="124.4141" x="803.5" y="726.0889">generate_report()</text><ellipse cx="794.5" cy="739.0391" fill="#84BE84" rx="3" ry="3" style="stroke:#038048;stroke-width:1;"/><text fill="#000000" font-family="sans-serif" font-size="14" lengthAdjust="spacing" textLength="115.9102" x="803.5" y="742.3857">display_graphs()</text></g><!--reverse link IActivityDataProvider to WearableDevice--><g id="link_IActivityDataProvider_WearableDevice"><path d="M1144.2662,746.8675 C1116.8262,778.0375 1085.86,813.2269 1052.52,851.0969 " fill="transparent" id="IActivityDataProvider-backto-WearableDevice" style="stroke:#181818;stroke-width:1;stroke-dasharray:7.0,7.0;"/><polygon fill="transparent" points="1156.16,733.3569,1139.7626,742.9029,1148.7697,750.8321,1156.16,733.3569" style="stroke:#181818;stroke-width:1;"/></g><!--reverse link IProgressTracker to NutritionAPI--><g id="link_IProgressTracker_NutritionAPI"><path d="M393.1017,765.0078 C374.7917,792.7378 361.4,813.0269 341.54,843.1169 " fill="transparent" id="IProgressTracker-backto-NutritionAPI" style="stroke:#181818;stroke-width:1;stroke-dasharray:7.0,7.0;"/><polygon fill="transparent" points="403.02,749.9869,388.0948,761.7017,398.1087,768.3139,403.02,749.9869" style="stroke:#181818;stroke-width:1;"/></g><!--reverse link IActivityDataProvider to DeviceSensor--><g id="link_IActivityDataProvider_DeviceSensor"><path d="M1193.034,751.0224 C1200.024,786.7724 1208.07,827.9269 1215.72,867.0069 " fill="transparent" id="IActivityDataProvider-backto-DeviceSensor" style="stroke:#181818;stroke-width:1;stroke-dasharray:7.0,7.0;"/><polygon fill="transparent" points="1189.58,733.3569,1187.1455,752.1737,1198.9225,749.871,1189.58,733.3569" style="stroke:#181818;stroke-width:1;"/></g><!--reverse link ICalendarService to CalendarService--><g id="link_ICalendarService_CalendarService"><path d="M88.5,504.3269 C88.5,548.6169 88.5,611.9869 88.5,660.6069 " fill="transparent" id="ICalendarService-backto-CalendarService" style="stroke:#181818;stroke-width:1;stroke-dasharray:7.0,7.0;"/><polygon fill="transparent" points="88.5,486.3269,82.5,504.3269,94.5,504.3269,88.5,486.3269" style="stroke:#181818;stroke-width:1;"/></g><!--reverse link INotificationService to NotificationSystem--><g id="link_INotificationService_NotificationSystem"><path d="M1418.5,512.9369 C1418.5,555.9969 1418.5,606.7869 1418.5,652.7369 " fill="transparent" id="INotificationService-backto-NotificationSystem" style="stroke:#181818;stroke-width:1;stroke-dasharray:7.0,7.0;"/><polygon fill="transparent" points="1418.5,494.9369,1412.5,512.9369,1424.5,512.9369,1418.5,494.9369" style="stroke:#181818;stroke-width:1;"/></g><!--reverse link ISocialFeed to SocialFeed--><g id="link_ISocialFeed_SocialFeed"><path d="M1692.5,537.0269 C1692.5,567.9369 1692.5,587.3869 1692.5,620.2069 " fill="transparent" id="ISocialFeed-backto-SocialFeed" style="stroke:#181818;stroke-width:1;stroke-dasharray:7.0,7.0;"/><polygon fill="transparent" points="1692.5,519.0269,1686.5,537.0269,1698.5,537.0269,1692.5,519.0269" style="stroke:#181818;stroke-width:1;"/></g><!--link User to FitnessAppSystem--><g id="link_User_FitnessAppSystem"><path codeLine="111" d="M1174.82,236.3469 C1111.07,280.0669 1033.7178,333.1229 969.0478,377.4829 " fill="transparent" id="User-to-FitnessAppSystem" style="stroke:#181818;stroke-width:1;"/><polygon fill="#181818" points="964.1,380.8769,973.7844,379.0845,968.2232,378.0486,969.2591,372.4874,964.1,380.8769" style="stroke:#181818;stroke-width:1;"/><polygon fill="#000000" points="1055.3767,329.6914,1064.4982,326.9989,1061.1735,322.1517,1055.3767,329.6914" style="stroke:#000000;stroke-width:1;"/><text fill="#000000" font-family="sans-serif" font-size="13" lengthAdjust="spacing" textLength="29.7832" x="1068.5" y="331.3638">uses</text><text fill="#000000" font-family="sans-serif" font-size="13" lengthAdjust="spacing" textLength="8.271" x="971.8203" y="372.2456">1</text></g><!--link FitnessAppSystem to WearableDevice--><g id="link_FitnessAppSystem_WearableDevice"><path codeLine="112" d="M936.28,543.3369 C942.47,553.0369 948.04,563.0969 952.5,573.2969 C992.63,665.0669 1001.747,777.0388 1003.487,845.2688 " fill="transparent" id="FitnessAppSystem-to-WearableDevice" style="stroke:#181818;stroke-width:1;"/><polygon fill="#181818" points="1003.64,851.2669,1007.4093,842.1678,1003.5125,846.2685,999.4119,842.3718,1003.64,851.2669" style="stroke:#181818;stroke-width:1;"/><polygon fill="#000000" points="1005.5864,706.2438,1006.4898,696.7763,1000.7524,698.0534,1005.5864,706.2438" style="stroke:#000000;stroke-width:1;"/><text fill="#000000" font-family="sans-serif" font-size="13" lengthAdjust="spacing" textLength="36.626" x="1013.5" y="705.8638">syncs</text><text fill="#000000" font-family="sans-serif" font-size="13" lengthAdjust="spacing" textLength="36.5625" x="965.4141" y="840.1264">many</text></g><!--link FitnessAppSystem to NutritionAPI--><g id="link_FitnessAppSystem_NutritionAPI"><path codeLine="113" d="M752.98,468.9469 C597.36,491.4869 318.21,541.9469 258.5,620.2969 C209.77,684.2369 235.5316,774.6847 263.5316,837.6347 " fill="transparent" id="FitnessAppSystem-to-NutritionAPI" style="stroke:#181818;stroke-width:1;"/><polygon fill="#181818" points="265.97,843.1169,265.9671,833.268,263.938,838.5484,258.6576,836.5193,265.97,843.1169" style="stroke:#181818;stroke-width:1;"/><polygon fill="#000000" points="259.5063,704.3716,268.4993,701.2769,264.9627,696.582,259.5063,704.3716" style="stroke:#000000;stroke-width:1;"/><text fill="#000000" font-family="sans-serif" font-size="13" lengthAdjust="spacing" textLength="58.5952" x="272.5" y="705.8638">connects</text><text fill="#000000" font-family="sans-serif" font-size="13" lengthAdjust="spacing" textLength="36.5625" x="224.3585" y="832.2699">many</text></g><!--link FitnessAppSystem to NotificationSystem--><g id="link_FitnessAppSystem_NotificationSystem"><path codeLine="114" d="M964.07,485.5969 C1034.48,507.0869 1128.46,538.2569 1208.5,573.2969 C1248.4,590.7669 1257.06,598.0269 1294.5,620.2969 C1311.56,630.4469 1324.6102,638.5465 1341.5502,649.4165 " fill="transparent" id="FitnessAppSystem-to-NotificationSystem" style="stroke:#181818;stroke-width:1;"/><polygon fill="#181818" points="1346.6,652.6569,1341.1855,644.4299,1342.3918,649.9566,1336.8651,651.1629,1346.6,652.6569" style="stroke:#181818;stroke-width:1;"/><polygon fill="#000000" points="1254.0867,583.8538,1246.9593,577.5569,1244.6193,582.9489,1254.0867,583.8538" style="stroke:#000000;stroke-width:1;"/><text fill="#000000" font-family="sans-serif" font-size="13" lengthAdjust="spacing" textLength="29.7832" x="1258.5" y="586.3638">uses</text></g><!--link FitnessAppSystem to CalendarService--><g id="link_FitnessAppSystem_CalendarService"><path codeLine="115" d="M752.73,463.0669 C584.26,477.1269 264.42,511.2669 170.5,573.2969 C138.96,594.1269 119.4566,626.251 106.2366,655.141 " fill="transparent" id="FitnessAppSystem-to-CalendarService" style="stroke:#181818;stroke-width:1;"/><polygon fill="#181818" points="103.74,660.5969,111.1222,654.0774,105.8205,656.0503,103.8476,650.7486,103.74,660.5969" style="stroke:#181818;stroke-width:1;"/><polygon fill="#000000" points="170.7071,583.2873,180.2146,583.5285,178.5406,577.894,170.7071,583.2873" style="stroke:#000000;stroke-width:1;"/><text fill="#000000" font-family="sans-serif" font-size="13" lengthAdjust="spacing" textLength="29.7832" x="184.5" y="586.3638">uses</text></g><!--link User to ISocialFeed--><g id="link_User_ISocialFeed"><path codeLine="116" d="M1376.18,236.3469 C1444.27,283.0469 1528.5722,340.8629 1594.9022,386.3629 " fill="transparent" id="User-to-ISocialFeed" style="stroke:#181818;stroke-width:1;"/><polygon fill="#181818" points="1599.85,389.7569,1594.691,381.3673,1595.7268,386.9285,1590.1656,387.9644,1599.85,389.7569" style="stroke:#181818;stroke-width:1;"/><polygon fill="#000000" points="1517.6233,329.6914,1511.8265,322.1517,1508.5018,326.9989,1517.6233,329.6914" style="stroke:#000000;stroke-width:1;"/><text fill="#000000" font-family="sans-serif" font-size="13" lengthAdjust="spacing" textLength="57.2749" x="1522.5" y="331.3638">interacts</text></g><!--link FitnessAppSystem to IProgressTracker--><g id="link_FitnessAppSystem_IProgressTracker"><path codeLine="117" d="M752.9,499.3269 C706.43,519.9769 651.78,546.0169 604.5,573.2969 C572.99,591.4769 566.76,598.6869 537.5,620.2969 C523.57,630.5869 513.5042,638.1936 499.5942,648.9636 " fill="transparent" id="FitnessAppSystem-to-IProgressTracker" style="stroke:#181818;stroke-width:1;"/><polygon fill="#181818" points="494.85,652.6369,504.4151,650.2898,498.8035,649.5758,499.5174,643.9642,494.85,652.6369" style="stroke:#181818;stroke-width:1;"/><polygon fill="#000000" points="605.195,584.4064,614.4776,582.3363,611.488,577.2755,605.195,584.4064" style="stroke:#000000;stroke-width:1;"/><text fill="#000000" font-family="sans-serif" font-size="13" lengthAdjust="spacing" textLength="122.3574" x="618.5" y="586.3638">gets progress data</text></g><!--link FitnessAppSystem to AnalyticsSystem--><g id="link_FitnessAppSystem_AnalyticsSystem"><path codeLine="118" d="M858.5,543.3969 C858.5,580.3069 858.5,615.7369 858.5,646.7569 " fill="transparent" id="FitnessAppSystem-to-AnalyticsSystem" style="stroke:#181818;stroke-width:1;"/><polygon fill="#181818" points="858.5,652.7569,862.5,643.7569,858.5,647.7569,854.5,643.7569,858.5,652.7569" style="stroke:#181818;stroke-width:1;"/><polygon fill="#000000" points="863.5,586.8633,866.4389,577.8182,860.5611,577.8182,863.5,586.8633" style="stroke:#000000;stroke-width:1;"/><text fill="#000000" font-family="sans-serif" font-size="13" lengthAdjust="spacing" textLength="71.4492" x="872.5" y="586.3638">sends data</text></g><!--link FitnessAppSystem to IActivityDataProvider--><g id="link_FitnessAppSystem_IActivityDataProvider"><path codeLine="119" d="M964.41,526.2869 C986.18,541.4669 1008.78,557.6469 1029.5,573.2969 C1070.98,604.6269 1112.1576,638.9402 1142.9276,665.2202 " fill="transparent" id="FitnessAppSystem-to-IActivityDataProvider" style="stroke:#181818;stroke-width:1;"/><polygon fill="#181818" points="1147.49,669.1169,1143.2441,660.2302,1143.688,665.8696,1138.0486,666.3135,1147.49,669.1169" style="stroke:#181818;stroke-width:1;"/><polygon fill="#000000" points="1060.4458,584.9342,1055.1128,577.0596,1051.5027,581.6982,1060.4458,584.9342" style="stroke:#000000;stroke-width:1;"/><text fill="#000000" font-family="sans-serif" font-size="13" lengthAdjust="spacing" textLength="134.8052" x="1065.5" y="586.3638">collects activity data</text></g><!--link FitnessAppSystem to IUserManagement--><g id="link_FitnessAppSystem_IUserManagement"><path codeLine="120" d="M784.06,543.3969 C750.22,583.4569 723.478,615.1083 696.758,646.7283 " fill="transparent" id="FitnessAppSystem-to-IUserManagement" style="stroke:#181818;stroke-width:1;stroke-dasharray:7.0,7.0;"/><polygon fill="transparent" points="685.14,660.4769,701.3408,650.601,692.1751,642.8557,685.14,660.4769" style="stroke:#181818;stroke-width:1;"/><polygon fill="#000000" points="757.2731,585.6826,765.3555,580.6701,760.8656,576.8767,757.2731,585.6826" style="stroke:#000000;stroke-width:1;"/><text fill="#000000" font-family="sans-serif" font-size="13" lengthAdjust="spacing" textLength="76.9082" x="769.5" y="586.3638">implements</text></g><!--SRC=[ZLNBRjim4BpxAuYS7BGEqAiF1em40N9e4C0jUYGOQYrjBP42ISSGslvxbnIfKBBb98V0VCm-XhCZXwu6TbyBQza3YjA8XgtO8pe5jBDjsyK2bGEp5nBOqxseGHN2xC2y8MtyMJ3w-s9b1SMn1dxIvg2FRdcx-3V2FMk7UvJ2eLOJh3GW77033Qe2347xa9JdVVDemNnbZIsdWRVIuHkwxa4uyMBq6zBj59cLuBY85tX1DqASQGY2bOQQ_M64FBoZz-1anQMejK6m4PcTj16MdzXEoKaY6PZzQOV0A-RFE1PnfKG3yQSeqwyJO5cvkAZoHQb5RTEjdctUraB5bYsr7Aui_V_RWGW5nhES8nBJhDRbGDFILvyEMcqTTvhl0Ogbr4IPSkdis1O-8B6mnnf2hFTsetn8FRlEEcX6hQVg2_0oI2jrT0QzFBXeSTZCP6DZOWCbKap3VQoSV1ROFw6h-0c44QzK5kL8frI_0kduAD70mHMvPLBnp_XTA7gdXgWOT7PU4aUrrnc_g9Qayu90I6yJoUgv-XLhVGXqC6pQEaItLyMTw7lNaUlQf9vN8rJnyGpq-PyJ7zkNfr7sotCn5coB_01TJ3K_CMn-PDZipFI4x41PRJwa9HLdmtK-aD4J47SlPPawMfxeijlv966TPxdiW97XtFpwUSYpp7lZYYL59l7Fc2Nxf5lkj2JzFT8u9-sAek1-p2DcFEI_DIekAr4J3INahrRZ0NfSy0WiuhxKZUzgTEIZXjraafKmK_30LLPXpj5PuQjWJiadXXeJJrVROlDziRd6s6SwOpEjBL9tMoNgpg6q4rlqmkHa4tRgrmPQRTpmp0LQSkwEqrUwhMoliV1fMQqsxERRpRdnhhtbMhPPd9q4I2DKTpEre7MOoOz08zzO9tkTHLqOWkkrJOTlk3qqdAjYpOBCnPKApWnjxRt1ikHAuHNcmDENMuUHkuwvxD-UAXAUBpJvycoKkxk_cxElpZgVZCr_]--></g></svg>