<svg xmlns="http://www.w3.org/2000/svg" xmlns:xlink="http://www.w3.org/1999/xlink" contentStyleType="text/css" data-diagram-type="CLASS" height="857px" preserveAspectRatio="none" style="width:1921px;height:857px;background:#FFFFFF;" version="1.1" viewBox="0 0 1921 857" width="1921px" zoomAndPan="magnify"><title>Facade &amp; Concrete Subsystems - Fitness App (Labeled)</title><defs/><g><text fill="#000000" font-family="sans-serif" font-size="14" font-weight="bold" lengthAdjust="spacing" textLength="437.1855" x="734.9272" y="22.9951">Facade &amp; Concrete Subsystems - Fitness App (Labeled)</text><!--cluster Facade Layer--><g id="cluster_Facade Layer"><path d="M1475.5,43.2969 L1581.541,43.2969 A3.75,3.75 0 0 1 1584.041,45.7969 L1591.041,65.5938 L1764.5,65.5938 A2.5,2.5 0 0 1 1767,68.0938 L1767,302.7969 A2.5,2.5 0 0 1 1764.5,305.2969 L1475.5,305.2969 A2.5,2.5 0 0 1 1473,302.7969 L1473,45.7969 A2.5,2.5 0 0 1 1475.5,43.2969 " fill="transparent" style="stroke:#000000;stroke-width:1.5;"/><line style="stroke:#000000;stroke-width:1.5;" x1="1473" x2="1591.041" y1="65.5938" y2="65.5938"/><text fill="#000000" font-family="sans-serif" font-size="14" font-weight="bold" lengthAdjust="spacing" textLength="105.041" x="1477" y="58.292">Facade Layer</text></g><!--cluster Concrete Subsystems--><g id="cluster_Concrete Subsystems"><path d="M8.5,354.2969 L180.0908,354.2969 A3.75,3.75 0 0 1 182.5908,356.7969 L189.5908,376.5938 L1664.5,376.5938 A2.5,2.5 0 0 1 1667,379.0938 L1667,847.7969 A2.5,2.5 0 0 1 1664.5,850.2969 L8.5,850.2969 A2.5,2.5 0 0 1 6,847.7969 L6,356.7969 A2.5,2.5 0 0 1 8.5,354.2969 " fill="transparent" style="stroke:#000000;stroke-width:1.5;"/><line style="stroke:#000000;stroke-width:1.5;" x1="6" x2="189.5908" y1="376.5938" y2="376.5938"/><text fill="#000000" font-family="sans-serif" font-size="14" font-weight="bold" lengthAdjust="spacing" textLength="170.5908" x="10" y="369.292">Concrete Subsystems</text></g><!--class FitnessAppFacade--><g id="elem_FitnessAppFacade"><rect codeLine="5" fill="#F1F1F1" height="210.9688" id="FitnessAppFacade" rx="2.5" ry="2.5" style="stroke:#181818;stroke-width:0.5;" width="261.498" x="1489.5" y="78.2969"/><ellipse cx="1552.3667" cy="94.2969" fill="#ADD1B2" rx="11" ry="11" style="stroke:#181818;stroke-width:1;"/><path d="M1555.3354,99.9375 Q1554.7573,100.2344 1554.1167,100.375 Q1553.4761,100.5313 1552.7729,100.5313 Q1550.2729,100.5313 1548.9448,98.8906 Q1547.6323,97.2344 1547.6323,94.1094 Q1547.6323,90.9844 1548.9448,89.3281 Q1550.2729,87.6719 1552.7729,87.6719 Q1553.4761,87.6719 1554.1167,87.8281 Q1554.7729,87.9844 1555.3354,88.2813 L1555.3354,91 Q1554.7104,90.4219 1554.1167,90.1563 Q1553.5229,89.875 1552.8979,89.875 Q1551.5542,89.875 1550.8667,90.9531 Q1550.1792,92.0156 1550.1792,94.1094 Q1550.1792,96.2031 1550.8667,97.2813 Q1551.5542,98.3438 1552.8979,98.3438 Q1553.5229,98.3438 1554.1167,98.0781 Q1554.7104,97.7969 1555.3354,97.2188 L1555.3354,99.9375 Z " fill="#000000"/><text fill="#000000" font-family="sans-serif" font-size="14" lengthAdjust="spacing" textLength="127.2646" x="1572.8667" y="99.1436">FitnessAppFacade</text><line style="stroke:#181818;stroke-width:0.5;" x1="1490.5" x2="1749.998" y1="110.2969" y2="110.2969"/><line style="stroke:#181818;stroke-width:0.5;" x1="1490.5" x2="1749.998" y1="118.2969" y2="118.2969"/><ellipse cx="1500.5" cy="131.9453" fill="#84BE84" rx="3" ry="3" style="stroke:#038048;stroke-width:1;"/><text fill="#000000" font-family="sans-serif" font-size="14" lengthAdjust="spacing" textLength="122.2539" x="1509.5" y="135.292">register(userInfo)</text><ellipse cx="1500.5" cy="148.2422" fill="#84BE84" rx="3" ry="3" style="stroke:#038048;stroke-width:1;"/><text fill="#000000" font-family="sans-serif" font-size="14" lengthAdjust="spacing" textLength="122.6094" x="1509.5" y="151.5889">login(credentials)</text><ellipse cx="1500.5" cy="164.5391" fill="#84BE84" rx="3" ry="3" style="stroke:#038048;stroke-width:1;"/><text fill="#000000" font-family="sans-serif" font-size="14" lengthAdjust="spacing" textLength="140.8545" x="1509.5" y="167.8857">setGoals(user, goal)</text><ellipse cx="1500.5" cy="180.8359" fill="#84BE84" rx="3" ry="3" style="stroke:#038048;stroke-width:1;"/><text fill="#000000" font-family="sans-serif" font-size="14" lengthAdjust="spacing" textLength="129.6914" x="1509.5" y="184.1826">trackActivity(user)</text><ellipse cx="1500.5" cy="197.1328" fill="#84BE84" rx="3" ry="3" style="stroke:#038048;stroke-width:1;"/><text fill="#000000" font-family="sans-serif" font-size="14" lengthAdjust="spacing" textLength="154.3691" x="1509.5" y="200.4795">getNutritionTips(user)</text><ellipse cx="1500.5" cy="213.4297" fill="#84BE84" rx="3" ry="3" style="stroke:#038048;stroke-width:1;"/><text fill="#000000" font-family="sans-serif" font-size="14" lengthAdjust="spacing" textLength="140.123" x="1509.5" y="216.7764">getSocialFeed(user)</text><ellipse cx="1500.5" cy="229.7266" fill="#84BE84" rx="3" ry="3" style="stroke:#038048;stroke-width:1;"/><text fill="#000000" font-family="sans-serif" font-size="14" lengthAdjust="spacing" textLength="140.3691" x="1509.5" y="233.0732">syncWearable(user)</text><ellipse cx="1500.5" cy="246.0234" fill="#84BE84" rx="3" ry="3" style="stroke:#038048;stroke-width:1;"/><text fill="#000000" font-family="sans-serif" font-size="14" lengthAdjust="spacing" textLength="235.498" x="1509.5" y="249.3701">scheduleWorkout(user, datetime)</text><ellipse cx="1500.5" cy="262.3203" fill="#84BE84" rx="3" ry="3" style="stroke:#038048;stroke-width:1;"/><text fill="#000000" font-family="sans-serif" font-size="14" lengthAdjust="spacing" textLength="194.1748" x="1509.5" y="265.667">sendNotification(user, msg)</text><ellipse cx="1500.5" cy="278.6172" fill="#84BE84" rx="3" ry="3" style="stroke:#038048;stroke-width:1;"/><text fill="#000000" font-family="sans-serif" font-size="14" lengthAdjust="spacing" textLength="151.9219" x="1509.5" y="281.9639">generateReport(user)</text></g><!--class IUserManagement--><g id="elem_IUserManagement"><rect codeLine="23" fill="#F1F1F1" height="96.8906" id="IUserManagement" rx="2.5" ry="2.5" style="stroke:#181818;stroke-width:0.5;" width="166.8545" x="1284.5" y="563.2969"/><ellipse cx="1302.4663" cy="579.2969" fill="#B4A7E5" rx="11" ry="11" style="stroke:#181818;stroke-width:1;"/><path d="M1298.3882,575.0625 L1298.3882,572.9063 L1305.7788,572.9063 L1305.7788,575.0625 L1303.3101,575.0625 L1303.3101,583.1406 L1305.7788,583.1406 L1305.7788,585.2969 L1298.3882,585.2969 L1298.3882,583.1406 L1300.8569,583.1406 L1300.8569,575.0625 L1298.3882,575.0625 Z " fill="#000000"/><text fill="#000000" font-family="sans-serif" font-size="14" font-style="italic" lengthAdjust="spacing" textLength="128.2627" x="1317.1255" y="584.1436">IUserManagement</text><line style="stroke:#181818;stroke-width:0.5;" x1="1285.5" x2="1450.3545" y1="595.2969" y2="595.2969"/><line style="stroke:#181818;stroke-width:0.5;" x1="1285.5" x2="1450.3545" y1="603.2969" y2="603.2969"/><ellipse cx="1295.5" cy="616.9453" fill="#84BE84" rx="3" ry="3" style="stroke:#038048;stroke-width:1;"/><text fill="#000000" font-family="sans-serif" font-size="14" lengthAdjust="spacing" textLength="122.2539" x="1304.5" y="620.292">register(userInfo)</text><ellipse cx="1295.5" cy="633.2422" fill="#84BE84" rx="3" ry="3" style="stroke:#038048;stroke-width:1;"/><text fill="#000000" font-family="sans-serif" font-size="14" lengthAdjust="spacing" textLength="122.6094" x="1304.5" y="636.5889">login(credentials)</text><ellipse cx="1295.5" cy="649.5391" fill="#84BE84" rx="3" ry="3" style="stroke:#038048;stroke-width:1;"/><text fill="#000000" font-family="sans-serif" font-size="14" lengthAdjust="spacing" textLength="140.8545" x="1304.5" y="652.8857">setGoals(user, goal)</text></g><!--class FitnessAppSystem--><g id="elem_FitnessAppSystem"><rect codeLine="28" fill="#F1F1F1" height="96.8906" id="FitnessAppSystem" rx="2.5" ry="2.5" style="stroke:#181818;stroke-width:0.5;" width="166.8545" x="847.5" y="389.2969"/><ellipse cx="865.1064" cy="405.2969" fill="#ADD1B2" rx="11" ry="11" style="stroke:#181818;stroke-width:1;"/><path d="M868.0751,410.9375 Q867.497,411.2344 866.8564,411.375 Q866.2158,411.5313 865.5126,411.5313 Q863.0126,411.5313 861.6845,409.8906 Q860.372,408.2344 860.372,405.1094 Q860.372,401.9844 861.6845,400.3281 Q863.0126,398.6719 865.5126,398.6719 Q866.2158,398.6719 866.8564,398.8281 Q867.5126,398.9844 868.0751,399.2813 L868.0751,402 Q867.4501,401.4219 866.8564,401.1563 Q866.2626,400.875 865.6376,400.875 Q864.2939,400.875 863.6064,401.9531 Q862.9189,403.0156 862.9189,405.1094 Q862.9189,407.2031 863.6064,408.2813 Q864.2939,409.3438 865.6376,409.3438 Q866.2626,409.3438 866.8564,409.0781 Q867.4501,408.7969 868.0751,408.2188 L868.0751,410.9375 Z " fill="#000000"/><text fill="#000000" font-family="sans-serif" font-size="14" lengthAdjust="spacing" textLength="129.0625" x="879.6856" y="410.1436">FitnessAppSystem</text><line style="stroke:#181818;stroke-width:0.5;" x1="848.5" x2="1013.3545" y1="421.2969" y2="421.2969"/><line style="stroke:#181818;stroke-width:0.5;" x1="848.5" x2="1013.3545" y1="429.2969" y2="429.2969"/><ellipse cx="858.5" cy="442.9453" fill="#84BE84" rx="3" ry="3" style="stroke:#038048;stroke-width:1;"/><text fill="#000000" font-family="sans-serif" font-size="14" lengthAdjust="spacing" textLength="122.2539" x="867.5" y="446.292">register(userInfo)</text><ellipse cx="858.5" cy="459.2422" fill="#84BE84" rx="3" ry="3" style="stroke:#038048;stroke-width:1;"/><text fill="#000000" font-family="sans-serif" font-size="14" lengthAdjust="spacing" textLength="122.6094" x="867.5" y="462.5889">login(credentials)</text><ellipse cx="858.5" cy="475.5391" fill="#84BE84" rx="3" ry="3" style="stroke:#038048;stroke-width:1;"/><text fill="#000000" font-family="sans-serif" font-size="14" lengthAdjust="spacing" textLength="140.8545" x="867.5" y="478.8857">setGoals(user, goal)</text></g><!--class IActivityDataProvider--><g id="elem_IActivityDataProvider"><rect codeLine="36" fill="#F1F1F1" height="64.2969" id="IActivityDataProvider" rx="2.5" ry="2.5" style="stroke:#181818;stroke-width:0.5;" width="180.3535" x="231" y="405.7969"/><ellipse cx="246" cy="421.7969" fill="#B4A7E5" rx="11" ry="11" style="stroke:#181818;stroke-width:1;"/><path d="M241.9219,417.5625 L241.9219,415.4063 L249.3125,415.4063 L249.3125,417.5625 L246.8438,417.5625 L246.8438,425.6406 L249.3125,425.6406 L249.3125,427.7969 L241.9219,427.7969 L241.9219,425.6406 L244.3906,425.6406 L244.3906,417.5625 L241.9219,417.5625 Z " fill="#000000"/><text fill="#000000" font-family="sans-serif" font-size="14" font-style="italic" lengthAdjust="spacing" textLength="148.3535" x="260" y="426.6436">IActivityDataProvider</text><line style="stroke:#181818;stroke-width:0.5;" x1="232" x2="410.3535" y1="437.7969" y2="437.7969"/><line style="stroke:#181818;stroke-width:0.5;" x1="232" x2="410.3535" y1="445.7969" y2="445.7969"/><ellipse cx="242" cy="459.4453" fill="#84BE84" rx="3" ry="3" style="stroke:#038048;stroke-width:1;"/><text fill="#000000" font-family="sans-serif" font-size="14" lengthAdjust="spacing" textLength="150.4795" x="251" y="462.792">getActivityData(user)</text></g><!--class WearableDevice--><g id="elem_WearableDevice"><rect codeLine="39" fill="#F1F1F1" height="64.2969" id="WearableDevice" rx="2.5" ry="2.5" style="stroke:#181818;stroke-width:0.5;" width="176.4795" x="22" y="579.7969"/><ellipse cx="50.4284" cy="595.7969" fill="#ADD1B2" rx="11" ry="11" style="stroke:#181818;stroke-width:1;"/><path d="M53.3971,601.4375 Q52.819,601.7344 52.1784,601.875 Q51.5377,602.0313 50.8346,602.0313 Q48.3346,602.0313 47.0065,600.3906 Q45.694,598.7344 45.694,595.6094 Q45.694,592.4844 47.0065,590.8281 Q48.3346,589.1719 50.8346,589.1719 Q51.5377,589.1719 52.1784,589.3281 Q52.8346,589.4844 53.3971,589.7813 L53.3971,592.5 Q52.7721,591.9219 52.1784,591.6563 Q51.5846,591.375 50.9596,591.375 Q49.6159,591.375 48.9284,592.4531 Q48.2409,593.5156 48.2409,595.6094 Q48.2409,597.7031 48.9284,598.7813 Q49.6159,599.8438 50.9596,599.8438 Q51.5846,599.8438 52.1784,599.5781 Q52.7721,599.2969 53.3971,598.7188 L53.3971,601.4375 Z " fill="#000000"/><text fill="#000000" font-family="sans-serif" font-size="14" lengthAdjust="spacing" textLength="114.6387" x="67.4125" y="600.6436">WearableDevice</text><line style="stroke:#181818;stroke-width:0.5;" x1="23" x2="197.4795" y1="611.7969" y2="611.7969"/><line style="stroke:#181818;stroke-width:0.5;" x1="23" x2="197.4795" y1="619.7969" y2="619.7969"/><ellipse cx="33" cy="633.4453" fill="#84BE84" rx="3" ry="3" style="stroke:#038048;stroke-width:1;"/><text fill="#000000" font-family="sans-serif" font-size="14" lengthAdjust="spacing" textLength="150.4795" x="42" y="636.792">getActivityData(user)</text></g><!--class DeviceSensor--><g id="elem_DeviceSensor"><rect codeLine="42" fill="#F1F1F1" height="64.2969" id="DeviceSensor" rx="2.5" ry="2.5" style="stroke:#181818;stroke-width:0.5;" width="176.4795" x="233" y="579.7969"/><ellipse cx="269.8755" cy="595.7969" fill="#ADD1B2" rx="11" ry="11" style="stroke:#181818;stroke-width:1;"/><path d="M272.8443,601.4375 Q272.2662,601.7344 271.6255,601.875 Q270.9849,602.0313 270.2818,602.0313 Q267.7818,602.0313 266.4537,600.3906 Q265.1412,598.7344 265.1412,595.6094 Q265.1412,592.4844 266.4537,590.8281 Q267.7818,589.1719 270.2818,589.1719 Q270.9849,589.1719 271.6255,589.3281 Q272.2818,589.4844 272.8443,589.7813 L272.8443,592.5 Q272.2193,591.9219 271.6255,591.6563 Q271.0318,591.375 270.4068,591.375 Q269.063,591.375 268.3755,592.4531 Q267.688,593.5156 267.688,595.6094 Q267.688,597.7031 268.3755,598.7813 Q269.063,599.8438 270.4068,599.8438 Q271.0318,599.8438 271.6255,599.5781 Q272.2193,599.2969 272.8443,598.7188 L272.8443,601.4375 Z " fill="#000000"/><text fill="#000000" font-family="sans-serif" font-size="14" lengthAdjust="spacing" textLength="95.8672" x="288.7368" y="600.6436">DeviceSensor</text><line style="stroke:#181818;stroke-width:0.5;" x1="234" x2="408.4795" y1="611.7969" y2="611.7969"/><line style="stroke:#181818;stroke-width:0.5;" x1="234" x2="408.4795" y1="619.7969" y2="619.7969"/><ellipse cx="244" cy="633.4453" fill="#84BE84" rx="3" ry="3" style="stroke:#038048;stroke-width:1;"/><text fill="#000000" font-family="sans-serif" font-size="14" lengthAdjust="spacing" textLength="150.4795" x="253" y="636.792">getActivityData(user)</text></g><!--class IProgressTracker--><g id="elem_IProgressTracker"><rect codeLine="51" fill="#F1F1F1" height="96.8906" id="IProgressTracker" rx="2.5" ry="2.5" style="stroke:#181818;stroke-width:0.5;" width="163.6689" x="1487" y="563.2969"/><ellipse cx="1508.2424" cy="579.2969" fill="#B4A7E5" rx="11" ry="11" style="stroke:#181818;stroke-width:1;"/><path d="M1504.1643,575.0625 L1504.1643,572.9063 L1511.5549,572.9063 L1511.5549,575.0625 L1509.0862,575.0625 L1509.0862,583.1406 L1511.5549,583.1406 L1511.5549,585.2969 L1504.1643,585.2969 L1504.1643,583.1406 L1506.6331,583.1406 L1506.6331,575.0625 L1504.1643,575.0625 Z " fill="#000000"/><text fill="#000000" font-family="sans-serif" font-size="14" font-style="italic" lengthAdjust="spacing" textLength="117.7969" x="1523.6296" y="584.1436">IProgressTracker</text><line style="stroke:#181818;stroke-width:0.5;" x1="1488" x2="1649.6689" y1="595.2969" y2="595.2969"/><line style="stroke:#181818;stroke-width:0.5;" x1="1488" x2="1649.6689" y1="603.2969" y2="603.2969"/><ellipse cx="1498" cy="616.9453" fill="#84BE84" rx="3" ry="3" style="stroke:#038048;stroke-width:1;"/><text fill="#000000" font-family="sans-serif" font-size="14" lengthAdjust="spacing" textLength="133.4238" x="1507" y="620.292">fetchCalories(user)</text><ellipse cx="1498" cy="633.2422" fill="#84BE84" rx="3" ry="3" style="stroke:#038048;stroke-width:1;"/><text fill="#000000" font-family="sans-serif" font-size="14" lengthAdjust="spacing" textLength="137.6689" x="1507" y="636.5889">fetchProgress(user)</text><ellipse cx="1498" cy="649.5391" fill="#84BE84" rx="3" ry="3" style="stroke:#038048;stroke-width:1;"/><text fill="#000000" font-family="sans-serif" font-size="14" lengthAdjust="spacing" textLength="107.0371" x="1507" y="652.8857">syncData(user)</text></g><!--class NutritionAPI--><g id="elem_NutritionAPI"><rect codeLine="56" fill="#F1F1F1" height="96.8906" id="NutritionAPI" rx="2.5" ry="2.5" style="stroke:#181818;stroke-width:0.5;" width="163.6689" x="1285" y="389.2969"/><ellipse cx="1321.7002" cy="405.2969" fill="#ADD1B2" rx="11" ry="11" style="stroke:#181818;stroke-width:1;"/><path d="M1324.6689,410.9375 Q1324.0908,411.2344 1323.4502,411.375 Q1322.8096,411.5313 1322.1064,411.5313 Q1319.6064,411.5313 1318.2783,409.8906 Q1316.9658,408.2344 1316.9658,405.1094 Q1316.9658,401.9844 1318.2783,400.3281 Q1319.6064,398.6719 1322.1064,398.6719 Q1322.8096,398.6719 1323.4502,398.8281 Q1324.1064,398.9844 1324.6689,399.2813 L1324.6689,402 Q1324.0439,401.4219 1323.4502,401.1563 Q1322.8564,400.875 1322.2314,400.875 Q1320.8877,400.875 1320.2002,401.9531 Q1319.5127,403.0156 1319.5127,405.1094 Q1319.5127,407.2031 1320.2002,408.2813 Q1320.8877,409.3438 1322.2314,409.3438 Q1322.8564,409.3438 1323.4502,409.0781 Q1324.0439,408.7969 1324.6689,408.2188 L1324.6689,410.9375 Z " fill="#000000"/><text fill="#000000" font-family="sans-serif" font-size="14" lengthAdjust="spacing" textLength="83.4463" x="1340.5225" y="410.1436">NutritionAPI</text><line style="stroke:#181818;stroke-width:0.5;" x1="1286" x2="1447.6689" y1="421.2969" y2="421.2969"/><line style="stroke:#181818;stroke-width:0.5;" x1="1286" x2="1447.6689" y1="429.2969" y2="429.2969"/><ellipse cx="1296" cy="442.9453" fill="#84BE84" rx="3" ry="3" style="stroke:#038048;stroke-width:1;"/><text fill="#000000" font-family="sans-serif" font-size="14" lengthAdjust="spacing" textLength="133.4238" x="1305" y="446.292">fetchCalories(user)</text><ellipse cx="1296" cy="459.2422" fill="#84BE84" rx="3" ry="3" style="stroke:#038048;stroke-width:1;"/><text fill="#000000" font-family="sans-serif" font-size="14" lengthAdjust="spacing" textLength="137.6689" x="1305" y="462.5889">fetchProgress(user)</text><ellipse cx="1296" cy="475.5391" fill="#84BE84" rx="3" ry="3" style="stroke:#038048;stroke-width:1;"/><text fill="#000000" font-family="sans-serif" font-size="14" lengthAdjust="spacing" textLength="107.0371" x="1305" y="478.8857">syncData(user)</text></g><!--class ISocialFeed--><g id="elem_ISocialFeed"><rect codeLine="64" fill="#F1F1F1" height="96.8906" id="ISocialFeed" rx="2.5" ry="2.5" style="stroke:#181818;stroke-width:0.5;" width="252.502" x="519.5" y="737.2969"/><ellipse cx="601.5996" cy="753.2969" fill="#B4A7E5" rx="11" ry="11" style="stroke:#181818;stroke-width:1;"/><path d="M597.5215,749.0625 L597.5215,746.9063 L604.9121,746.9063 L604.9121,749.0625 L602.4434,749.0625 L602.4434,757.1406 L604.9121,757.1406 L604.9121,759.2969 L597.5215,759.2969 L597.5215,757.1406 L599.9902,757.1406 L599.9902,749.0625 L597.5215,749.0625 Z " fill="#000000"/><text fill="#000000" font-family="sans-serif" font-size="14" font-style="italic" lengthAdjust="spacing" textLength="79.8027" x="622.0996" y="758.1436">ISocialFeed</text><line style="stroke:#181818;stroke-width:0.5;" x1="520.5" x2="771.002" y1="769.2969" y2="769.2969"/><line style="stroke:#181818;stroke-width:0.5;" x1="520.5" x2="771.002" y1="777.2969" y2="777.2969"/><ellipse cx="530.5" cy="790.9453" fill="#84BE84" rx="3" ry="3" style="stroke:#038048;stroke-width:1;"/><text fill="#000000" font-family="sans-serif" font-size="14" lengthAdjust="spacing" textLength="101.5342" x="539.5" y="794.292">getPosts(user)</text><ellipse cx="530.5" cy="807.2422" fill="#84BE84" rx="3" ry="3" style="stroke:#038048;stroke-width:1;"/><text fill="#000000" font-family="sans-serif" font-size="14" lengthAdjust="spacing" textLength="160.1045" x="539.5" y="810.5889">addPost(user, content)</text><ellipse cx="530.5" cy="823.5391" fill="#84BE84" rx="3" ry="3" style="stroke:#038048;stroke-width:1;"/><text fill="#000000" font-family="sans-serif" font-size="14" lengthAdjust="spacing" textLength="226.502" x="539.5" y="826.8857">joinChallenge(user, challengeId)</text></g><!--class SocialFeed--><g id="elem_SocialFeed"><rect codeLine="69" fill="#F1F1F1" height="96.8906" id="SocialFeed" rx="2.5" ry="2.5" style="stroke:#181818;stroke-width:0.5;" width="252.502" x="444.5" y="563.2969"/><ellipse cx="528.6641" cy="579.2969" fill="#ADD1B2" rx="11" ry="11" style="stroke:#181818;stroke-width:1;"/><path d="M531.6328,584.9375 Q531.0547,585.2344 530.4141,585.375 Q529.7734,585.5313 529.0703,585.5313 Q526.5703,585.5313 525.2422,583.8906 Q523.9297,582.2344 523.9297,579.1094 Q523.9297,575.9844 525.2422,574.3281 Q526.5703,572.6719 529.0703,572.6719 Q529.7734,572.6719 530.4141,572.8281 Q531.0703,572.9844 531.6328,573.2813 L531.6328,576 Q531.0078,575.4219 530.4141,575.1563 Q529.8203,574.875 529.1953,574.875 Q527.8516,574.875 527.1641,575.9531 Q526.4766,577.0156 526.4766,579.1094 Q526.4766,581.2031 527.1641,582.2813 Q527.8516,583.3438 529.1953,583.3438 Q529.8203,583.3438 530.4141,583.0781 Q531.0078,582.7969 531.6328,582.2188 L531.6328,584.9375 Z " fill="#000000"/><text fill="#000000" font-family="sans-serif" font-size="14" lengthAdjust="spacing" textLength="75.6738" x="549.1641" y="584.1436">SocialFeed</text><line style="stroke:#181818;stroke-width:0.5;" x1="445.5" x2="696.002" y1="595.2969" y2="595.2969"/><line style="stroke:#181818;stroke-width:0.5;" x1="445.5" x2="696.002" y1="603.2969" y2="603.2969"/><ellipse cx="455.5" cy="616.9453" fill="#84BE84" rx="3" ry="3" style="stroke:#038048;stroke-width:1;"/><text fill="#000000" font-family="sans-serif" font-size="14" lengthAdjust="spacing" textLength="101.5342" x="464.5" y="620.292">getPosts(user)</text><ellipse cx="455.5" cy="633.2422" fill="#84BE84" rx="3" ry="3" style="stroke:#038048;stroke-width:1;"/><text fill="#000000" font-family="sans-serif" font-size="14" lengthAdjust="spacing" textLength="160.1045" x="464.5" y="636.5889">addPost(user, content)</text><ellipse cx="455.5" cy="649.5391" fill="#84BE84" rx="3" ry="3" style="stroke:#038048;stroke-width:1;"/><text fill="#000000" font-family="sans-serif" font-size="14" lengthAdjust="spacing" textLength="226.502" x="464.5" y="652.8857">joinChallenge(user, challengeId)</text></g><!--class ICalendarService--><g id="elem_ICalendarService"><rect codeLine="77" fill="#F1F1F1" height="64.2969" id="ICalendarService" rx="2.5" ry="2.5" style="stroke:#181818;stroke-width:0.5;" width="261.498" x="833.5" y="753.7969"/><ellipse cx="900.5879" cy="769.7969" fill="#B4A7E5" rx="11" ry="11" style="stroke:#181818;stroke-width:1;"/><path d="M896.5098,765.5625 L896.5098,763.4063 L903.9004,763.4063 L903.9004,765.5625 L901.4316,765.5625 L901.4316,773.6406 L903.9004,773.6406 L903.9004,775.7969 L896.5098,775.7969 L896.5098,773.6406 L898.9785,773.6406 L898.9785,765.5625 L896.5098,765.5625 Z " fill="#000000"/><text fill="#000000" font-family="sans-serif" font-size="14" font-style="italic" lengthAdjust="spacing" textLength="118.8223" x="921.0879" y="774.6436">ICalendarService</text><line style="stroke:#181818;stroke-width:0.5;" x1="834.5" x2="1093.998" y1="785.7969" y2="785.7969"/><line style="stroke:#181818;stroke-width:0.5;" x1="834.5" x2="1093.998" y1="793.7969" y2="793.7969"/><ellipse cx="844.5" cy="807.4453" fill="#84BE84" rx="3" ry="3" style="stroke:#038048;stroke-width:1;"/><text fill="#000000" font-family="sans-serif" font-size="14" lengthAdjust="spacing" textLength="235.498" x="853.5" y="810.792">scheduleWorkout(user, datetime)</text></g><!--class CalendarService--><g id="elem_CalendarService"><rect codeLine="80" fill="#F1F1F1" height="64.2969" id="CalendarService" rx="2.5" ry="2.5" style="stroke:#181818;stroke-width:0.5;" width="261.498" x="732.5" y="579.7969"/><ellipse cx="801.6523" cy="595.7969" fill="#ADD1B2" rx="11" ry="11" style="stroke:#181818;stroke-width:1;"/><path d="M804.6211,601.4375 Q804.043,601.7344 803.4023,601.875 Q802.7617,602.0313 802.0586,602.0313 Q799.5586,602.0313 798.2305,600.3906 Q796.918,598.7344 796.918,595.6094 Q796.918,592.4844 798.2305,590.8281 Q799.5586,589.1719 802.0586,589.1719 Q802.7617,589.1719 803.4023,589.3281 Q804.0586,589.4844 804.6211,589.7813 L804.6211,592.5 Q803.9961,591.9219 803.4023,591.6563 Q802.8086,591.375 802.1836,591.375 Q800.8398,591.375 800.1523,592.4531 Q799.4648,593.5156 799.4648,595.6094 Q799.4648,597.7031 800.1523,598.7813 Q800.8398,599.8438 802.1836,599.8438 Q802.8086,599.8438 803.4023,599.5781 Q803.9961,599.2969 804.6211,598.7188 L804.6211,601.4375 Z " fill="#000000"/><text fill="#000000" font-family="sans-serif" font-size="14" lengthAdjust="spacing" textLength="114.6934" x="822.1523" y="600.6436">CalendarService</text><line style="stroke:#181818;stroke-width:0.5;" x1="733.5" x2="992.998" y1="611.7969" y2="611.7969"/><line style="stroke:#181818;stroke-width:0.5;" x1="733.5" x2="992.998" y1="619.7969" y2="619.7969"/><ellipse cx="743.5" cy="633.4453" fill="#84BE84" rx="3" ry="3" style="stroke:#038048;stroke-width:1;"/><text fill="#000000" font-family="sans-serif" font-size="14" lengthAdjust="spacing" textLength="235.498" x="752.5" y="636.792">scheduleWorkout(user, datetime)</text></g><!--class INotificationService--><g id="elem_INotificationService"><rect codeLine="86" fill="#F1F1F1" height="80.5938" id="INotificationService" rx="2.5" ry="2.5" style="stroke:#181818;stroke-width:0.5;" width="220.1748" x="1230" y="745.2969"/><ellipse cx="1268.389" cy="761.2969" fill="#B4A7E5" rx="11" ry="11" style="stroke:#181818;stroke-width:1;"/><path d="M1264.3109,757.0625 L1264.3109,754.9063 L1271.7015,754.9063 L1271.7015,757.0625 L1269.2328,757.0625 L1269.2328,765.1406 L1271.7015,765.1406 L1271.7015,767.2969 L1264.3109,767.2969 L1264.3109,765.1406 L1266.7796,765.1406 L1266.7796,757.0625 L1264.3109,757.0625 Z " fill="#000000"/><text fill="#000000" font-family="sans-serif" font-size="14" font-style="italic" lengthAdjust="spacing" textLength="136.1992" x="1287.5866" y="766.1436">INotificationService</text><line style="stroke:#181818;stroke-width:0.5;" x1="1231" x2="1449.1748" y1="777.2969" y2="777.2969"/><line style="stroke:#181818;stroke-width:0.5;" x1="1231" x2="1449.1748" y1="785.2969" y2="785.2969"/><ellipse cx="1241" cy="798.9453" fill="#84BE84" rx="3" ry="3" style="stroke:#038048;stroke-width:1;"/><text fill="#000000" font-family="sans-serif" font-size="14" lengthAdjust="spacing" textLength="192.9238" x="1250" y="802.292">createReminder(user, msg)</text><ellipse cx="1241" cy="815.2422" fill="#84BE84" rx="3" ry="3" style="stroke:#038048;stroke-width:1;"/><text fill="#000000" font-family="sans-serif" font-size="14" lengthAdjust="spacing" textLength="194.1748" x="1250" y="818.5889">sendNotification(user, msg)</text></g><!--class NotificationSystem--><g id="elem_NotificationSystem"><rect codeLine="90" fill="#F1F1F1" height="80.5938" id="NotificationSystem" rx="2.5" ry="2.5" style="stroke:#181818;stroke-width:0.5;" width="220.1748" x="1029" y="571.2969"/><ellipse cx="1069.0378" cy="587.2969" fill="#ADD1B2" rx="11" ry="11" style="stroke:#181818;stroke-width:1;"/><path d="M1072.0066,592.9375 Q1071.4285,593.2344 1070.7878,593.375 Q1070.1472,593.5313 1069.4441,593.5313 Q1066.9441,593.5313 1065.616,591.8906 Q1064.3035,590.2344 1064.3035,587.1094 Q1064.3035,583.9844 1065.616,582.3281 Q1066.9441,580.6719 1069.4441,580.6719 Q1070.1472,580.6719 1070.7878,580.8281 Q1071.4441,580.9844 1072.0066,581.2813 L1072.0066,584 Q1071.3816,583.4219 1070.7878,583.1563 Q1070.1941,582.875 1069.5691,582.875 Q1068.2253,582.875 1067.5378,583.9531 Q1066.8503,585.0156 1066.8503,587.1094 Q1066.8503,589.2031 1067.5378,590.2813 Q1068.2253,591.3438 1069.5691,591.3438 Q1070.1941,591.3438 1070.7878,591.0781 Q1071.3816,590.7969 1072.0066,590.2188 L1072.0066,592.9375 Z " fill="#000000"/><text fill="#000000" font-family="sans-serif" font-size="14" lengthAdjust="spacing" textLength="132.5352" x="1088.6018" y="592.1436">NotificationSystem</text><line style="stroke:#181818;stroke-width:0.5;" x1="1030" x2="1248.1748" y1="603.2969" y2="603.2969"/><line style="stroke:#181818;stroke-width:0.5;" x1="1030" x2="1248.1748" y1="611.2969" y2="611.2969"/><ellipse cx="1040" cy="624.9453" fill="#84BE84" rx="3" ry="3" style="stroke:#038048;stroke-width:1;"/><text fill="#000000" font-family="sans-serif" font-size="14" lengthAdjust="spacing" textLength="192.9238" x="1049" y="628.292">createReminder(user, msg)</text><ellipse cx="1040" cy="641.2422" fill="#84BE84" rx="3" ry="3" style="stroke:#038048;stroke-width:1;"/><text fill="#000000" font-family="sans-serif" font-size="14" lengthAdjust="spacing" textLength="194.1748" x="1049" y="644.5889">sendNotification(user, msg)</text></g><!--class AnalyticsSystem--><g id="elem_AnalyticsSystem"><rect codeLine="97" fill="#F1F1F1" height="80.5938" id="AnalyticsSystem" rx="2.5" ry="2.5" style="stroke:#181818;stroke-width:0.5;" width="177.9219" x="1072" y="397.2969"/><ellipse cx="1100.5637" cy="413.2969" fill="#ADD1B2" rx="11" ry="11" style="stroke:#181818;stroke-width:1;"/><path d="M1103.5325,418.9375 Q1102.9543,419.2344 1102.3137,419.375 Q1101.6731,419.5313 1100.97,419.5313 Q1098.47,419.5313 1097.1418,417.8906 Q1095.8293,416.2344 1095.8293,413.1094 Q1095.8293,409.9844 1097.1418,408.3281 Q1098.47,406.6719 1100.97,406.6719 Q1101.6731,406.6719 1102.3137,406.8281 Q1102.97,406.9844 1103.5325,407.2813 L1103.5325,410 Q1102.9075,409.4219 1102.3137,409.1563 Q1101.72,408.875 1101.095,408.875 Q1099.7512,408.875 1099.0637,409.9531 Q1098.3762,411.0156 1098.3762,413.1094 Q1098.3762,415.2031 1099.0637,416.2813 Q1099.7512,417.3438 1101.095,417.3438 Q1101.72,417.3438 1102.3137,417.0781 Q1102.9075,416.7969 1103.5325,416.2188 L1103.5325,418.9375 Z " fill="#000000"/><text fill="#000000" font-family="sans-serif" font-size="14" lengthAdjust="spacing" textLength="115.7803" x="1117.5779" y="418.1436">AnalyticsSystem</text><line style="stroke:#181818;stroke-width:0.5;" x1="1073" x2="1248.9219" y1="429.2969" y2="429.2969"/><line style="stroke:#181818;stroke-width:0.5;" x1="1073" x2="1248.9219" y1="437.2969" y2="437.2969"/><ellipse cx="1083" cy="450.9453" fill="#84BE84" rx="3" ry="3" style="stroke:#038048;stroke-width:1;"/><text fill="#000000" font-family="sans-serif" font-size="14" lengthAdjust="spacing" textLength="151.9219" x="1092" y="454.292">generateReport(user)</text><ellipse cx="1083" cy="467.2422" fill="#84BE84" rx="3" ry="3" style="stroke:#038048;stroke-width:1;"/><text fill="#000000" font-family="sans-serif" font-size="14" lengthAdjust="spacing" textLength="141.4082" x="1092" y="470.5889">displayGraphs(user)</text></g><!--link FitnessAppSystem to IUserManagement--><g id="link_FitnessAppSystem_IUserManagement"><path codeLine="33" d="M1014.63,471.0669 C1028.12,476.1969 1041.93,481.4169 1055,486.2969 C1148.92,521.3369 1174.44,524.8169 1267,563.2969 C1272.73,565.6769 1262.133,560.9379 1268.023,563.5379 " fill="transparent" id="FitnessAppSystem-to-IUserManagement" style="stroke:#181818;stroke-width:1;stroke-dasharray:7.0,7.0;"/><polygon fill="transparent" points="1284.49,570.8069,1270.446,558.0489,1265.6,569.0269,1284.49,570.8069" style="stroke:#181818;stroke-width:1;"/><text fill="#000000" font-family="sans-serif" font-size="13" lengthAdjust="spacing" textLength="76.9082" x="1187" y="529.3638">implements</text></g><!--link WearableDevice to IActivityDataProvider--><g id="link_WearableDevice_IActivityDataProvider"><path codeLine="45" d="M148.28,579.5869 C186.43,548.4969 230.7174,512.389 268.8374,481.319 " fill="transparent" id="WearableDevice-to-IActivityDataProvider" style="stroke:#181818;stroke-width:1;stroke-dasharray:7.0,7.0;"/><polygon fill="transparent" points="282.79,469.9469,265.0467,476.6682,272.6281,485.9699,282.79,469.9469" style="stroke:#181818;stroke-width:1;"/><text fill="#000000" font-family="sans-serif" font-size="13" lengthAdjust="spacing" textLength="76.9082" x="223" y="529.3638">implements</text></g><!--reverse link IActivityDataProvider to WearableDevice--><g id="link_IActivityDataProvider_WearableDevice"><path codeLine="47" d="M213.9751,469.8004 C183.8251,481.6904 168.87,492.1869 146,516.2969 C129.57,533.6169 120.44,559.2069 115.48,579.3869 " fill="transparent" id="IActivityDataProvider-backto-WearableDevice" style="stroke:#181818;stroke-width:1;"/><polygon fill="transparent" points="230.72,463.1969,211.7739,464.2188,216.1762,475.3821,230.72,463.1969" style="stroke:#181818;stroke-width:1;"/><text fill="#000000" font-family="sans-serif" font-size="13" lengthAdjust="spacing" textLength="54.2217" x="147" y="529.3638">strategy</text></g><!--link DeviceSensor to IActivityDataProvider--><g id="link_DeviceSensor_IActivityDataProvider"><path codeLine="46" d="M356.37,579.7669 C372.05,562.1169 385.47,539.0569 378,516.2969 C372.48,499.4769 373.0859,497.287 362.4159,484.107 " fill="transparent" id="DeviceSensor-to-IActivityDataProvider" style="stroke:#181818;stroke-width:1;stroke-dasharray:7.0,7.0;"/><polygon fill="transparent" points="351.09,470.1169,357.7525,487.8823,367.0793,480.3317,351.09,470.1169" style="stroke:#181818;stroke-width:1;"/><text fill="#000000" font-family="sans-serif" font-size="13" lengthAdjust="spacing" textLength="76.9082" x="382" y="529.3638">implements</text></g><!--reverse link IActivityDataProvider to DeviceSensor--><g id="link_IActivityDataProvider_DeviceSensor"><path codeLine="48" d="M315.7528,487.9589 C314.3528,502.0689 314.69,501.0469 314,516.2969 C313.04,537.4969 314.83,561.3269 316.84,579.7569 " fill="transparent" id="IActivityDataProvider-backto-DeviceSensor" style="stroke:#181818;stroke-width:1;"/><polygon fill="transparent" points="317.53,470.0469,309.7821,487.3665,321.7234,488.5513,317.53,470.0469" style="stroke:#181818;stroke-width:1;"/><text fill="#000000" font-family="sans-serif" font-size="13" lengthAdjust="spacing" textLength="54.2217" x="315" y="529.3638">strategy</text></g><!--link NutritionAPI to IProgressTracker--><g id="link_NutritionAPI_IProgressTracker"><path codeLine="61" d="M1423,486.4769 C1451.02,510.3369 1471.1438,527.479 1499.1838,551.349 " fill="transparent" id="NutritionAPI-to-IProgressTracker" style="stroke:#181818;stroke-width:1;stroke-dasharray:7.0,7.0;"/><polygon fill="transparent" points="1512.89,563.0169,1503.0731,546.7803,1495.2945,555.9177,1512.89,563.0169" style="stroke:#181818;stroke-width:1;"/><text fill="#000000" font-family="sans-serif" font-size="13" lengthAdjust="spacing" textLength="76.9082" x="1475" y="529.3638">implements</text></g><!--link SocialFeed to ISocialFeed--><g id="link_SocialFeed_ISocialFeed"><path codeLine="74" d="M591.89,660.7069 C602.29,684.5669 607.636,696.817 618.026,720.647 " fill="transparent" id="SocialFeed-to-ISocialFeed" style="stroke:#181818;stroke-width:1;stroke-dasharray:7.0,7.0;"/><polygon fill="transparent" points="625.22,737.1469,623.5259,718.249,612.526,723.045,625.22,737.1469" style="stroke:#181818;stroke-width:1;"/><text fill="#000000" font-family="sans-serif" font-size="13" lengthAdjust="spacing" textLength="76.9082" x="611" y="703.3638">implements</text></g><!--link CalendarService to ICalendarService--><g id="link_CalendarService_ICalendarService"><path codeLine="83" d="M881.29,643.9469 C899.54,675.0169 918.3041,706.9759 936.5641,738.0659 " fill="transparent" id="CalendarService-to-ICalendarService" style="stroke:#181818;stroke-width:1;stroke-dasharray:7.0,7.0;"/><polygon fill="transparent" points="945.68,753.5869,941.7378,735.0273,931.3905,741.1045,945.68,753.5869" style="stroke:#181818;stroke-width:1;"/><text fill="#000000" font-family="sans-serif" font-size="13" lengthAdjust="spacing" textLength="76.9082" x="917" y="703.3638">implements</text></g><!--link NotificationSystem to INotificationService--><g id="link_NotificationSystem_INotificationService"><path codeLine="94" d="M1185.37,652.4769 C1217.83,680.2569 1247.3533,705.5244 1279.8433,733.3244 " fill="transparent" id="NotificationSystem-to-INotificationService" style="stroke:#181818;stroke-width:1;stroke-dasharray:7.0,7.0;"/><polygon fill="transparent" points="1293.52,745.0269,1283.7441,728.7655,1275.9425,737.8833,1293.52,745.0269" style="stroke:#181818;stroke-width:1;"/><text fill="#000000" font-family="sans-serif" font-size="13" lengthAdjust="spacing" textLength="76.9082" x="1246" y="703.3638">implements</text></g><!--link FitnessAppSystem to NotificationSystem--><g id="link_FitnessAppSystem_NotificationSystem"><path codeLine="103" d="M988.66,486.4769 C1020.88,513.1269 1055.9354,542.1141 1086.4454,567.3341 " fill="transparent" id="FitnessAppSystem-to-NotificationSystem" style="stroke:#181818;stroke-width:1;stroke-dasharray:7.0,7.0;"/><polygon fill="#181818" points="1091.07,571.1569,1086.6816,562.3397,1087.2162,567.9713,1081.5846,568.5058,1091.07,571.1569" style="stroke:#181818;stroke-width:1;"/><text fill="#000000" font-family="sans-serif" font-size="13" lengthAdjust="spacing" textLength="29.7832" x="1042" y="529.3638">uses</text></g><!--link FitnessAppSystem to CalendarService--><g id="link_FitnessAppSystem_CalendarService"><path codeLine="104" d="M912.06,486.7069 C900.31,516.4269 887.7553,548.1769 877.5153,574.0869 " fill="transparent" id="FitnessAppSystem-to-CalendarService" style="stroke:#181818;stroke-width:1;stroke-dasharray:7.0,7.0;"/><polygon fill="#181818" points="875.31,579.6669,882.338,572.767,877.1478,575.0169,874.8979,569.8266,875.31,579.6669" style="stroke:#181818;stroke-width:1;"/><text fill="#000000" font-family="sans-serif" font-size="13" lengthAdjust="spacing" textLength="29.7832" x="900" y="529.3638">uses</text></g><!--link FitnessAppSystem to SocialFeed--><g id="link_FitnessAppSystem_SocialFeed"><path codeLine="105" d="M847.05,478.9069 C794.28,504.1169 731.3439,534.1904 675.8539,560.7004 " fill="transparent" id="FitnessAppSystem-to-SocialFeed" style="stroke:#181818;stroke-width:1;stroke-dasharray:7.0,7.0;"/><polygon fill="#181818" points="670.44,563.2869,680.2851,563.0165,674.9516,561.1315,676.8365,555.7979,670.44,563.2869" style="stroke:#181818;stroke-width:1;"/><text fill="#000000" font-family="sans-serif" font-size="13" lengthAdjust="spacing" textLength="29.7832" x="762" y="529.3638">uses</text></g><!--link FitnessAppFacade to IUserManagement--><g id="link_FitnessAppFacade_IUserManagement"><path codeLine="109" d="M1567.95,289.6169 C1559.67,308.2569 1551.65,327.6669 1545,346.2969 C1516.14,427.1069 1548.28,464.4969 1497,533.2969 C1485.06,549.3269 1473.7867,559.4574 1456.7667,570.3274 " fill="transparent" id="FitnessAppFacade-to-IUserManagement" style="stroke:#181818;stroke-width:1;stroke-dasharray:7.0,7.0;"/><polygon fill="#181818" points="1451.71,573.5569,1461.4481,572.0837,1455.9239,570.8656,1457.142,565.3415,1451.71,573.5569" style="stroke:#181818;stroke-width:1;"/><text fill="#000000" font-family="sans-serif" font-size="13" lengthAdjust="spacing" textLength="29.7832" x="1546" y="442.3638">uses</text></g><!--link FitnessAppFacade to IActivityDataProvider--><g id="link_FitnessAppFacade_IActivityDataProvider"><path codeLine="110" d="M1489.5,210.1169 C1226.04,261.2269 642.4302,374.4442 416.9602,418.1842 " fill="transparent" id="FitnessAppFacade-to-IActivityDataProvider" style="stroke:#181818;stroke-width:1;stroke-dasharray:7.0,7.0;"/><polygon fill="#181818" points="411.07,419.3269,420.6671,421.5397,415.9785,418.3747,419.1435,413.6861,411.07,419.3269" style="stroke:#181818;stroke-width:1;"/><text fill="#000000" font-family="sans-serif" font-size="13" lengthAdjust="spacing" textLength="81.1294" x="893" y="334.3638">delegates to</text></g><!--link FitnessAppFacade to IProgressTracker--><g id="link_FitnessAppFacade_IProgressTracker"><path codeLine="111" d="M1607.46,289.5569 C1597,376.8869 1583.3033,491.3294 1575.4233,557.1394 " fill="transparent" id="FitnessAppFacade-to-IProgressTracker" style="stroke:#181818;stroke-width:1;stroke-dasharray:7.0,7.0;"/><polygon fill="#181818" points="1574.71,563.0969,1579.7516,554.6363,1575.3044,558.1323,1571.8084,553.6851,1574.71,563.0969" style="stroke:#181818;stroke-width:1;"/><text fill="#000000" font-family="sans-serif" font-size="13" lengthAdjust="spacing" textLength="29.7832" x="1601" y="442.3638">uses</text></g><!--link FitnessAppFacade to ISocialFeed--><g id="link_FitnessAppFacade_ISocialFeed"><path codeLine="112" d="M1670.88,289.5269 C1714.34,395.9169 1757.14,559.0569 1669,660.2969 C1569.41,774.6869 1481.94,692.4269 1331,707.2969 C1102.83,729.7669 1042.15,699.5669 816,737.2969 C801.79,739.6669 792.9056,741.3721 778.3456,744.8521 " fill="transparent" id="FitnessAppFacade-to-ISocialFeed" style="stroke:#181818;stroke-width:1;stroke-dasharray:7.0,7.0;"/><polygon fill="#181818" points="772.51,746.2469,782.1933,748.0451,777.373,745.0846,780.3336,740.2643,772.51,746.2469" style="stroke:#181818;stroke-width:1;"/><text fill="#000000" font-family="sans-serif" font-size="13" lengthAdjust="spacing" textLength="29.7832" x="1721" y="529.3638">uses</text></g><!--link FitnessAppFacade to ICalendarService--><g id="link_FitnessAppFacade_ICalendarService"><path codeLine="113" d="M1714.71,289.5669 C1720.74,299.8169 1725.99,310.4469 1730,321.2969 C1789.56,482.1869 1849.87,584.5769 1730,707.2969 C1689.79,748.4569 1270.1,730.2269 1213,737.2969 C1174.35,742.0869 1138.552,748.1034 1100.552,755.4134 " fill="transparent" id="FitnessAppFacade-to-ICalendarService" style="stroke:#181818;stroke-width:1;stroke-dasharray:7.0,7.0;"/><polygon fill="#181818" points="1094.66,756.5469,1104.2536,758.7747,1099.57,755.6024,1102.7423,750.9187,1094.66,756.5469" style="stroke:#181818;stroke-width:1;"/><text fill="#000000" font-family="sans-serif" font-size="13" lengthAdjust="spacing" textLength="29.7832" x="1798" y="529.3638">uses</text></g><!--link FitnessAppFacade to INotificationService--><g id="link_FitnessAppFacade_INotificationService"><path codeLine="114" d="M1750.92,260.2469 C1770.97,277.6769 1788.97,298.0569 1801,321.2969 C1879.87,473.6469 1914.04,578.2469 1801,707.2969 C1756.08,758.5769 1577.573,775.6374 1456.043,781.5074 " fill="transparent" id="FitnessAppFacade-to-INotificationService" style="stroke:#181818;stroke-width:1;stroke-dasharray:7.0,7.0;"/><polygon fill="#181818" points="1450.05,781.7969,1459.2325,785.358,1455.0442,781.5557,1458.8465,777.3673,1450.05,781.7969" style="stroke:#181818;stroke-width:1;"/><text fill="#000000" font-family="sans-serif" font-size="13" lengthAdjust="spacing" textLength="29.7832" x="1874" y="529.3638">uses</text></g><!--link FitnessAppFacade to AnalyticsSystem--><g id="link_FitnessAppFacade_AnalyticsSystem"><path codeLine="115" d="M1489.38,234.7069 C1421.1,263.2469 1337.52,302.1169 1268,346.2969 C1244.9,360.9769 1225.9202,376.2459 1206.8702,393.2159 " fill="transparent" id="FitnessAppFacade-to-AnalyticsSystem" style="stroke:#181818;stroke-width:1;stroke-dasharray:7.0,7.0;"/><polygon fill="#181818" points="1202.39,397.2069,1211.7709,394.2072,1206.1235,393.881,1206.4496,388.2336,1202.39,397.2069" style="stroke:#181818;stroke-width:1;"/><text fill="#000000" font-family="sans-serif" font-size="13" lengthAdjust="spacing" textLength="29.7832" x="1304" y="334.3638">uses</text></g><!--SRC=[lLPHJjmm4FtVKupuAA0M3b0L90G2hKGHwbBnxRLdiovPExAzI2jOgOVeBNg4_d6KdgJZ9CuwYGDRGRjV6y-yUUCtavauwNA4SyQPG7W7frfnWmvXifpQbNMui700vz8fj1PEYWBsBjaKSnJxez7kqT5HW5wo5HgWWr71-1tB47PYomuyZ01upYXA7Os2rHxU1F0U36QIACtUqg8PgvdUhmsvpgJQeyG4AYTPReF1ehlGz5mYFa16_uF96ShZX3jvBzsgj0TBXkvgwOnqKgiRMTYkSQ8vSPmZYfR5hXI_HMRODCUsWSzHB7EyrUPEBrsTYs0EdLpW9bKbhhIJCycPPwxT5ZRRK2iqXFg2XJQkeLYFrhNKgUAq54yuUE4foExlxp_WAqM4pqoHxuA413eZarGa-OnnXB5tYEnlNfTreWScPPx_Xgl7SdZuUDoxvaTu-YaNHLu-sQTVZLwXU-2CEGRNHjzBWSRsTGkEtY-uDJUYZehjKLs36A6hpl1USlmBO0MOeB9wExuEKoL7ClkUAD1cUmQQmgOzFpqU77Hpyc3h_7kGhLw2jZBg8aCL2P8PFxrk_4IGAklNBxYK7b7fPkZu_9JbsaXiZudI4c2zCJ5GhcRgd5oFtvwZ5RqgJ_TUWvrUZJpmCw-lpcOUnZrshQrhPyM4y8VrUyWrHL0k6BzfgKxdBCzHPHXSmlDOj8NwdumHLoLQT32e5zMBnZapC45JTcrFjE0H71wsNXOR6LuNeukkRjSz7RnYlAk6hnbxTTEaMLrkiuLKeXxehNtt_4QCNfkOexqjNa-H25u9bRhPyAPGB5yvoSDkg19lJZjP3onwRnBI5ZbRNHXMp6tqUZUDfmrjzohSs9U1SPzWu4qilEFK5Vr5A7WrcvEWRf_utykewDrfVX5gtVvcFCE2E51ncdpbXqploz37xAxhVjWqR7Wt2Vf-pKX_2quFmhkpSqlMb09Rm59oRm5BDUdBi6vVzjZ-0000]--></g></svg>