<svg xmlns="http://www.w3.org/2000/svg" xmlns:xlink="http://www.w3.org/1999/xlink" contentStyleType="text/css" data-diagram-type="STATE" height="829px" preserveAspectRatio="none" style="width:4002px;height:829px;background:#FFFFFF;" version="1.1" viewBox="0 0 4002 829" width="4002px" zoomAndPan="magnify"><title>State Diagram - Fitness App</title><defs><filter height="300%" id="f289qzas3lftc" width="300%" x="-1" y="-1"><feGaussianBlur result="blurOut" stdDeviation="2"/><feColorMatrix in="blurOut" result="blurOut2" type="matrix" values="0 0 0 0 0 0 0 0 0 0 0 0 0 0 0 0 0 0 .4 0"/><feOffset dx="4" dy="4" in="blurOut2" result="blurOut3"/><feBlend in="SourceGraphic" in2="blurOut3" mode="normal"/></filter></defs><g><text fill="#000000" font-family="sans-serif" font-size="14" font-weight="bold" lengthAdjust="spacing" textLength="222.6055" x="1882.1355" y="22.9951">State Diagram - Fitness App</text><!--cluster Unauthenticated--><g id="cluster_Unauthenticated"><rect fill="transparent" filter="url(#f289qzas3lftc)" height="529.5" rx="12.5" ry="12.5" style="stroke:#2F4F4F;stroke-width:0.5;" width="316" x="7" y="118.2969"/><path d="M19.5,118.2969 L310.5,118.2969 A12.5,12.5 0 0 1 323,130.7969 L323,137.2656 L7,137.2656 L7,130.7969 A12.5,12.5 0 0 1 19.5,118.2969 " fill="#FFEECC" style="stroke:#FFEECC;stroke-width:1;"/><rect fill="transparent" height="529.5" rx="12.5" ry="12.5" style="stroke:#2F4F4F;stroke-width:0.5;" width="316" x="7" y="118.2969"/><line style="stroke:#2F4F4F;stroke-width:0.5;" x1="7" x2="323" y1="137.2656" y2="137.2656"/><text fill="#000000" font-family="sans-serif" font-size="12" lengthAdjust="spacing" textLength="100.3418" x="114.8291" y="133.4355">Unauthenticated</text></g><ellipse cx="83" cy="182.2969" fill="#222222" filter="url(#f289qzas3lftc)" rx="10" ry="10" style="stroke:#222222;stroke-width:1;"/><g id="Unauthenticated.LoginScreen"><rect fill="#F1F1F1" filter="url(#f289qzas3lftc)" height="50" rx="12.5" ry="12.5" style="stroke:#2F4F4F;stroke-width:0.5;" width="94.1035" x="36" y="253.2969"/><line style="stroke:#2F4F4F;stroke-width:0.5;" x1="36" x2="130.1035" y1="277.2656" y2="277.2656"/><text fill="#000000" font-family="sans-serif" font-size="12" lengthAdjust="spacing" textLength="74.1035" x="46" y="269.4355">LoginScreen</text></g><g id="Unauthenticated.RegistrationScreen"><rect fill="#F1F1F1" filter="url(#f289qzas3lftc)" height="50" rx="12.5" ry="12.5" style="stroke:#2F4F4F;stroke-width:0.5;" width="134.4219" x="31" y="573.7969"/><line style="stroke:#2F4F4F;stroke-width:0.5;" x1="31" x2="165.4219" y1="597.7656" y2="597.7656"/><text fill="#000000" font-family="sans-serif" font-size="12" lengthAdjust="spacing" textLength="114.4219" x="41" y="589.9355">RegistrationScreen</text></g><rect fill="transparent" filter="url(#f289qzas3lftc)" height="436.9375" rx="12.5" ry="12.5" style="stroke:#2F4F4F;stroke-width:0.5;" width="3523.8765" x="465" y="380.2969"/><path d="M477.5,380.2969 L3976.3765,380.2969 A12.5,12.5 0 0 1 3988.8765,392.7969 L3988.8765,404.2656 L465,404.2656 L465,392.7969 A12.5,12.5 0 0 1 477.5,380.2969 " fill="#CCFFCC" style="stroke:#CCFFCC;stroke-width:1;"/><rect fill="transparent" height="436.9375" rx="12.5" ry="12.5" style="stroke:#2F4F4F;stroke-width:0.5;" width="3523.8765" x="465" y="380.2969"/><line style="stroke:#2F4F4F;stroke-width:0.5;" x1="465" x2="3988.8765" y1="404.2656" y2="404.2656"/><text fill="#000000" font-family="sans-serif" font-size="12" lengthAdjust="spacing" textLength="84.8086" x="2184.5339" y="396.4355">Authenticated</text><rect fill="transparent" filter="url(#f289qzas3lftc)" height="260.9688" rx="12.5" ry="12.5" style="stroke:#2F4F4F;stroke-width:0.5;" width="3174.461" x="477" y="478.2656"/><path d="M489.5,478.2656 L3638.961,478.2656 A12.5,12.5 0 0 1 3651.461,490.7656 L3651.461,502.2344 L477,502.2344 L477,490.7656 A12.5,12.5 0 0 1 489.5,478.2656 " fill="#E0F7FA" style="stroke:#E0F7FA;stroke-width:1;"/><rect fill="transparent" height="260.9688" rx="12.5" ry="12.5" style="stroke:#2F4F4F;stroke-width:0.5;" width="3174.461" x="477" y="478.2656"/><line style="stroke:#2F4F4F;stroke-width:0.5;" x1="477" x2="3651.461" y1="502.2344" y2="502.2344"/><text fill="#000000" font-family="sans-serif" font-size="12" lengthAdjust="spacing" textLength="71.3965" x="2028.5322" y="494.4043">UserActions</text><ellipse cx="2009.21" cy="523.2344" fill="#222222" filter="url(#f289qzas3lftc)" rx="10" ry="10" style="stroke:#222222;stroke-width:1;"/><g id="Authenticated.UserActions.Idle"><rect fill="#F1F1F1" filter="url(#f289qzas3lftc)" height="50" rx="12.5" ry="12.5" style="stroke:#2F4F4F;stroke-width:0.5;" width="50" x="1984.21" y="570.2344"/><line style="stroke:#2F4F4F;stroke-width:0.5;" x1="1984.21" x2="2034.21" y1="594.2031" y2="594.2031"/><text fill="#000000" font-family="sans-serif" font-size="12" lengthAdjust="spacing" textLength="21.873" x="1998.2735" y="586.373">Idle</text></g><g id="Authenticated.UserActions.SetGoals"><rect fill="#F1F1F1" filter="url(#f289qzas3lftc)" height="50" rx="12.5" ry="12.5" style="stroke:#2F4F4F;stroke-width:0.5;" width="73.2852" x="532.71" y="673.2344"/><line style="stroke:#2F4F4F;stroke-width:0.5;" x1="532.71" x2="605.9952" y1="697.2031" y2="697.2031"/><text fill="#000000" font-family="sans-serif" font-size="12" lengthAdjust="spacing" textLength="53.2852" x="542.71" y="689.373">SetGoals</text></g><g id="Authenticated.UserActions.GeneratePlan"><rect fill="#F1F1F1" filter="url(#f289qzas3lftc)" height="50" rx="12.5" ry="12.5" style="stroke:#2F4F4F;stroke-width:0.5;" width="101.5742" x="754.21" y="673.2344"/><line style="stroke:#2F4F4F;stroke-width:0.5;" x1="754.21" x2="855.7842" y1="697.2031" y2="697.2031"/><text fill="#000000" font-family="sans-serif" font-size="12" lengthAdjust="spacing" textLength="81.5742" x="764.21" y="689.373">GeneratePlan</text></g><g id="Authenticated.UserActions.CustomizePlan"><rect fill="#F1F1F1" filter="url(#f289qzas3lftc)" height="50" rx="12.5" ry="12.5" style="stroke:#2F4F4F;stroke-width:0.5;" width="108.5176" x="1001.71" y="673.2344"/><line style="stroke:#2F4F4F;stroke-width:0.5;" x1="1001.71" x2="1110.2276" y1="697.2031" y2="697.2031"/><text fill="#000000" font-family="sans-serif" font-size="12" lengthAdjust="spacing" textLength="88.5176" x="1011.71" y="689.373">CustomizePlan</text></g><g id="Authenticated.UserActions.ViewPlan"><rect fill="#F1F1F1" filter="url(#f289qzas3lftc)" height="50" rx="12.5" ry="12.5" style="stroke:#2F4F4F;stroke-width:0.5;" width="74.2695" x="1342.21" y="673.2344"/><line style="stroke:#2F4F4F;stroke-width:0.5;" x1="1342.21" x2="1416.4795" y1="697.2031" y2="697.2031"/><text fill="#000000" font-family="sans-serif" font-size="12" lengthAdjust="spacing" textLength="54.2695" x="1352.21" y="689.373">ViewPlan</text></g><g id="Authenticated.UserActions.TrackActivity"><rect fill="#F1F1F1" filter="url(#f289qzas3lftc)" height="50" rx="12.5" ry="12.5" style="stroke:#2F4F4F;stroke-width:0.5;" width="98.252" x="1585.21" y="673.2344"/><line style="stroke:#2F4F4F;stroke-width:0.5;" x1="1585.21" x2="1683.462" y1="697.2031" y2="697.2031"/><text fill="#000000" font-family="sans-serif" font-size="12" lengthAdjust="spacing" textLength="78.252" x="1595.21" y="689.373">TrackActivity</text></g><g id="Authenticated.UserActions.ViewNutrition"><rect fill="#F1F1F1" filter="url(#f289qzas3lftc)" height="50" rx="12.5" ry="12.5" style="stroke:#2F4F4F;stroke-width:0.5;" width="101.2813" x="1877.71" y="673.2344"/><line style="stroke:#2F4F4F;stroke-width:0.5;" x1="1877.71" x2="1978.9913" y1="697.2031" y2="697.2031"/><text fill="#000000" font-family="sans-serif" font-size="12" lengthAdjust="spacing" textLength="81.2813" x="1887.71" y="689.373">ViewNutrition</text></g><g id="Authenticated.UserActions.ViewSocialFeed"><rect fill="#F1F1F1" filter="url(#f289qzas3lftc)" height="50" rx="12.5" ry="12.5" style="stroke:#2F4F4F;stroke-width:0.5;" width="113.6035" x="2168.21" y="673.2344"/><line style="stroke:#2F4F4F;stroke-width:0.5;" x1="2168.21" x2="2281.8135" y1="697.2031" y2="697.2031"/><text fill="#000000" font-family="sans-serif" font-size="12" lengthAdjust="spacing" textLength="93.6035" x="2178.21" y="689.373">ViewSocialFeed</text></g><g id="Authenticated.UserActions.SyncWearable"><rect fill="#F1F1F1" filter="url(#f289qzas3lftc)" height="50" rx="12.5" ry="12.5" style="stroke:#2F4F4F;stroke-width:0.5;" width="106.1445" x="2462.21" y="673.2344"/><line style="stroke:#2F4F4F;stroke-width:0.5;" x1="2462.21" x2="2568.3545" y1="697.2031" y2="697.2031"/><text fill="#000000" font-family="sans-serif" font-size="12" lengthAdjust="spacing" textLength="86.1445" x="2472.21" y="689.373">SyncWearable</text></g><g id="Authenticated.UserActions.SetSchedule"><rect fill="#F1F1F1" filter="url(#f289qzas3lftc)" height="50" rx="12.5" ry="12.5" style="stroke:#2F4F4F;stroke-width:0.5;" width="94.8477" x="2715.71" y="673.2344"/><line style="stroke:#2F4F4F;stroke-width:0.5;" x1="2715.71" x2="2810.5577" y1="697.2031" y2="697.2031"/><text fill="#000000" font-family="sans-serif" font-size="12" lengthAdjust="spacing" textLength="74.8477" x="2725.71" y="689.373">SetSchedule</text></g><g id="Authenticated.UserActions.ViewReports"><rect fill="#F1F1F1" filter="url(#f289qzas3lftc)" height="50" rx="12.5" ry="12.5" style="stroke:#2F4F4F;stroke-width:0.5;" width="95.3105" x="3057.71" y="673.2344"/><line style="stroke:#2F4F4F;stroke-width:0.5;" x1="3057.71" x2="3153.0205" y1="697.2031" y2="697.2031"/><text fill="#000000" font-family="sans-serif" font-size="12" lengthAdjust="spacing" textLength="75.3105" x="3067.71" y="689.373">ViewReports</text></g><g id="Authenticated.UserActions.ViewAnalytics"><rect fill="#F1F1F1" filter="url(#f289qzas3lftc)" height="50" rx="12.5" ry="12.5" style="stroke:#2F4F4F;stroke-width:0.5;" width="103.2324" x="3334.71" y="673.2344"/><line style="stroke:#2F4F4F;stroke-width:0.5;" x1="3334.71" x2="3437.9424" y1="697.2031" y2="697.2031"/><text fill="#000000" font-family="sans-serif" font-size="12" lengthAdjust="spacing" textLength="83.2324" x="3344.71" y="689.373">ViewAnalytics</text></g><ellipse cx="3608.21" cy="698.2344" fill="transparent" filter="url(#f289qzas3lftc)" rx="11" ry="11" style="stroke:#222222;stroke-width:1;"/><ellipse cx="3608.21" cy="698.2344" fill="#222222" rx="6" ry="6" style="stroke:#222222;stroke-width:1;"/><!--link *start*UserActions to Idle--><g id="link_*start*UserActions_Idle"><path d="M2009.21,533.3844 C2009.21,542.6544 2009.21,551.3744 2009.21,564.0144 " fill="transparent" id="*start*UserActions-to-Idle" style="stroke:#181818;stroke-width:1;"/><polygon fill="#181818" points="2009.21,570.0144,2013.21,561.0144,2009.21,565.0144,2005.21,561.0144,2009.21,570.0144" style="stroke:#181818;stroke-width:1;"/></g><!--link Idle to SetGoals--><g id="link_Idle_SetGoals"><path d="M1984.19,596.4544 C1789.96,598.1944 530.14,610.5444 503.21,638.2344 C488,653.8844 504.6273,667.5939 527.2073,679.1339 " fill="transparent" id="Idle-to-SetGoals" style="stroke:#181818;stroke-width:1;"/><polygon fill="#181818" points="532.55,681.8644,526.3563,674.2068,528.0978,679.589,522.7156,681.3304,532.55,681.8644" style="stroke:#181818;stroke-width:1;"/><text fill="#000000" font-family="sans-serif" font-size="13" lengthAdjust="spacing" textLength="106.4946" x="504.21" y="651.3013">selectSetGoals()</text></g><!--link SetGoals to SetGoals--><g id="link_SetGoals_SetGoals"><path d="M605.89,688.9144 C615.99,689.3644 623.71,692.4744 623.71,698.2344 C623.71,703.9944 621.9841,706.8373 611.8841,707.2873 " fill="transparent" id="SetGoals-to-SetGoals" style="stroke:#181818;stroke-width:1;"/><polygon fill="#181818" points="605.89,707.5544,615.0591,711.1498,610.885,707.3318,614.703,703.1577,605.89,707.5544" style="stroke:#181818;stroke-width:1;"/><text fill="#000000" font-family="sans-serif" font-size="13" lengthAdjust="spacing" textLength="96.2051" x="629.71" y="695.3013">validationError</text><text fill="#000000" font-family="sans-serif" font-size="13" lengthAdjust="spacing" textLength="93.8564" x="630.8843" y="710.4341">"Invalid goals"</text></g><!--link SetGoals to Idle--><g id="link_SetGoals_Idle"><path d="M593.56,673.1544 C608.34,660.2044 628.34,645.4544 649.21,638.2344 C779.88,593.0144 1803.0501,595.349 1977.9801,596.089 " fill="transparent" id="SetGoals-to-Idle" style="stroke:#181818;stroke-width:1;"/><polygon fill="#181818" points="1983.98,596.1144,1974.997,592.0763,1978.98,596.0932,1974.9632,600.0763,1983.98,596.1144" style="stroke:#181818;stroke-width:1;"/><text fill="#000000" font-family="sans-serif" font-size="13" lengthAdjust="spacing" textLength="84.8618" x="650.21" y="651.3013">goalsSaved()</text></g><!--link Idle to GeneratePlan--><g id="link_Idle_GeneratePlan"><path d="M1984.04,596.0844 C1809.75,595.2044 787.96,591.9744 743.21,638.2344 C731.85,649.9844 736.7906,659.075 751.7206,669.565 " fill="transparent" id="Idle-to-GeneratePlan" style="stroke:#181818;stroke-width:1;"/><polygon fill="#181818" points="756.63,673.0144,751.5655,664.5674,752.5389,670.1399,746.9664,671.1132,756.63,673.0144" style="stroke:#181818;stroke-width:1;"/><text fill="#000000" font-family="sans-serif" font-size="13" lengthAdjust="spacing" textLength="137.1411" x="744.21" y="651.3013">selectGeneratePlan()</text></g><!--link GeneratePlan to Idle--><g id="link_GeneratePlan_Idle"><path d="M849.58,673.0944 C878.28,657.6844 911.67,640.2244 919.21,638.2344 C1025.19,610.2644 1824.8505,598.6123 1978.0905,596.6223 " fill="transparent" id="GeneratePlan-to-Idle" style="stroke:#181818;stroke-width:1;"/><polygon fill="#181818" points="1984.09,596.5444,1975.0388,592.6616,1979.0904,596.6093,1975.1427,600.6609,1984.09,596.5444" style="stroke:#181818;stroke-width:1;"/><text fill="#000000" font-family="sans-serif" font-size="13" lengthAdjust="spacing" textLength="107.1802" x="920.21" y="651.3013">planGenerated()</text></g><!--link Idle to CustomizePlan--><g id="link_Idle_CustomizePlan"><path d="M1984.18,596.3544 C1835.23,597.1544 1070.95,603.0144 1037.21,638.2344 C1028.21,647.6344 1029.0844,656.0684 1035.5444,667.8984 " fill="transparent" id="Idle-to-CustomizePlan" style="stroke:#181818;stroke-width:1;"/><polygon fill="#181818" points="1038.42,673.1644,1037.6173,663.3483,1036.0237,668.776,1030.5959,667.1824,1038.42,673.1644" style="stroke:#181818;stroke-width:1;"/><text fill="#000000" font-family="sans-serif" font-size="13" lengthAdjust="spacing" textLength="144.6631" x="1038.21" y="651.3013">selectCustomizePlan()</text></g><!--link CustomizePlan to CustomizePlan--><g id="link_CustomizePlan_CustomizePlan"><path d="M1110.91,689.3044 C1121.34,690.3744 1128.71,693.3544 1128.71,698.2344 C1128.71,703.1144 1127.3087,705.4821 1116.8787,706.5521 " fill="transparent" id="CustomizePlan-to-CustomizePlan" style="stroke:#181818;stroke-width:1;"/><polygon fill="#181818" points="1110.91,707.1644,1120.2712,710.225,1115.8839,706.6541,1119.4548,702.2668,1110.91,707.1644" style="stroke:#181818;stroke-width:1;"/><text fill="#000000" font-family="sans-serif" font-size="13" lengthAdjust="spacing" textLength="96.2051" x="1134.71" y="695.3013">validationError</text><text fill="#000000" font-family="sans-serif" font-size="13" lengthAdjust="spacing" textLength="74.1724" x="1145.7264" y="710.4341">"Bad prefs"</text></g><!--link CustomizePlan to Idle--><g id="link_CustomizePlan_Idle"><path d="M1110.72,680.5444 C1133.33,673.2744 1159.72,664.3444 1183.21,655.2344 C1200.46,648.5444 1203.23,642.5744 1221.21,638.2344 C1371.03,602.0544 1860.2101,597.059 1977.9401,596.379 " fill="transparent" id="CustomizePlan-to-Idle" style="stroke:#181818;stroke-width:1;"/><polygon fill="#181818" points="1983.94,596.3444,1974.917,592.3964,1978.9401,596.3733,1974.9633,600.3963,1983.94,596.3444" style="stroke:#181818;stroke-width:1;"/><text fill="#000000" font-family="sans-serif" font-size="13" lengthAdjust="spacing" textLength="83.2495" x="1222.21" y="651.3013">prefsSaved()</text></g><!--link Idle to ViewPlan--><g id="link_Idle_ViewPlan"><path d="M1984.19,596.7944 C1862.51,599.6444 1337.65,613.3444 1314.21,638.2344 C1299.69,653.6544 1314.796,666.9195 1336.486,678.3895 " fill="transparent" id="Idle-to-ViewPlan" style="stroke:#181818;stroke-width:1;"/><polygon fill="#181818" points="1341.79,681.1944,1335.7038,673.4511,1337.37,678.857,1331.964,680.5231,1341.79,681.1944" style="stroke:#181818;stroke-width:1;"/><text fill="#000000" font-family="sans-serif" font-size="13" lengthAdjust="spacing" textLength="107.561" x="1315.21" y="651.3013">selectViewPlan()</text></g><!--link ViewPlan to Idle--><g id="link_ViewPlan_Idle"><path d="M1404.39,673.2044 C1419.38,660.4544 1439.48,645.8744 1460.21,638.2344 C1558.32,602.0944 1883.6202,597.0995 1977.9602,596.3895 " fill="transparent" id="ViewPlan-to-Idle" style="stroke:#181818;stroke-width:1;"/><polygon fill="#181818" points="1983.96,596.3444,1974.9302,592.4122,1978.9601,596.382,1974.9904,600.412,1983.96,596.3444" style="stroke:#181818;stroke-width:1;"/><text fill="#000000" font-family="sans-serif" font-size="13" lengthAdjust="spacing" textLength="85.5981" x="1461.21" y="651.3013">planViewed()</text></g><!--link Idle to TrackActivity--><g id="link_Idle_TrackActivity"><path d="M1984.15,596.6344 C1893.32,598.3344 1585.21,606.4244 1556.21,638.2344 C1541.4,654.4844 1556.0739,666.8983 1579.5939,677.6583 " fill="transparent" id="Idle-to-TrackActivity" style="stroke:#181818;stroke-width:1;"/><polygon fill="#181818" points="1585.05,680.1544,1578.5298,672.7728,1580.5032,678.0743,1575.2017,680.0477,1585.05,680.1544" style="stroke:#181818;stroke-width:1;"/><text fill="#000000" font-family="sans-serif" font-size="13" lengthAdjust="spacing" textLength="133.542" x="1557.21" y="651.3013">selectTrackActivity()</text></g><!--link TrackActivity to Idle--><g id="link_TrackActivity_Idle"><path d="M1665.92,672.9744 C1683.62,660.6444 1706.62,646.5444 1729.21,638.2344 C1818.95,605.2444 1927.9627,598.314 1978.0427,596.814 " fill="transparent" id="TrackActivity-to-Idle" style="stroke:#181818;stroke-width:1;"/><polygon fill="#181818" points="1984.04,596.6344,1974.9243,592.9056,1979.0422,596.7841,1975.1638,600.902,1984.04,596.6344" style="stroke:#181818;stroke-width:1;"/><text fill="#000000" font-family="sans-serif" font-size="13" lengthAdjust="spacing" textLength="110.2397" x="1730.21" y="651.3013">activityTracked()</text></g><!--link Idle to ViewNutrition--><g id="link_Idle_ViewNutrition"><path d="M1984.18,599.1044 C1943.43,604.3644 1865.61,616.9744 1849.21,638.2344 C1836.04,655.3144 1849.5163,667.3729 1872.1463,677.7529 " fill="transparent" id="Idle-to-ViewNutrition" style="stroke:#181818;stroke-width:1;"/><polygon fill="#181818" points="1877.6,680.2544,1871.0872,672.8663,1873.0553,678.1698,1867.7518,680.1379,1877.6,680.2544" style="stroke:#181818;stroke-width:1;"/><text fill="#000000" font-family="sans-serif" font-size="13" lengthAdjust="spacing" textLength="136.8237" x="1850.21" y="651.3013">selectViewNutrition()</text></g><!--link ViewNutrition to Idle--><g id="link_ViewNutrition_Idle"><path d="M1969.12,673.0444 C1975.79,667.7944 1982.16,661.8144 1987.21,655.2344 C1995.07,645.0044 1998.6259,637.4113 2002.0459,626.0113 " fill="transparent" id="ViewNutrition-to-Idle" style="stroke:#181818;stroke-width:1;"/><polygon fill="#181818" points="2003.77,620.2644,1997.3526,627.7354,2002.3333,625.0535,2005.0152,630.0342,2003.77,620.2644" style="stroke:#181818;stroke-width:1;"/><text fill="#000000" font-family="sans-serif" font-size="13" lengthAdjust="spacing" textLength="112.9629" x="1998.21" y="651.3013">nutritionViewed()</text></g><!--link Idle to ViewSocialFeed--><g id="link_Idle_ViewSocialFeed"><path d="M2034.4,605.2844 C2056.1,613.2944 2088.1,625.6444 2115.21,638.2344 C2116.96,639.0444 2145.5655,654.3929 2175.2655,670.3629 " fill="transparent" id="Idle-to-ViewSocialFeed" style="stroke:#181818;stroke-width:1;"/><polygon fill="#181818" points="2180.55,673.2044,2174.5176,665.4191,2176.1463,670.8364,2170.7289,672.4651,2180.55,673.2044" style="stroke:#181818;stroke-width:1;"/><text fill="#000000" font-family="sans-serif" font-size="13" lengthAdjust="spacing" textLength="150.1729" x="2147.21" y="651.3013">selectViewSocialFeed()</text></g><!--link ViewSocialFeed to Idle--><g id="link_ViewSocialFeed_Idle"><path d="M2282.46,674.3344 C2299.47,664.2444 2310.83,651.6544 2299.21,638.2344 C2265,598.7144 2104.8499,595.5464 2040.6199,595.8464 " fill="transparent" id="ViewSocialFeed-to-Idle" style="stroke:#181818;stroke-width:1;"/><polygon fill="#181818" points="2034.62,595.8744,2043.6386,599.8323,2039.6199,595.851,2043.6012,591.8324,2034.62,595.8744" style="stroke:#181818;stroke-width:1;"/><text fill="#000000" font-family="sans-serif" font-size="13" lengthAdjust="spacing" textLength="86.3535" x="2305.21" y="651.3013">feedViewed()</text></g><!--link Idle to SyncWearable--><g id="link_Idle_SyncWearable"><path d="M2034.25,595.9444 C2096.7,595.8644 2263.88,599.5744 2396.21,638.2344 C2403.93,640.4844 2433.2376,655.0734 2463.1676,670.3734 " fill="transparent" id="Idle-to-SyncWearable" style="stroke:#181818;stroke-width:1;"/><polygon fill="#181818" points="2468.51,673.1044,2462.317,665.4462,2464.058,670.8285,2458.6757,672.5695,2468.51,673.1044" style="stroke:#181818;stroke-width:1;"/><text fill="#000000" font-family="sans-serif" font-size="13" lengthAdjust="spacing" textLength="142.0923" x="2433.21" y="651.3013">selectSyncWearable()</text></g><!--link SyncWearable to Idle--><g id="link_SyncWearable_Idle"><path d="M2563.97,672.9544 C2578.63,662.5544 2588.24,650.1044 2577.21,638.2344 C2539.82,597.9744 2145.25,595.9547 2040.28,596.1247 " fill="transparent" id="SyncWearable-to-Idle" style="stroke:#181818;stroke-width:1;"/><polygon fill="#181818" points="2034.28,596.1344,2043.2865,600.1198,2039.28,596.1263,2043.2735,592.1198,2034.28,596.1344" style="stroke:#181818;stroke-width:1;"/><text fill="#000000" font-family="sans-serif" font-size="13" lengthAdjust="spacing" textLength="117.4951" x="2583.21" y="651.3013">wearableSynced()</text></g><!--link Idle to SetSchedule--><g id="link_Idle_SetSchedule"><path d="M2034.24,596.6844 C2151.47,598.9344 2643.17,609.9944 2705.21,638.2344 C2721.82,645.7944 2732.4531,655.7042 2742.7531,668.4742 " fill="transparent" id="Idle-to-SetSchedule" style="stroke:#181818;stroke-width:1;"/><polygon fill="#181818" points="2746.52,673.1444,2743.9832,663.6278,2743.3809,669.2526,2737.7562,668.6503,2746.52,673.1444" style="stroke:#181818;stroke-width:1;"/><text fill="#000000" font-family="sans-serif" font-size="13" lengthAdjust="spacing" textLength="129.854" x="2731.21" y="651.3013">selectSetSchedule()</text></g><!--link SetSchedule to SetSchedule--><g id="link_SetSchedule_SetSchedule"><path d="M2810.9,689.1344 C2821.23,690.0244 2828.71,693.0544 2828.71,698.2344 C2828.71,703.4144 2827.2079,705.9293 2816.8779,706.8193 " fill="transparent" id="SetSchedule-to-SetSchedule" style="stroke:#181818;stroke-width:1;"/><polygon fill="#181818" points="2810.9,707.3344,2820.2101,710.5471,2815.8815,706.9052,2819.5234,702.5766,2810.9,707.3344" style="stroke:#181818;stroke-width:1;"/><text fill="#000000" font-family="sans-serif" font-size="13" lengthAdjust="spacing" textLength="96.2051" x="2836.3509" y="695.3013">validationError</text><text fill="#000000" font-family="sans-serif" font-size="13" lengthAdjust="spacing" textLength="99.4868" x="2834.71" y="710.4341">"Bad schedule"</text></g><!--link SetSchedule to Idle--><g id="link_SetSchedule_Idle"><path d="M2811.01,686.9844 C2846.94,677.2244 2886.59,660.6844 2865.21,638.2344 C2835.81,607.3544 2178.6096,598.1738 2040.3396,596.5738 " fill="transparent" id="SetSchedule-to-Idle" style="stroke:#181818;stroke-width:1;"/><polygon fill="#181818" points="2034.34,596.5044,2043.2931,600.6082,2039.3397,596.5622,2043.3857,592.6088,2034.34,596.5044" style="stroke:#181818;stroke-width:1;"/><text fill="#000000" font-family="sans-serif" font-size="13" lengthAdjust="spacing" textLength="108.564" x="2873.21" y="651.3013">scheduleSaved()</text></g><!--link Idle to ViewReports--><g id="link_Idle_ViewReports"><path d="M2034.47,596.6944 C2178.38,599.3944 2891.67,613.9244 2986.21,638.2344 C3001.46,642.1544 3028.9858,655.8409 3056.3058,670.4109 " fill="transparent" id="Idle-to-ViewReports" style="stroke:#181818;stroke-width:1;"/><polygon fill="#181818" points="3061.6,673.2344,3055.541,665.4698,3057.1882,670.8815,3051.7765,672.5287,3061.6,673.2344" style="stroke:#181818;stroke-width:1;"/><text fill="#000000" font-family="sans-serif" font-size="13" lengthAdjust="spacing" textLength="130.3555" x="3026.21" y="651.3013">selectViewReports()</text></g><!--link ViewReports to Idle--><g id="link_ViewReports_Idle"><path d="M3148.86,673.0444 C3162.85,662.3344 3172.19,649.6244 3161.21,638.2344 C3120.76,596.2744 2205.64,595.8946 2040.46,596.1646 " fill="transparent" id="ViewReports-to-Idle" style="stroke:#181818;stroke-width:1;"/><polygon fill="#181818" points="2034.46,596.1744,2043.4665,600.1597,2039.46,596.1662,2043.4534,592.1597,2034.46,596.1744" style="stroke:#181818;stroke-width:1;"/><text fill="#000000" font-family="sans-serif" font-size="13" lengthAdjust="spacing" textLength="97.519" x="3167.21" y="651.3013">reportViewed()</text></g><!--link Idle to ViewAnalytics--><g id="link_Idle_ViewAnalytics"><path d="M2034.37,596.4244 C2201.23,597.7544 3145.56,606.6344 3269.21,638.2344 C3276.93,640.2044 3305.8838,654.8827 3335.3538,670.3027 " fill="transparent" id="Idle-to-ViewAnalytics" style="stroke:#181818;stroke-width:1;"/><polygon fill="#181818" points="3340.67,673.0844,3334.5501,665.3677,3336.2398,670.7663,3330.8412,672.456,3340.67,673.0844" style="stroke:#181818;stroke-width:1;"/><text fill="#000000" font-family="sans-serif" font-size="13" lengthAdjust="spacing" textLength="138.9375" x="3305.21" y="651.3013">selectViewAnalytics()</text></g><!--link ViewAnalytics to Idle--><g id="link_ViewAnalytics_Idle"><path d="M3433.03,673.0844 C3447.73,662.5044 3457.51,649.8644 3446.21,638.2344 C3420.59,611.8544 2229.5097,598.5065 2040.2797,596.5465 " fill="transparent" id="ViewAnalytics-to-Idle" style="stroke:#181818;stroke-width:1;"/><polygon fill="#181818" points="2034.28,596.4844,2043.2381,600.5774,2039.2797,596.5362,2043.3209,592.5778,2034.28,596.4844" style="stroke:#181818;stroke-width:1;"/><text fill="#000000" font-family="sans-serif" font-size="13" lengthAdjust="spacing" textLength="115.6353" x="3452.21" y="651.3013">analyticsViewed()</text></g><!--link Idle to *end*UserActions--><g id="link_Idle_*end*UserActions"><path d="M2034.45,596.2244 C2230.37,596.2644 3502.84,598.0644 3572.21,638.2344 C3590.7,648.9344 3599.0285,667.5772 3603.5185,681.4172 " fill="transparent" id="Idle-to-*end*UserActions" style="stroke:#181818;stroke-width:1;"/><polygon fill="#181818" points="3605.37,687.1244,3606.3975,677.3293,3603.8271,682.3684,3598.7879,679.798,3605.37,687.1244" style="stroke:#181818;stroke-width:1;"/><text fill="#000000" font-family="sans-serif" font-size="13" lengthAdjust="spacing" textLength="51.251" x="3590.21" y="651.3013">logout()</text></g><rect fill="transparent" filter="url(#f289qzas3lftc)" height="384.9688" rx="12.5" ry="12.5" style="stroke:#2F4F4F;stroke-width:0.5;" width="305.8765" x="3669" y="416.2656"/><path d="M3681.5,416.2656 L3962.3765,416.2656 A12.5,12.5 0 0 1 3974.8765,428.7656 L3974.8765,440.2344 L3669,440.2344 L3669,428.7656 A12.5,12.5 0 0 1 3681.5,416.2656 " fill="#FFF9C4" style="stroke:#FFF9C4;stroke-width:1;"/><rect fill="transparent" height="384.9688" rx="12.5" ry="12.5" style="stroke:#2F4F4F;stroke-width:0.5;" width="305.8765" x="3669" y="416.2656"/><line style="stroke:#2F4F4F;stroke-width:0.5;" x1="3669" x2="3974.8765" y1="440.2344" y2="440.2344"/><text fill="#000000" font-family="sans-serif" font-size="12" lengthAdjust="spacing" textLength="105.9902" x="3768.9431" y="432.4043">BackgroundTasks</text><ellipse cx="3759.5" cy="461.2344" fill="#222222" filter="url(#f289qzas3lftc)" rx="10" ry="10" style="stroke:#222222;stroke-width:1;"/><g id="Authenticated.BackgroundTasks.MonitoringCalendar"><rect fill="#F1F1F1" filter="url(#f289qzas3lftc)" height="50" rx="12.5" ry="12.5" style="stroke:#2F4F4F;stroke-width:0.5;" width="138.1309" x="3690.5" y="508.2344"/><line style="stroke:#2F4F4F;stroke-width:0.5;" x1="3690.5" x2="3828.6309" y1="532.2031" y2="532.2031"/><text fill="#000000" font-family="sans-serif" font-size="12" lengthAdjust="spacing" textLength="118.1309" x="3700.5" y="524.373">MonitoringCalendar</text></g><g id="Authenticated.BackgroundTasks.TriggeringNotifications"><rect fill="#F1F1F1" filter="url(#f289qzas3lftc)" height="50" rx="12.5" ry="12.5" style="stroke:#2F4F4F;stroke-width:0.5;" width="156.8105" x="3681" y="611.2344"/><line style="stroke:#2F4F4F;stroke-width:0.5;" x1="3681" x2="3837.8105" y1="635.2031" y2="635.2031"/><text fill="#000000" font-family="sans-serif" font-size="12" lengthAdjust="spacing" textLength="136.8105" x="3691" y="627.373">TriggeringNotifications</text></g><!--link *start*BackgroundTasks to MonitoringCalendar--><g id="link_*start*BackgroundTasks_MonitoringCalendar"><path d="M3759.5,471.3844 C3759.5,480.6544 3759.5,489.3744 3759.5,502.0144 " fill="transparent" id="*start*BackgroundTasks-to-MonitoringCalendar" style="stroke:#181818;stroke-width:1;"/><polygon fill="#181818" points="3759.5,508.0144,3763.5,499.0144,3759.5,503.0144,3755.5,499.0144,3759.5,508.0144" style="stroke:#181818;stroke-width:1;"/></g><!--link MonitoringCalendar to TriggeringNotifications--><g id="link_MonitoringCalendar_TriggeringNotifications"><path d="M3724.42,558.3044 C3719.17,563.5644 3714.52,569.5744 3711.5,576.2344 C3705.77,588.8644 3708.513,596.877 3718.813,606.867 " fill="transparent" id="MonitoringCalendar-to-TriggeringNotifications" style="stroke:#181818;stroke-width:1;"/><polygon fill="#181818" points="3723.12,611.0444,3719.4444,601.9071,3719.5309,607.5633,3713.8747,607.6497,3723.12,611.0444" style="stroke:#181818;stroke-width:1;"/><text fill="#000000" font-family="sans-serif" font-size="13" lengthAdjust="spacing" textLength="73.417" x="3712.5" y="589.3013">eventDue()</text></g><!--link TriggeringNotifications to MonitoringCalendar--><g id="link_TriggeringNotifications_MonitoringCalendar"><path d="M3779.24,611.1544 C3785.5,600.6844 3789.99,588.1244 3786.5,576.2344 C3784.69,570.0844 3784.7759,569.1079 3781.4059,563.5379 " fill="transparent" id="TriggeringNotifications-to-MonitoringCalendar" style="stroke:#181818;stroke-width:1;"/><polygon fill="#181818" points="3778.3,558.4044,3779.5365,568.1753,3780.8883,562.6823,3786.3813,564.0341,3778.3,558.4044" style="stroke:#181818;stroke-width:1;"/><text fill="#000000" font-family="sans-serif" font-size="13" lengthAdjust="spacing" textLength="112.8359" x="3788.5" y="589.3013">notificationSent()</text></g><line style="stroke:#2F4F4F;stroke-width:1.5;stroke-dasharray:8.0,10.0;" x1="3674" x2="3967.8765" y1="672.2344" y2="672.2344"/><ellipse cx="3750.5" cy="688.2344" fill="#222222" filter="url(#f289qzas3lftc)" rx="10" ry="10" style="stroke:#222222;stroke-width:1;"/><g id="Authenticated.BackgroundTasks.CONC2.AnalyticsProcessing"><rect fill="#F1F1F1" filter="url(#f289qzas3lftc)" height="50" rx="12.5" ry="12.5" style="stroke:#2F4F4F;stroke-width:0.5;" width="139.0449" x="3681" y="735.2344"/><line style="stroke:#2F4F4F;stroke-width:0.5;" x1="3681" x2="3820.0449" y1="759.2031" y2="759.2031"/><text fill="#000000" font-family="sans-serif" font-size="12" lengthAdjust="spacing" textLength="119.0449" x="3691" y="751.373">AnalyticsProcessing</text></g><!--link *start*CONC2 to AnalyticsProcessing--><g id="link_*start*CONC2_AnalyticsProcessing"><path d="M3750.5,698.3844 C3750.5,707.6544 3750.5,716.3744 3750.5,729.0144 " fill="transparent" id="*start*CONC2-to-AnalyticsProcessing" style="stroke:#181818;stroke-width:1;"/><polygon fill="#181818" points="3750.5,735.0144,3754.5,726.0144,3750.5,730.0144,3746.5,726.0144,3750.5,735.0144" style="stroke:#181818;stroke-width:1;"/></g><!--link AnalyticsProcessing to AnalyticsProcessing--><g id="link_AnalyticsProcessing_AnalyticsProcessing"><path d="M3820.17,753.0544 C3830.79,754.1444 3838,756.5444 3838,760.2344 C3838,763.9244 3836.7586,765.7118 3826.1386,766.8018 " fill="transparent" id="AnalyticsProcessing-to-AnalyticsProcessing" style="stroke:#181818;stroke-width:1;"/><polygon fill="#181818" points="3820.17,767.4144,3829.5314,770.4746,3825.1439,766.9039,3828.7146,762.5164,3820.17,767.4144" style="stroke:#181818;stroke-width:1;"/><text fill="#000000" font-family="sans-serif" font-size="13" lengthAdjust="spacing" textLength="115.8765" x="3844" y="764.8013">periodicAnalysis()</text></g><ellipse cx="315" cy="53.2969" fill="#222222" filter="url(#f289qzas3lftc)" rx="10" ry="10" style="stroke:#222222;stroke-width:1;"/><!--link *start* to Unauthenticated--><g id="link_*start*_Unauthenticated"><path d="M315,63.4269 C315,70.5944 315,81.3725 315,93.5502 C315,99.639 315,106.0777 315,112.5899 C315,114.218 315,115.8506 315,117.4835 C315,117.6876 315,111.8918 315,112.0959 " fill="transparent" id="*start*-to-Unauthenticated" style="stroke:#181818;stroke-width:1;"/><polygon fill="#181818" points="315,118.0959,319,109.0959,315,113.0959,311,109.0959,315,118.0959" style="stroke:#181818;stroke-width:1;"/></g><!--link *start*Unauthenticated to LoginScreen--><g id="link_*start*Unauthenticated_LoginScreen"><path d="M83,192.3069 C83,206.1869 83,227.2669 83,247.1369 " fill="transparent" id="*start*Unauthenticated-to-LoginScreen" style="stroke:#181818;stroke-width:1;"/><polygon fill="#181818" points="83,253.1369,87,244.1369,83,248.1369,79,244.1369,83,253.1369" style="stroke:#181818;stroke-width:1;"/></g><!--link LoginScreen to LoginScreen--><g id="link_LoginScreen_LoginScreen"><path d="M130.19,268.2369 C149.11,267.6669 165,271.0169 165,278.2969 C165,285.5769 155.1073,289.1076 136.1873,288.5376 " fill="transparent" id="LoginScreen-to-LoginScreen" style="stroke:#181818;stroke-width:1;"/><polygon fill="#181818" points="130.19,288.3569,139.0655,292.6261,135.1877,288.5074,139.3064,284.6297,130.19,288.3569" style="stroke:#181818;stroke-width:1;"/><text fill="#000000" font-family="sans-serif" font-size="13" lengthAdjust="spacing" textLength="70.5859" x="201.3767" y="275.3638">loginFailed</text><text fill="#000000" font-family="sans-serif" font-size="13" lengthAdjust="spacing" textLength="131.3394" x="171" y="290.4966">"Invalid credentials"</text></g><!--link LoginScreen to RegistrationScreen--><g id="link_LoginScreen_RegistrationScreen"><path d="M84.14,303.4969 C86.93,362.7269 93.7875,508.4535 96.5775,567.6435 " fill="transparent" id="LoginScreen-to-RegistrationScreen" style="stroke:#181818;stroke-width:1;"/><polygon fill="#181818" points="96.86,573.6369,100.4318,564.4585,96.6246,568.6424,92.4407,564.8352,96.86,573.6369" style="stroke:#181818;stroke-width:1;"/><text fill="#000000" font-family="sans-serif" font-size="13" lengthAdjust="spacing" textLength="96.3511" x="88" y="346.3638">goToRegister()</text></g><!--link LoginScreen to Authenticated--><g id="link_LoginScreen_Authenticated"><path d="M130.03,286.2869 C229.03,300.9869 467.8751,336.4753 756.7351,379.3853 " fill="transparent" id="LoginScreen-to-Authenticated" style="stroke:#181818;stroke-width:1;"/><polygon fill="#181818" points="762.67,380.2669,754.3554,374.9879,757.7243,379.5322,753.1799,382.901,762.67,380.2669" style="stroke:#181818;stroke-width:1;"/><text fill="#000000" font-family="sans-serif" font-size="13" lengthAdjust="spacing" textLength="94.1421" x="547" y="346.3638">loginSuccess()</text></g><!--link RegistrationScreen to RegistrationScreen--><g id="link_RegistrationScreen_RegistrationScreen"><path d="M115.79,573.7469 C151.37,536.3169 200,544.6769 200,598.7969 C200,652.9269 155.5038,665.6256 119.9238,628.1956 " fill="transparent" id="RegistrationScreen-to-RegistrationScreen" style="stroke:#181818;stroke-width:1;"/><polygon fill="#181818" points="115.79,623.8469,119.0915,633.1259,119.2348,627.4708,124.8899,627.6141,115.79,623.8469" style="stroke:#181818;stroke-width:1;"/><text fill="#000000" font-family="sans-serif" font-size="13" lengthAdjust="spacing" textLength="96.2051" x="206" y="595.8638">validationError</text><text fill="#000000" font-family="sans-serif" font-size="13" lengthAdjust="spacing" textLength="74.6675" x="216.7688" y="610.9966">"Bad input"</text></g><!--link RegistrationScreen to Authenticated--><g id="link_RegistrationScreen_Authenticated"><path d="M165.23,598.7969 C229.07,598.7969 328.53,598.7969 458.95,598.7969 " fill="transparent" id="RegistrationScreen-to-Authenticated" style="stroke:#181818;stroke-width:1;"/><polygon fill="#181818" points="464.95,598.7969,455.95,594.7969,459.95,598.7969,455.95,602.7969,464.95,598.7969" style="stroke:#181818;stroke-width:1;"/><text fill="#000000" font-family="sans-serif" font-size="13" lengthAdjust="spacing" textLength="137.7632" x="246.5" y="591.8638">registrationSuccess()</text></g><!--link Authenticated to Unauthenticated--><g id="link_Authenticated_Unauthenticated"><path d="M1223.61,380.2769 C994.63,330.6369 769.2825,281.7844 600.2887,245.1481 C515.7919,226.83 445.3834,211.5659 395.6536,200.7845 C370.7887,195.3938 351.0934,191.1238 337.3915,188.153 C333.9661,187.4103 330.9152,186.7488 328.2518,186.1713 C326.9201,185.8825 325.6852,185.6148 324.5489,185.3684 C324.2648,185.3068 329.8506,186.518 329.5788,186.4591 " fill="transparent" id="Authenticated-to-Unauthenticated" style="stroke:#181818;stroke-width:1;"/><polygon fill="#181818" points="323.7151,185.1876,331.663,191.004,328.6015,186.2472,333.3583,183.1857,323.7151,185.1876" style="stroke:#181818;stroke-width:1;"/><text fill="#000000" font-family="sans-serif" font-size="13" lengthAdjust="spacing" textLength="107.6309" x="869" y="282.8638">sessionExpired()</text></g><!--SRC=[ZLRVQzim47xtNt6a3zq6WQuCna8ff6bS2bifTRizR7jGxOiZuaf1afDbe__xJef_oBOybgVala_tdRuxIJc5fM3F1O9UiqpkDQoaWWotPXtf3HTRfjXBXN6HWr4bHj4f9EPWrnXcKCEUcpMaif1A0nCPA5cA33CAAO5A-udi0lWJ0LonT9Cxui8klBXu4gmqQnI6fyJ9BY_X98wNoyKYH9xtg00dYqKSXybF6jKyDLmAxQX4Nfx57-DvYDm67fdUw6CPyQV51qkMAaFbY73Dr2OfIFv6iGDX3ySSTiDmVaQ1M0gJyDy8xy-ZroWot91XYTl_DMUvTMCACJS2jORvTWjHzFtTJvXEBw5d1GJCYQAZbVz1TNRNgJ_Bd8iaLOY2ejwlFWepAEolcF42inzYSYjshE3KL8MPpSuAFGcaUC2SQwEOjRl9bCj7UGHGlNaRMDNfPosTb6bAvhW5WRIZQgvE5reg9HNLViKoe14ipMGyLRy4vTEQIbvhu-Szs-S3qqcgwb4xVz2VHjkRjZktMO4kOB-uI8BcHfBLq7nceB70rDI8imTQud1Lo96wcxci-jZBu0hmD1qlOJlCIAzRuWtIpDC-xmickYNwI5LcXzmLci6MWZLXgBCejP4lTA8QeLgdWrH2NVPm_TYOR1MkAaE6APfYPqTUs92l7FUj6NwXDLBLs113ZbipB24WyAZeah8pjEFcq17e89LAbztR1glYZZIobxlIA6vz6kobGRmDjUoUbAY1aLtPS29JkbXYf2FLaseHJykZ-s8pM55eH2OvYFGRqclqt0vUTQ8yf3vLFha_hliAiAIG49eaNMDMDdtrZcwDjAUtuVRMZWsghl19C84tJRE6EZwk3xYLokZ0k5Q8PthD7SWe1_oZktF1YWDTaNgWqY2UJilkpsmDZ4ZPsxJxSG-AB8tB_jhUpBt77aBFV_U6_Y85DrBHNw45Ar1aJ3bu6AuEAizpjE4xQVZAFWxk5PW1xkYnk2wnEQDXObZI7YQFbb2gAizqsgcsiV1UIVk0KGw71-9ZV7iJKM4ouwb3DTULY-HZzn4C_NMnJQOyDBg_jbpPPlq5]--></g></svg>