<svg xmlns="http://www.w3.org/2000/svg" xmlns:xlink="http://www.w3.org/1999/xlink" contentStyleType="text/css" data-diagram-type="ACTIVITY" height="1243px" preserveAspectRatio="none" style="width:4233px;height:1243px;background:#FFFFFF;" version="1.1" viewBox="0 0 4233 1243" width="4233px" zoomAndPan="magnify"><title>Full-System Activity Diagram - Fitness App</title><defs/><g><text fill="#000000" font-family="sans-serif" font-size="14" font-weight="bold" lengthAdjust="spacing" textLength="338.6934" x="1945.658" y="32.9951">Full-System Activity Diagram - Fitness App</text><rect fill="transparent" height="20.9531" style="stroke:transparent;stroke-width:1;" width="4200.0093" x="15" y="50.042"/><ellipse cx="102.6338" cy="85.9951" fill="#222222" rx="10" ry="10" style="stroke:#222222;stroke-width:1;"/><rect fill="#F1F1F1" height="33.9688" rx="12.5" ry="12.5" style="stroke:#181818;stroke-width:0.5;" width="79.3086" x="62.9795" y="115.9951"/><text fill="#000000" font-family="sans-serif" font-size="12" lengthAdjust="spacing" textLength="59.3086" x="72.9795" y="137.1338">Open App</text><rect fill="#F1F1F1" height="33.9688" rx="12.5" ry="12.5" style="stroke:#181818;stroke-width:0.5;" width="163.2676" x="21" y="169.9639"/><text fill="#000000" font-family="sans-serif" font-size="12" lengthAdjust="spacing" textLength="143.2676" x="31" y="191.1025">Select Login or Register</text><line style="stroke:#000000;stroke-width:1.5;" x1="15" x2="15" y1="50.042" y2="1231.3345"/><polygon fill="#F1F1F1" points="1012.1709,223.9326,1069.4912,223.9326,1081.4912,235.9326,1069.4912,247.9326,1012.1709,247.9326,1000.1709,235.9326,1012.1709,223.9326" style="stroke:#181818;stroke-width:0.5;"/><text fill="#000000" font-family="sans-serif" font-size="11" lengthAdjust="spacing" textLength="57.3203" x="1012.1709" y="239.7407">New user?</text><rect fill="#F1F1F1" height="33.9688" rx="12.5" ry="12.5" style="stroke:#181818;stroke-width:0.5;" width="124.7891" x="899.0532" y="267.9326"/><text fill="#000000" font-family="sans-serif" font-size="12" lengthAdjust="spacing" textLength="104.7891" x="909.0532" y="289.0713">register(userInfo)</text><rect fill="#F1F1F1" height="33.9688" rx="12.5" ry="12.5" style="stroke:#181818;stroke-width:0.5;" width="139.0391" x="891.9282" y="429.8389"/><text fill="#000000" font-family="sans-serif" font-size="12" lengthAdjust="spacing" textLength="119.0391" x="901.9282" y="450.9775">confirm registration</text><rect fill="#F1F1F1" height="33.9688" rx="12.5" ry="12.5" style="stroke:#181818;stroke-width:0.5;" width="125.0938" x="1057.6675" y="267.9326"/><text fill="#000000" font-family="sans-serif" font-size="12" lengthAdjust="spacing" textLength="105.0938" x="1067.6675" y="289.0713">login(credentials)</text><rect fill="#F1F1F1" height="33.9688" rx="12.5" ry="12.5" style="stroke:#181818;stroke-width:0.5;" width="98.7734" x="1070.8276" y="375.8701"/><text fill="#000000" font-family="sans-serif" font-size="12" lengthAdjust="spacing" textLength="78.7734" x="1080.8276" y="397.0088">confirm login</text><polygon fill="#F1F1F1" points="1040.8311,473.8076,1052.8311,485.8076,1040.8311,497.8076,1028.8311,485.8076,1040.8311,473.8076" style="stroke:#181818;stroke-width:0.5;"/><rect fill="#F1F1F1" height="33.9688" rx="12.5" ry="12.5" style="stroke:#181818;stroke-width:0.5;" width="133.4551" x="974.1035" y="517.8076"/><text fill="#000000" font-family="sans-serif" font-size="12" lengthAdjust="spacing" textLength="113.4551" x="984.1035" y="538.9463">Display Main Menu</text><rect fill="#F1F1F1" height="33.9688" rx="12.5" ry="12.5" style="stroke:#181818;stroke-width:0.5;" width="107.0996" x="987.2813" y="627.4868"/><text fill="#000000" font-family="sans-serif" font-size="12" lengthAdjust="spacing" textLength="87.0996" x="997.2813" y="648.6255">Select Feature</text><polygon fill="#F1F1F1" points="260.6582,681.4556,318.8379,681.4556,330.8379,693.4556,318.8379,705.4556,260.6582,705.4556,248.6582,693.4556,260.6582,681.4556" style="stroke:#181818;stroke-width:0.5;"/><text fill="#000000" font-family="sans-serif" font-size="11" lengthAdjust="spacing" textLength="58.1797" x="260.6582" y="697.2637">Set Goals?</text><rect fill="#F1F1F1" height="33.9688" rx="12.5" ry="12.5" style="stroke:#181818;stroke-width:0.5;" width="140.7324" x="219.3818" y="725.4556"/><text fill="#000000" font-family="sans-serif" font-size="12" lengthAdjust="spacing" textLength="120.7324" x="229.3818" y="746.5942">setGoals(user, goal)</text><rect fill="#F1F1F1" height="33.9688" rx="12.5" ry="12.5" style="stroke:#181818;stroke-width:0.5;" width="140.9609" x="219.2676" y="899.4595"/><text fill="#000000" font-family="sans-serif" font-size="12" lengthAdjust="spacing" textLength="120.9609" x="229.2676" y="920.5981">confirm goals saved</text><polygon fill="#F1F1F1" points="421.2588,681.4556,505.3701,681.4556,517.3701,693.4556,505.3701,705.4556,421.2588,705.4556,409.2588,693.4556,421.2588,681.4556" style="stroke:#181818;stroke-width:0.5;"/><text fill="#000000" font-family="sans-serif" font-size="11" lengthAdjust="spacing" textLength="84.1113" x="421.2588" y="697.2637">Generate Plan?</text><rect fill="#F1F1F1" height="33.9688" rx="12.5" ry="12.5" style="stroke:#181818;stroke-width:0.5;" width="186.1719" x="370.2285" y="725.4556"/><text fill="#000000" font-family="sans-serif" font-size="12" lengthAdjust="spacing" textLength="166.1719" x="380.2285" y="746.5942">generateWorkoutPlan(user)</text><rect fill="#F1F1F1" height="33.9688" rx="12.5" ry="12.5" style="stroke:#181818;stroke-width:0.5;" width="92.334" x="417.1475" y="845.4907"/><text fill="#000000" font-family="sans-serif" font-size="12" lengthAdjust="spacing" textLength="72.334" x="427.1475" y="866.6294">display plan</text><polygon fill="#F1F1F1" points="617.6702,681.4556,708.1462,681.4556,720.1462,693.4556,708.1462,705.4556,617.6702,705.4556,605.6702,693.4556,617.6702,681.4556" style="stroke:#181818;stroke-width:0.5;"/><text fill="#000000" font-family="sans-serif" font-size="11" lengthAdjust="spacing" textLength="90.4761" x="617.6702" y="697.2637">Customize Plan?</text><rect fill="#F1F1F1" height="33.9688" rx="12.5" ry="12.5" style="stroke:#181818;stroke-width:0.5;" width="193.0156" x="566.4004" y="725.4556"/><text fill="#000000" font-family="sans-serif" font-size="12" lengthAdjust="spacing" textLength="173.0156" x="576.4004" y="746.5942">customizeWorkoutPlan(user)</text><rect fill="#F1F1F1" height="33.9688" rx="12.5" ry="12.5" style="stroke:#181818;stroke-width:0.5;" width="146.0469" x="589.8848" y="845.4907"/><text fill="#000000" font-family="sans-serif" font-size="12" lengthAdjust="spacing" textLength="126.0469" x="599.8848" y="866.6294">display updated plan</text><polygon fill="#F1F1F1" points="808.6331,681.4556,889.699,681.4556,901.699,693.4556,889.699,705.4556,808.6331,705.4556,796.6331,693.4556,808.6331,681.4556" style="stroke:#181818;stroke-width:0.5;"/><text fill="#000000" font-family="sans-serif" font-size="11" lengthAdjust="spacing" textLength="81.0659" x="808.6331" y="697.2637">Track Activity?</text><rect fill="#F1F1F1" height="33.9688" rx="12.5" ry="12.5" style="stroke:#181818;stroke-width:0.5;" width="131.1641" x="783.584" y="725.4556"/><text fill="#000000" font-family="sans-serif" font-size="12" lengthAdjust="spacing" textLength="111.1641" x="793.584" y="746.5942">trackActivity(user)</text><rect fill="#F1F1F1" height="33.9688" rx="12.5" ry="12.5" style="stroke:#181818;stroke-width:0.5;" width="159.5" x="769.416" y="845.4907"/><text fill="#000000" font-family="sans-serif" font-size="12" lengthAdjust="spacing" textLength="139.5" x="779.416" y="866.6294">show activity summary</text><polygon fill="#F1F1F1" points="970.1602,681.4556,1079.9883,681.4556,1091.9883,693.4556,1079.9883,705.4556,970.1602,705.4556,958.1602,693.4556,970.1602,681.4556" style="stroke:#181818;stroke-width:0.5;"/><text fill="#000000" font-family="sans-serif" font-size="11" lengthAdjust="spacing" textLength="109.8281" x="970.1602" y="697.2637">View Nutrition Tips?</text><rect fill="#F1F1F1" height="33.9688" rx="12.5" ry="12.5" style="stroke:#181818;stroke-width:0.5;" width="152.3164" x="948.916" y="725.4556"/><text fill="#000000" font-family="sans-serif" font-size="12" lengthAdjust="spacing" textLength="132.3164" x="958.916" y="746.5942">getNutritionTips(user)</text><rect fill="#F1F1F1" height="33.9688" rx="12.5" ry="12.5" style="stroke:#181818;stroke-width:0.5;" width="143.3164" x="953.416" y="845.4907"/><text fill="#000000" font-family="sans-serif" font-size="12" lengthAdjust="spacing" textLength="123.3164" x="963.416" y="866.6294">display nutrition tips</text><polygon fill="#F1F1F1" points="1141.9678,681.4556,1240.6025,681.4556,1252.6025,693.4556,1240.6025,705.4556,1141.9678,705.4556,1129.9678,693.4556,1141.9678,681.4556" style="stroke:#181818;stroke-width:0.5;"/><text fill="#000000" font-family="sans-serif" font-size="11" lengthAdjust="spacing" textLength="98.6348" x="1141.9678" y="697.2637">View Social Feed?</text><rect fill="#F1F1F1" height="33.9688" rx="12.5" ry="12.5" style="stroke:#181818;stroke-width:0.5;" width="140.1055" x="1121.2324" y="725.4556"/><text fill="#000000" font-family="sans-serif" font-size="12" lengthAdjust="spacing" textLength="120.1055" x="1131.2324" y="746.5942">getSocialFeed(user)</text><rect fill="#F1F1F1" height="33.9688" rx="12.5" ry="12.5" style="stroke:#181818;stroke-width:0.5;" width="131.0586" x="1125.7559" y="845.4907"/><text fill="#000000" font-family="sans-serif" font-size="12" lengthAdjust="spacing" textLength="111.0586" x="1135.7559" y="866.6294">display social feed</text><polygon fill="#F1F1F1" points="1297.3457,681.4556,1385.6465,681.4556,1397.6465,693.4556,1385.6465,705.4556,1297.3457,705.4556,1285.3457,693.4556,1297.3457,681.4556" style="stroke:#181818;stroke-width:0.5;"/><text fill="#000000" font-family="sans-serif" font-size="11" lengthAdjust="spacing" textLength="88.3008" x="1297.3457" y="697.2637">Sync Wearable?</text><rect fill="#F1F1F1" height="33.9688" rx="12.5" ry="12.5" style="stroke:#181818;stroke-width:0.5;" width="140.3164" x="1271.3379" y="725.4556"/><text fill="#000000" font-family="sans-serif" font-size="12" lengthAdjust="spacing" textLength="120.3164" x="1281.3379" y="746.5942">syncWearable(user)</text><rect fill="#F1F1F1" height="33.9688" rx="12.5" ry="12.5" style="stroke:#181818;stroke-width:0.5;" width="139.8242" x="1271.584" y="845.4907"/><text fill="#000000" font-family="sans-serif" font-size="12" lengthAdjust="spacing" textLength="119.8242" x="1281.584" y="866.6294">display synced data</text><polygon fill="#F1F1F1" points="1479.384,681.4556,1585.78,681.4556,1597.78,693.4556,1585.78,705.4556,1479.384,705.4556,1467.384,693.4556,1479.384,681.4556" style="stroke:#181818;stroke-width:0.5;"/><text fill="#000000" font-family="sans-serif" font-size="11" lengthAdjust="spacing" textLength="106.396" x="1479.384" y="697.2637">Schedule Workout?</text><rect fill="#F1F1F1" height="33.9688" rx="12.5" ry="12.5" style="stroke:#181818;stroke-width:0.5;" width="221.8555" x="1421.6543" y="725.4556"/><text fill="#000000" font-family="sans-serif" font-size="12" lengthAdjust="spacing" textLength="201.8555" x="1431.6543" y="746.5942">scheduleWorkout(user, datetime)</text><rect fill="#F1F1F1" height="33.9688" rx="12.5" ry="12.5" style="stroke:#181818;stroke-width:0.5;" width="195.1836" x="1434.9902" y="899.4595"/><text fill="#000000" font-family="sans-serif" font-size="12" lengthAdjust="spacing" textLength="175.1836" x="1444.9902" y="920.5981">confirm schedule &amp; reminder</text><polygon fill="#F1F1F1" points="1689.4343,681.4556,1767.804,681.4556,1779.804,693.4556,1767.804,705.4556,1689.4343,705.4556,1677.4343,693.4556,1689.4343,681.4556" style="stroke:#181818;stroke-width:0.5;"/><text fill="#000000" font-family="sans-serif" font-size="11" lengthAdjust="spacing" textLength="78.3696" x="1689.4343" y="697.2637">View Reports?</text><rect fill="#F1F1F1" height="33.9688" rx="12.5" ry="12.5" style="stroke:#181818;stroke-width:0.5;" width="150.2188" x="1653.5098" y="725.4556"/><text fill="#000000" font-family="sans-serif" font-size="12" lengthAdjust="spacing" textLength="130.2188" x="1663.5098" y="746.5942">generateReport(user)</text><rect fill="#F1F1F1" height="33.9688" rx="12.5" ry="12.5" style="stroke:#181818;stroke-width:0.5;" width="103.3379" x="1676.9502" y="899.4595"/><text fill="#000000" font-family="sans-serif" font-size="12" lengthAdjust="spacing" textLength="83.3379" x="1686.9502" y="920.5981">display report</text><rect fill="#F1F1F1" height="33.9688" rx="12.5" ry="12.5" style="stroke:#181818;stroke-width:0.5;" width="134.2168" x="973.7227" y="973.4282"/><text fill="#000000" font-family="sans-serif" font-size="12" lengthAdjust="spacing" textLength="114.2168" x="983.7227" y="994.5669">Back to Main Menu</text><polygon fill="#F1F1F1" points="1019.0325,571.7764,1062.6296,571.7764,1074.6296,583.7764,1062.6296,595.7764,1019.0325,595.7764,1007.0325,583.7764,1019.0325,571.7764" style="stroke:#181818;stroke-width:0.5;"/><text fill="#000000" font-family="sans-serif" font-size="11" lengthAdjust="spacing" textLength="22.5747" x="1044.8311" y="605.9868">true</text><text fill="#000000" font-family="sans-serif" font-size="11" lengthAdjust="spacing" textLength="43.5972" x="1019.0325" y="587.5845">Not Exit</text><rect fill="#555555" height="6" rx="2.5" ry="2.5" style="stroke:#555555;stroke-width:1;" width="389.7832" x="845.9395" y="1049.397"/><line style="stroke:#000000;stroke-width:1.5;" x1="188.2676" x2="188.2676" y1="50.042" y2="1231.3345"/><rect fill="#F1F1F1" height="33.9688" rx="12.5" ry="12.5" style="stroke:#181818;stroke-width:0.5;" width="102.8633" x="2173.1855" y="321.9014"/><text fill="#000000" font-family="sans-serif" font-size="12" lengthAdjust="spacing" textLength="82.8633" x="2183.1855" y="343.04">validate input</text><rect fill="#F1F1F1" height="33.9688" rx="12.5" ry="12.5" style="stroke:#181818;stroke-width:0.5;" width="115.2266" x="2167.0039" y="375.8701"/><text fill="#000000" font-family="sans-serif" font-size="12" lengthAdjust="spacing" textLength="95.2266" x="2177.0039" y="397.0088">save user to DB</text><rect fill="#F1F1F1" height="33.9688" rx="12.5" ry="12.5" style="stroke:#181818;stroke-width:0.5;" width="96.1895" x="1860.7285" y="779.4243"/><text fill="#000000" font-family="sans-serif" font-size="12" lengthAdjust="spacing" textLength="76.1895" x="1870.7285" y="800.563">persist goals</text><rect fill="#F1F1F1" height="33.9688" rx="12.5" ry="12.5" style="stroke:#181818;stroke-width:0.5;" width="88.0801" x="1966.918" y="779.4243"/><text fill="#000000" font-family="sans-serif" font-size="12" lengthAdjust="spacing" textLength="68.0801" x="1976.918" y="800.563">create plan</text><rect fill="#F1F1F1" height="33.9688" rx="12.5" ry="12.5" style="stroke:#181818;stroke-width:0.5;" width="92.0059" x="2064.998" y="779.4243"/><text fill="#000000" font-family="sans-serif" font-size="12" lengthAdjust="spacing" textLength="72.0059" x="2074.998" y="800.563">update plan</text><line style="stroke:#000000;stroke-width:1.5;" x1="1854.7285" x2="1854.7285" y1="50.042" y2="1231.3345"/><rect fill="#F1F1F1" height="33.9688" rx="12.5" ry="12.5" style="stroke:#181818;stroke-width:0.5;" width="138.4941" x="2292.2305" y="321.9014"/><text fill="#000000" font-family="sans-serif" font-size="12" lengthAdjust="spacing" textLength="118.4941" x="2302.2305" y="343.04">validate credentials</text><line style="stroke:#000000;stroke-width:1.5;" x1="2286.2305" x2="2286.2305" y1="50.042" y2="1231.3345"/><rect fill="#F1F1F1" height="33.9688" rx="12.5" ry="12.5" style="stroke:#181818;stroke-width:0.5;" width="111.7461" x="2457.9238" y="845.4907"/><text fill="#000000" font-family="sans-serif" font-size="12" lengthAdjust="spacing" textLength="91.7461" x="2467.9238" y="866.6294">syncData(user)</text><line style="stroke:#000000;stroke-width:1.5;" x1="2434.7246" x2="2434.7246" y1="50.042" y2="1231.3345"/><rect fill="#F1F1F1" height="33.9688" rx="12.5" ry="12.5" style="stroke:#181818;stroke-width:0.5;" width="148.9824" x="2596.8691" y="779.4243"/><text fill="#000000" font-family="sans-serif" font-size="12" lengthAdjust="spacing" textLength="128.9824" x="2606.8691" y="800.563">getActivityData(user)</text><rect fill="#F1F1F1" height="33.9688" rx="12.5" ry="12.5" style="stroke:#181818;stroke-width:0.5;" width="148.9824" x="2755.8516" y="779.4243"/><text fill="#000000" font-family="sans-serif" font-size="12" lengthAdjust="spacing" textLength="128.9824" x="2765.8516" y="800.563">getActivityData(user)</text><line style="stroke:#000000;stroke-width:1.5;" x1="2590.8691" x2="2590.8691" y1="50.042" y2="1231.3345"/><rect fill="#F1F1F1" height="33.9688" rx="12.5" ry="12.5" style="stroke:#181818;stroke-width:0.5;" width="134.3633" x="2923.3789" y="779.4243"/><text fill="#000000" font-family="sans-serif" font-size="12" lengthAdjust="spacing" textLength="114.3633" x="2933.3789" y="800.563">fetchCalories(user)</text><line style="stroke:#000000;stroke-width:1.5;" x1="2908.834" x2="2908.834" y1="50.042" y2="1231.3345"/><rect fill="#F1F1F1" height="33.9688" rx="12.5" ry="12.5" style="stroke:#181818;stroke-width:0.5;" width="107.0293" x="3076.2871" y="779.4243"/><text fill="#000000" font-family="sans-serif" font-size="12" lengthAdjust="spacing" textLength="87.0293" x="3086.2871" y="800.563">getPosts(user)</text><line style="stroke:#000000;stroke-width:1.5;" x1="3070.2871" x2="3070.2871" y1="50.042" y2="1231.3345"/><rect fill="#F1F1F1" height="33.9688" rx="12.5" ry="12.5" style="stroke:#181818;stroke-width:0.5;" width="221.8555" x="3193.3164" y="779.4243"/><text fill="#000000" font-family="sans-serif" font-size="12" lengthAdjust="spacing" textLength="201.8555" x="3203.3164" y="800.563">scheduleWorkout(user, datetime)</text><line style="stroke:#000000;stroke-width:1.5;" x1="3187.3164" x2="3187.3164" y1="50.042" y2="1231.3345"/><rect fill="#F1F1F1" height="33.9688" rx="12.5" ry="12.5" style="stroke:#181818;stroke-width:0.5;" width="213.9746" x="3425.1719" y="845.4907"/><text fill="#000000" font-family="sans-serif" font-size="12" lengthAdjust="spacing" textLength="193.9746" x="3435.1719" y="866.6294">createReminder(user, datetime)</text><line style="stroke:#000000;stroke-width:1.5;" x1="3419.1719" x2="3419.1719" y1="50.042" y2="1231.3345"/><rect fill="#F1F1F1" height="33.9688" rx="12.5" ry="12.5" style="stroke:#181818;stroke-width:0.5;" width="150.2188" x="3866.5488" y="779.4243"/><text fill="#000000" font-family="sans-serif" font-size="12" lengthAdjust="spacing" textLength="130.2188" x="3876.5488" y="800.563">generateReport(user)</text><rect fill="#F1F1F1" height="33.9688" rx="12.5" ry="12.5" style="stroke:#181818;stroke-width:0.5;" width="141.207" x="3871.0547" y="845.4907"/><text fill="#000000" font-family="sans-serif" font-size="12" lengthAdjust="spacing" textLength="121.207" x="3881.0547" y="866.6294">displayGraphs(user)</text><rect fill="#F1F1F1" height="33.9688" rx="12.5" ry="12.5" style="stroke:#181818;stroke-width:0.5;" width="151.4023" x="3693.1465" y="1075.397"/><text fill="#000000" font-family="sans-serif" font-size="12" lengthAdjust="spacing" textLength="131.4023" x="3703.1465" y="1096.5356">periodic data analysis</text><rect fill="#F1F1F1" height="33.9688" rx="12.5" ry="12.5" style="stroke:#181818;stroke-width:0.5;" width="136.4727" x="3700.6113" y="1129.3657"/><text fill="#000000" font-family="sans-serif" font-size="12" lengthAdjust="spacing" textLength="116.4727" x="3710.6113" y="1150.5044">refresh dashboards</text><rect fill="#555555" height="6" rx="2.5" ry="2.5" style="stroke:#555555;stroke-width:1;" width="207.4023" x="3649.1465" y="1183.3345"/><ellipse cx="3672.1465" cy="1220.3345" fill="transparent" rx="11" ry="11" style="stroke:#222222;stroke-width:1;"/><ellipse cx="3672.1465" cy="1220.3345" fill="#222222" rx="6" ry="6" style="stroke:#222222;stroke-width:1;"/><line style="stroke:#000000;stroke-width:1.5;" x1="3643.1465" x2="3643.1465" y1="50.042" y2="1231.3345"/><rect fill="#F1F1F1" height="33.9688" rx="12.5" ry="12.5" style="stroke:#181818;stroke-width:0.5;" width="182.3809" x="4026.7676" y="1075.397"/><text fill="#000000" font-family="sans-serif" font-size="12" lengthAdjust="spacing" textLength="162.3809" x="4036.7676" y="1096.5356">listen for scheduled events</text><rect fill="#F1F1F1" height="33.9688" rx="12.5" ry="12.5" style="stroke:#181818;stroke-width:0.5;" width="125.4688" x="4055.2236" y="1129.3657"/><text fill="#000000" font-family="sans-serif" font-size="12" lengthAdjust="spacing" textLength="105.4688" x="4065.2236" y="1150.5044">trigger reminders</text><line style="stroke:#000000;stroke-width:1.5;" x1="4020.7676" x2="4020.7676" y1="50.042" y2="1231.3345"/><line style="stroke:#000000;stroke-width:1.5;" x1="4213.1484" x2="4213.1484" y1="50.042" y2="1231.3345"/><line style="stroke:#181818;stroke-width:1;" x1="102.6338" x2="102.6338" y1="95.9951" y2="115.9951"/><polygon fill="#181818" points="98.6338,105.9951,102.6338,115.9951,106.6338,105.9951,102.6338,109.9951" style="stroke:#181818;stroke-width:1;"/><line style="stroke:#181818;stroke-width:1;" x1="102.6338" x2="102.6338" y1="149.9639" y2="169.9639"/><polygon fill="#181818" points="98.6338,159.9639,102.6338,169.9639,106.6338,159.9639,102.6338,163.9639" style="stroke:#181818;stroke-width:1;"/><line style="stroke:#181818;stroke-width:1;" x1="1000.1709" x2="961.4478" y1="235.9326" y2="235.9326"/><line style="stroke:#181818;stroke-width:1;" x1="961.4478" x2="961.4478" y1="235.9326" y2="267.9326"/><polygon fill="#181818" points="957.4478,257.9326,961.4478,267.9326,965.4478,257.9326,961.4478,261.9326" style="stroke:#181818;stroke-width:1;"/><line style="stroke:#181818;stroke-width:1;" x1="1081.4912" x2="1120.2144" y1="235.9326" y2="235.9326"/><line style="stroke:#181818;stroke-width:1;" x1="1120.2144" x2="1120.2144" y1="235.9326" y2="267.9326"/><polygon fill="#181818" points="1116.2144,257.9326,1120.2144,267.9326,1124.2144,257.9326,1120.2144,261.9326" style="stroke:#181818;stroke-width:1;"/><line style="stroke:#181818;stroke-width:1;" x1="961.4478" x2="961.4478" y1="463.8076" y2="485.8076"/><line style="stroke:#181818;stroke-width:1;" x1="961.4478" x2="1028.8311" y1="485.8076" y2="485.8076"/><polygon fill="#181818" points="1018.8311,481.8076,1028.8311,485.8076,1018.8311,489.8076,1022.8311,485.8076" style="stroke:#181818;stroke-width:1;"/><line style="stroke:#181818;stroke-width:1;" x1="1120.2144" x2="1120.2144" y1="409.8389" y2="485.8076"/><line style="stroke:#181818;stroke-width:1;" x1="1120.2144" x2="1052.8311" y1="485.8076" y2="485.8076"/><polygon fill="#181818" points="1062.8311,481.8076,1052.8311,485.8076,1062.8311,489.8076,1058.8311,485.8076" style="stroke:#181818;stroke-width:1;"/><line style="stroke:#181818;stroke-width:1;" x1="1040.8311" x2="1040.8311" y1="497.8076" y2="517.8076"/><polygon fill="#181818" points="1036.8311,507.8076,1040.8311,517.8076,1044.8311,507.8076,1040.8311,511.8076" style="stroke:#181818;stroke-width:1;"/><line style="stroke:#181818;stroke-width:1;" x1="289.748" x2="289.748" y1="705.4556" y2="725.4556"/><polygon fill="#181818" points="285.748,715.4556,289.748,725.4556,293.748,715.4556,289.748,719.4556" style="stroke:#181818;stroke-width:1;"/><line style="stroke:#181818;stroke-width:1;" x1="289.748" x2="289.748" y1="933.4282" y2="953.4282"/><polygon fill="#181818" points="285.748,943.4282,289.748,953.4282,293.748,943.4282,289.748,947.4282" style="stroke:#181818;stroke-width:1;"/><line style="stroke:#181818;stroke-width:1;" x1="463.3145" x2="463.3145" y1="705.4556" y2="725.4556"/><polygon fill="#181818" points="459.3145,715.4556,463.3145,725.4556,467.3145,715.4556,463.3145,719.4556" style="stroke:#181818;stroke-width:1;"/><line style="stroke:#181818;stroke-width:1;" x1="463.3145" x2="463.3145" y1="879.4595" y2="953.4282"/><polygon fill="#181818" points="459.3145,943.4282,463.3145,953.4282,467.3145,943.4282,463.3145,947.4282" style="stroke:#181818;stroke-width:1;"/><line style="stroke:#181818;stroke-width:1;" x1="662.9082" x2="662.9082" y1="705.4556" y2="725.4556"/><polygon fill="#181818" points="658.9082,715.4556,662.9082,725.4556,666.9082,715.4556,662.9082,719.4556" style="stroke:#181818;stroke-width:1;"/><line style="stroke:#181818;stroke-width:1;" x1="662.9082" x2="662.9082" y1="879.4595" y2="953.4282"/><polygon fill="#181818" points="658.9082,943.4282,662.9082,953.4282,666.9082,943.4282,662.9082,947.4282" style="stroke:#181818;stroke-width:1;"/><line style="stroke:#181818;stroke-width:1;" x1="849.166" x2="849.166" y1="705.4556" y2="725.4556"/><polygon fill="#181818" points="845.166,715.4556,849.166,725.4556,853.166,715.4556,849.166,719.4556" style="stroke:#181818;stroke-width:1;"/><line style="stroke:#181818;stroke-width:1;" x1="849.166" x2="849.166" y1="879.4595" y2="953.4282"/><polygon fill="#181818" points="845.166,943.4282,849.166,953.4282,853.166,943.4282,849.166,947.4282" style="stroke:#181818;stroke-width:1;"/><line style="stroke:#181818;stroke-width:1;" x1="1025.0742" x2="1025.0742" y1="705.4556" y2="725.4556"/><polygon fill="#181818" points="1021.0742,715.4556,1025.0742,725.4556,1029.0742,715.4556,1025.0742,719.4556" style="stroke:#181818;stroke-width:1;"/><line style="stroke:#181818;stroke-width:1;" x1="1025.0742" x2="1025.0742" y1="879.4595" y2="953.4282"/><polygon fill="#181818" points="1021.0742,943.4282,1025.0742,953.4282,1029.0742,943.4282,1025.0742,947.4282" style="stroke:#181818;stroke-width:1;"/><line style="stroke:#181818;stroke-width:1;" x1="1191.2852" x2="1191.2852" y1="705.4556" y2="725.4556"/><polygon fill="#181818" points="1187.2852,715.4556,1191.2852,725.4556,1195.2852,715.4556,1191.2852,719.4556" style="stroke:#181818;stroke-width:1;"/><line style="stroke:#181818;stroke-width:1;" x1="1191.2852" x2="1191.2852" y1="879.4595" y2="953.4282"/><polygon fill="#181818" points="1187.2852,943.4282,1191.2852,953.4282,1195.2852,943.4282,1191.2852,947.4282" style="stroke:#181818;stroke-width:1;"/><line style="stroke:#181818;stroke-width:1;" x1="1341.4961" x2="1341.4961" y1="705.4556" y2="725.4556"/><polygon fill="#181818" points="1337.4961,715.4556,1341.4961,725.4556,1345.4961,715.4556,1341.4961,719.4556" style="stroke:#181818;stroke-width:1;"/><line style="stroke:#181818;stroke-width:1;" x1="1341.4961" x2="1341.4961" y1="879.4595" y2="953.4282"/><polygon fill="#181818" points="1337.4961,943.4282,1341.4961,953.4282,1345.4961,943.4282,1341.4961,947.4282" style="stroke:#181818;stroke-width:1;"/><line style="stroke:#181818;stroke-width:1;" x1="1532.582" x2="1532.582" y1="705.4556" y2="725.4556"/><polygon fill="#181818" points="1528.582,715.4556,1532.582,725.4556,1536.582,715.4556,1532.582,719.4556" style="stroke:#181818;stroke-width:1;"/><line style="stroke:#181818;stroke-width:1;" x1="1532.582" x2="1532.582" y1="933.4282" y2="953.4282"/><polygon fill="#181818" points="1528.582,943.4282,1532.582,953.4282,1536.582,943.4282,1532.582,947.4282" style="stroke:#181818;stroke-width:1;"/><line style="stroke:#181818;stroke-width:1;" x1="1728.6191" x2="1728.6191" y1="705.4556" y2="725.4556"/><polygon fill="#181818" points="1724.6191,715.4556,1728.6191,725.4556,1732.6191,715.4556,1728.6191,719.4556" style="stroke:#181818;stroke-width:1;"/><line style="stroke:#181818;stroke-width:1;" x1="1728.6191" x2="1728.6191" y1="933.4282" y2="953.4282"/><polygon fill="#181818" points="1724.6191,943.4282,1728.6191,953.4282,1732.6191,943.4282,1728.6191,947.4282" style="stroke:#181818;stroke-width:1;"/><line style="stroke:#181818;stroke-width:1;" x1="330.8379" x2="409.2588" y1="693.4556" y2="693.4556"/><polygon fill="#181818" points="399.2588,689.4556,409.2588,693.4556,399.2588,697.4556,403.2588,693.4556" style="stroke:#181818;stroke-width:1;"/><line style="stroke:#181818;stroke-width:1;" x1="517.3701" x2="605.6702" y1="693.4556" y2="693.4556"/><polygon fill="#181818" points="595.6702,689.4556,605.6702,693.4556,595.6702,697.4556,599.6702,693.4556" style="stroke:#181818;stroke-width:1;"/><line style="stroke:#181818;stroke-width:1;" x1="720.1462" x2="796.6331" y1="693.4556" y2="693.4556"/><polygon fill="#181818" points="786.6331,689.4556,796.6331,693.4556,786.6331,697.4556,790.6331,693.4556" style="stroke:#181818;stroke-width:1;"/><line style="stroke:#181818;stroke-width:1;" x1="901.699" x2="958.1602" y1="693.4556" y2="693.4556"/><polygon fill="#181818" points="948.1602,689.4556,958.1602,693.4556,948.1602,697.4556,952.1602,693.4556" style="stroke:#181818;stroke-width:1;"/><line style="stroke:#181818;stroke-width:1;" x1="1091.9883" x2="1129.9678" y1="693.4556" y2="693.4556"/><polygon fill="#181818" points="1119.9678,689.4556,1129.9678,693.4556,1119.9678,697.4556,1123.9678,693.4556" style="stroke:#181818;stroke-width:1;"/><line style="stroke:#181818;stroke-width:1;" x1="1252.6025" x2="1285.3457" y1="693.4556" y2="693.4556"/><polygon fill="#181818" points="1275.3457,689.4556,1285.3457,693.4556,1275.3457,697.4556,1279.3457,693.4556" style="stroke:#181818;stroke-width:1;"/><line style="stroke:#181818;stroke-width:1;" x1="1397.6465" x2="1467.384" y1="693.4556" y2="693.4556"/><polygon fill="#181818" points="1457.384,689.4556,1467.384,693.4556,1457.384,697.4556,1461.384,693.4556" style="stroke:#181818;stroke-width:1;"/><line style="stroke:#181818;stroke-width:1;" x1="1597.78" x2="1677.4343" y1="693.4556" y2="693.4556"/><polygon fill="#181818" points="1667.4343,689.4556,1677.4343,693.4556,1667.4343,697.4556,1671.4343,693.4556" style="stroke:#181818;stroke-width:1;"/><line style="stroke:#181818;stroke-width:1;" x1="1040.8311" x2="1040.8311" y1="661.4556" y2="666.4556"/><line style="stroke:#181818;stroke-width:1;" x1="1040.8311" x2="289.748" y1="666.4556" y2="666.4556"/><line style="stroke:#181818;stroke-width:1;" x1="289.748" x2="289.748" y1="666.4556" y2="681.4556"/><polygon fill="#181818" points="285.748,671.4556,289.748,681.4556,293.748,671.4556,289.748,675.4556" style="stroke:#181818;stroke-width:1;"/><line style="stroke:#181818;stroke-width:1;" x1="1779.804" x2="1817.7285" y1="693.4556" y2="693.4556"/><line style="stroke:#181818;stroke-width:1;" x1="1817.7285" x2="1817.7285" y1="693.4556" y2="953.4282"/><polygon fill="#181818" points="1813.7285,943.4282,1817.7285,953.4282,1821.7285,943.4282,1817.7285,947.4282" style="stroke:#181818;stroke-width:1;"/><line style="stroke:#181818;stroke-width:1;" x1="289.748" x2="1817.7285" y1="953.4282" y2="953.4282"/><line style="stroke:#181818;stroke-width:1;" x1="1040.8311" x2="1040.8311" y1="953.4282" y2="973.4282"/><polygon fill="#181818" points="1036.8311,963.4282,1040.8311,973.4282,1044.8311,963.4282,1040.8311,967.4282" style="stroke:#181818;stroke-width:1;"/><line style="stroke:#181818;stroke-width:1;" x1="1040.8311" x2="1040.8311" y1="595.7764" y2="627.4868"/><polygon fill="#181818" points="1036.8311,617.4868,1040.8311,627.4868,1044.8311,617.4868,1040.8311,621.4868" style="stroke:#181818;stroke-width:1;"/><line style="stroke:#181818;stroke-width:1;" x1="1040.8311" x2="1040.8311" y1="1007.397" y2="1017.397"/><line style="stroke:#181818;stroke-width:1;" x1="1040.8311" x2="1835.7285" y1="1017.397" y2="1017.397"/><polygon fill="#181818" points="1831.7285,825.4907,1835.7285,815.4907,1839.7285,825.4907,1835.7285,821.4907" style="stroke:#181818;stroke-width:1;"/><line style="stroke:#181818;stroke-width:1;" x1="1835.7285" x2="1835.7285" y1="583.7764" y2="1017.397"/><line style="stroke:#181818;stroke-width:1;" x1="1835.7285" x2="1074.6296" y1="583.7764" y2="583.7764"/><polygon fill="#181818" points="1084.6296,579.7764,1074.6296,583.7764,1084.6296,587.7764,1080.6296,583.7764" style="stroke:#181818;stroke-width:1;"/><line style="stroke:#181818;stroke-width:1;" x1="1007.0325" x2="207.2676" y1="583.7764" y2="583.7764"/><polygon fill="#181818" points="203.2676,811.4907,207.2676,821.4907,211.2676,811.4907,207.2676,815.4907" style="stroke:#181818;stroke-width:1;"/><line style="stroke:#181818;stroke-width:1;" x1="207.2676" x2="207.2676" y1="583.7764" y2="1029.397"/><line style="stroke:#181818;stroke-width:1;" x1="207.2676" x2="1040.8311" y1="1029.397" y2="1029.397"/><line style="stroke:#181818;stroke-width:1;" x1="1040.8311" x2="1040.8311" y1="1029.397" y2="1049.397"/><polygon fill="#181818" points="1036.8311,1039.397,1040.8311,1049.397,1044.8311,1039.397,1040.8311,1043.397" style="stroke:#181818;stroke-width:1;"/><line style="stroke:#181818;stroke-width:1;" x1="1040.8311" x2="1040.8311" y1="551.7764" y2="571.7764"/><polygon fill="#181818" points="1036.8311,561.7764,1040.8311,571.7764,1044.8311,561.7764,1040.8311,565.7764" style="stroke:#181818;stroke-width:1;"/><line style="stroke:#181818;stroke-width:1;" x1="2224.6172" x2="2224.6172" y1="355.8701" y2="375.8701"/><polygon fill="#181818" points="2220.6172,365.8701,2224.6172,375.8701,2228.6172,365.8701,2224.6172,369.8701" style="stroke:#181818;stroke-width:1;"/><line style="stroke:#181818;stroke-width:1;" x1="3941.6582" x2="3941.6582" y1="813.3931" y2="845.4907"/><polygon fill="#181818" points="3937.6582,835.4907,3941.6582,845.4907,3945.6582,835.4907,3941.6582,839.4907" style="stroke:#181818;stroke-width:1;"/><line style="stroke:#181818;stroke-width:1;" x1="3768.8477" x2="3768.8477" y1="1109.3657" y2="1129.3657"/><polygon fill="#181818" points="3764.8477,1119.3657,3768.8477,1129.3657,3772.8477,1119.3657,3768.8477,1123.3657" style="stroke:#181818;stroke-width:1;"/><line style="stroke:#181818;stroke-width:1;" x1="3768.8477" x2="3768.8477" y1="1163.3345" y2="1183.3345"/><polygon fill="#181818" points="3764.8477,1173.3345,3768.8477,1183.3345,3772.8477,1173.3345,3768.8477,1177.3345" style="stroke:#181818;stroke-width:1;"/><line style="stroke:#181818;stroke-width:1;" x1="3672.1465" x2="3672.1465" y1="1189.3345" y2="1209.3345"/><polygon fill="#181818" points="3668.1465,1199.3345,3672.1465,1209.3345,3676.1465,1199.3345,3672.1465,1203.3345" style="stroke:#181818;stroke-width:1;"/><line style="stroke:#181818;stroke-width:1;" x1="4117.958" x2="4117.958" y1="1109.3657" y2="1129.3657"/><polygon fill="#181818" points="4113.958,1119.3657,4117.958,1129.3657,4121.958,1119.3657,4117.958,1123.3657" style="stroke:#181818;stroke-width:1;"/><line style="stroke:#181818;stroke-width:1;" x1="961.4478" x2="961.4478" y1="301.9014" y2="306.9014"/><line style="stroke:#181818;stroke-width:1;" x1="961.4478" x2="2224.6172" y1="306.9014" y2="306.9014"/><line style="stroke:#181818;stroke-width:1;" x1="2224.6172" x2="2224.6172" y1="306.9014" y2="321.9014"/><polygon fill="#181818" points="2220.6172,311.9014,2224.6172,321.9014,2228.6172,311.9014,2224.6172,315.9014" style="stroke:#181818;stroke-width:1;"/><line style="stroke:#181818;stroke-width:1;" x1="2224.6172" x2="2224.6172" y1="409.8389" y2="414.8389"/><line style="stroke:#181818;stroke-width:1;" x1="2224.6172" x2="961.4478" y1="414.8389" y2="414.8389"/><line style="stroke:#181818;stroke-width:1;" x1="961.4478" x2="961.4478" y1="414.8389" y2="429.8389"/><polygon fill="#181818" points="957.4478,419.8389,961.4478,429.8389,965.4478,419.8389,961.4478,423.8389" style="stroke:#181818;stroke-width:1;"/><line style="stroke:#181818;stroke-width:1;" x1="1120.2144" x2="1120.2144" y1="301.9014" y2="306.9014"/><line style="stroke:#181818;stroke-width:1;" x1="1120.2144" x2="2361.4775" y1="306.9014" y2="306.9014"/><line style="stroke:#181818;stroke-width:1;" x1="2361.4775" x2="2361.4775" y1="306.9014" y2="321.9014"/><polygon fill="#181818" points="2357.4775,311.9014,2361.4775,321.9014,2365.4775,311.9014,2361.4775,315.9014" style="stroke:#181818;stroke-width:1;"/><line style="stroke:#181818;stroke-width:1;" x1="2361.4775" x2="2361.4775" y1="355.8701" y2="360.8701"/><line style="stroke:#181818;stroke-width:1;" x1="2361.4775" x2="1120.2144" y1="360.8701" y2="360.8701"/><line style="stroke:#181818;stroke-width:1;" x1="1120.2144" x2="1120.2144" y1="360.8701" y2="375.8701"/><polygon fill="#181818" points="1116.2144,365.8701,1120.2144,375.8701,1124.2144,365.8701,1120.2144,369.8701" style="stroke:#181818;stroke-width:1;"/><line style="stroke:#181818;stroke-width:1;" x1="102.6338" x2="102.6338" y1="203.9326" y2="208.9326"/><line style="stroke:#181818;stroke-width:1;" x1="102.6338" x2="1040.8311" y1="208.9326" y2="208.9326"/><line style="stroke:#181818;stroke-width:1;" x1="1040.8311" x2="1040.8311" y1="208.9326" y2="223.9326"/><polygon fill="#181818" points="1036.8311,213.9326,1040.8311,223.9326,1044.8311,213.9326,1040.8311,217.9326" style="stroke:#181818;stroke-width:1;"/><line style="stroke:#181818;stroke-width:1;" x1="289.748" x2="289.748" y1="759.4243" y2="764.4243"/><line style="stroke:#181818;stroke-width:1;" x1="289.748" x2="1908.8232" y1="764.4243" y2="764.4243"/><line style="stroke:#181818;stroke-width:1;" x1="1908.8232" x2="1908.8232" y1="764.4243" y2="779.4243"/><polygon fill="#181818" points="1904.8232,769.4243,1908.8232,779.4243,1912.8232,769.4243,1908.8232,773.4243" style="stroke:#181818;stroke-width:1;"/><line style="stroke:#181818;stroke-width:1;" x1="1908.8232" x2="1908.8232" y1="813.3931" y2="830.4907"/><line style="stroke:#181818;stroke-width:1;" x1="1908.8232" x2="2513.7969" y1="830.4907" y2="830.4907"/><line style="stroke:#181818;stroke-width:1;" x1="2513.7969" x2="2513.7969" y1="830.4907" y2="845.4907"/><polygon fill="#181818" points="2509.7969,835.4907,2513.7969,845.4907,2517.7969,835.4907,2513.7969,839.4907" style="stroke:#181818;stroke-width:1;"/><line style="stroke:#181818;stroke-width:1;" x1="2513.7969" x2="2513.7969" y1="879.4595" y2="884.4595"/><line style="stroke:#181818;stroke-width:1;" x1="2513.7969" x2="289.748" y1="884.4595" y2="884.4595"/><line style="stroke:#181818;stroke-width:1;" x1="289.748" x2="289.748" y1="884.4595" y2="899.4595"/><polygon fill="#181818" points="285.748,889.4595,289.748,899.4595,293.748,889.4595,289.748,893.4595" style="stroke:#181818;stroke-width:1;"/><line style="stroke:#181818;stroke-width:1;" x1="463.3145" x2="463.3145" y1="759.4243" y2="764.4243"/><line style="stroke:#181818;stroke-width:1;" x1="463.3145" x2="2010.958" y1="764.4243" y2="764.4243"/><line style="stroke:#181818;stroke-width:1;" x1="2010.958" x2="2010.958" y1="764.4243" y2="779.4243"/><polygon fill="#181818" points="2006.958,769.4243,2010.958,779.4243,2014.958,769.4243,2010.958,773.4243" style="stroke:#181818;stroke-width:1;"/><line style="stroke:#181818;stroke-width:1;" x1="2010.958" x2="2010.958" y1="813.3931" y2="830.4907"/><line style="stroke:#181818;stroke-width:1;" x1="2010.958" x2="463.3145" y1="830.4907" y2="830.4907"/><line style="stroke:#181818;stroke-width:1;" x1="463.3145" x2="463.3145" y1="830.4907" y2="845.4907"/><polygon fill="#181818" points="459.3145,835.4907,463.3145,845.4907,467.3145,835.4907,463.3145,839.4907" style="stroke:#181818;stroke-width:1;"/><line style="stroke:#181818;stroke-width:1;" x1="662.9082" x2="662.9082" y1="759.4243" y2="764.4243"/><line style="stroke:#181818;stroke-width:1;" x1="662.9082" x2="2111.001" y1="764.4243" y2="764.4243"/><line style="stroke:#181818;stroke-width:1;" x1="2111.001" x2="2111.001" y1="764.4243" y2="779.4243"/><polygon fill="#181818" points="2107.001,769.4243,2111.001,779.4243,2115.001,769.4243,2111.001,773.4243" style="stroke:#181818;stroke-width:1;"/><line style="stroke:#181818;stroke-width:1;" x1="2111.001" x2="2111.001" y1="813.3931" y2="830.4907"/><line style="stroke:#181818;stroke-width:1;" x1="2111.001" x2="662.9082" y1="830.4907" y2="830.4907"/><line style="stroke:#181818;stroke-width:1;" x1="662.9082" x2="662.9082" y1="830.4907" y2="845.4907"/><polygon fill="#181818" points="658.9082,835.4907,662.9082,845.4907,666.9082,835.4907,662.9082,839.4907" style="stroke:#181818;stroke-width:1;"/><line style="stroke:#181818;stroke-width:1;" x1="849.166" x2="849.166" y1="759.4243" y2="764.4243"/><line style="stroke:#181818;stroke-width:1;" x1="849.166" x2="2671.3604" y1="764.4243" y2="764.4243"/><line style="stroke:#181818;stroke-width:1;" x1="2671.3604" x2="2671.3604" y1="764.4243" y2="779.4243"/><polygon fill="#181818" points="2667.3604,769.4243,2671.3604,779.4243,2675.3604,769.4243,2671.3604,773.4243" style="stroke:#181818;stroke-width:1;"/><line style="stroke:#181818;stroke-width:1;" x1="2671.3604" x2="2671.3604" y1="813.3931" y2="830.4907"/><line style="stroke:#181818;stroke-width:1;" x1="2671.3604" x2="849.166" y1="830.4907" y2="830.4907"/><line style="stroke:#181818;stroke-width:1;" x1="849.166" x2="849.166" y1="830.4907" y2="845.4907"/><polygon fill="#181818" points="845.166,835.4907,849.166,845.4907,853.166,835.4907,849.166,839.4907" style="stroke:#181818;stroke-width:1;"/><line style="stroke:#181818;stroke-width:1;" x1="1025.0742" x2="1025.0742" y1="759.4243" y2="764.4243"/><line style="stroke:#181818;stroke-width:1;" x1="1025.0742" x2="2990.5605" y1="764.4243" y2="764.4243"/><line style="stroke:#181818;stroke-width:1;" x1="2990.5605" x2="2990.5605" y1="764.4243" y2="779.4243"/><polygon fill="#181818" points="2986.5605,769.4243,2990.5605,779.4243,2994.5605,769.4243,2990.5605,773.4243" style="stroke:#181818;stroke-width:1;"/><line style="stroke:#181818;stroke-width:1;" x1="2990.5605" x2="2990.5605" y1="813.3931" y2="830.4907"/><line style="stroke:#181818;stroke-width:1;" x1="2990.5605" x2="1025.0742" y1="830.4907" y2="830.4907"/><line style="stroke:#181818;stroke-width:1;" x1="1025.0742" x2="1025.0742" y1="830.4907" y2="845.4907"/><polygon fill="#181818" points="1021.0742,835.4907,1025.0742,845.4907,1029.0742,835.4907,1025.0742,839.4907" style="stroke:#181818;stroke-width:1;"/><line style="stroke:#181818;stroke-width:1;" x1="1191.2852" x2="1191.2852" y1="759.4243" y2="764.4243"/><line style="stroke:#181818;stroke-width:1;" x1="1191.2852" x2="3129.8018" y1="764.4243" y2="764.4243"/><line style="stroke:#181818;stroke-width:1;" x1="3129.8018" x2="3129.8018" y1="764.4243" y2="779.4243"/><polygon fill="#181818" points="3125.8018,769.4243,3129.8018,779.4243,3133.8018,769.4243,3129.8018,773.4243" style="stroke:#181818;stroke-width:1;"/><line style="stroke:#181818;stroke-width:1;" x1="3129.8018" x2="3129.8018" y1="813.3931" y2="830.4907"/><line style="stroke:#181818;stroke-width:1;" x1="3129.8018" x2="1191.2852" y1="830.4907" y2="830.4907"/><line style="stroke:#181818;stroke-width:1;" x1="1191.2852" x2="1191.2852" y1="830.4907" y2="845.4907"/><polygon fill="#181818" points="1187.2852,835.4907,1191.2852,845.4907,1195.2852,835.4907,1191.2852,839.4907" style="stroke:#181818;stroke-width:1;"/><line style="stroke:#181818;stroke-width:1;" x1="1341.4961" x2="1341.4961" y1="759.4243" y2="764.4243"/><line style="stroke:#181818;stroke-width:1;" x1="1341.4961" x2="2830.3428" y1="764.4243" y2="764.4243"/><line style="stroke:#181818;stroke-width:1;" x1="2830.3428" x2="2830.3428" y1="764.4243" y2="779.4243"/><polygon fill="#181818" points="2826.3428,769.4243,2830.3428,779.4243,2834.3428,769.4243,2830.3428,773.4243" style="stroke:#181818;stroke-width:1;"/><line style="stroke:#181818;stroke-width:1;" x1="2830.3428" x2="2830.3428" y1="813.3931" y2="830.4907"/><line style="stroke:#181818;stroke-width:1;" x1="2830.3428" x2="1341.4961" y1="830.4907" y2="830.4907"/><line style="stroke:#181818;stroke-width:1;" x1="1341.4961" x2="1341.4961" y1="830.4907" y2="845.4907"/><polygon fill="#181818" points="1337.4961,835.4907,1341.4961,845.4907,1345.4961,835.4907,1341.4961,839.4907" style="stroke:#181818;stroke-width:1;"/><line style="stroke:#181818;stroke-width:1;" x1="1532.582" x2="1532.582" y1="759.4243" y2="764.4243"/><line style="stroke:#181818;stroke-width:1;" x1="1532.582" x2="3304.2441" y1="764.4243" y2="764.4243"/><line style="stroke:#181818;stroke-width:1;" x1="3304.2441" x2="3304.2441" y1="764.4243" y2="779.4243"/><polygon fill="#181818" points="3300.2441,769.4243,3304.2441,779.4243,3308.2441,769.4243,3304.2441,773.4243" style="stroke:#181818;stroke-width:1;"/><line style="stroke:#181818;stroke-width:1;" x1="3304.2441" x2="3304.2441" y1="813.3931" y2="830.4907"/><line style="stroke:#181818;stroke-width:1;" x1="3304.2441" x2="3532.1592" y1="830.4907" y2="830.4907"/><line style="stroke:#181818;stroke-width:1;" x1="3532.1592" x2="3532.1592" y1="830.4907" y2="845.4907"/><polygon fill="#181818" points="3528.1592,835.4907,3532.1592,845.4907,3536.1592,835.4907,3532.1592,839.4907" style="stroke:#181818;stroke-width:1;"/><line style="stroke:#181818;stroke-width:1;" x1="3532.1592" x2="3532.1592" y1="879.4595" y2="884.4595"/><line style="stroke:#181818;stroke-width:1;" x1="3532.1592" x2="1532.582" y1="884.4595" y2="884.4595"/><line style="stroke:#181818;stroke-width:1;" x1="1532.582" x2="1532.582" y1="884.4595" y2="899.4595"/><polygon fill="#181818" points="1528.582,889.4595,1532.582,899.4595,1536.582,889.4595,1532.582,893.4595" style="stroke:#181818;stroke-width:1;"/><line style="stroke:#181818;stroke-width:1;" x1="1728.6191" x2="1728.6191" y1="759.4243" y2="764.4243"/><line style="stroke:#181818;stroke-width:1;" x1="1728.6191" x2="3941.6582" y1="764.4243" y2="764.4243"/><line style="stroke:#181818;stroke-width:1;" x1="3941.6582" x2="3941.6582" y1="764.4243" y2="779.4243"/><polygon fill="#181818" points="3937.6582,769.4243,3941.6582,779.4243,3945.6582,769.4243,3941.6582,773.4243" style="stroke:#181818;stroke-width:1;"/><line style="stroke:#181818;stroke-width:1;" x1="3941.6582" x2="3941.6582" y1="879.4595" y2="884.4595"/><line style="stroke:#181818;stroke-width:1;" x1="3941.6582" x2="1728.6191" y1="884.4595" y2="884.4595"/><line style="stroke:#181818;stroke-width:1;" x1="1728.6191" x2="1728.6191" y1="884.4595" y2="899.4595"/><polygon fill="#181818" points="1724.6191,889.4595,1728.6191,899.4595,1732.6191,889.4595,1728.6191,893.4595" style="stroke:#181818;stroke-width:1;"/><line style="stroke:#181818;stroke-width:1;" x1="951.1299" x2="951.1299" y1="1055.397" y2="1059.397"/><line style="stroke:#181818;stroke-width:1;" x1="951.1299" x2="4117.958" y1="1059.397" y2="1059.397"/><line style="stroke:#181818;stroke-width:1;" x1="4117.958" x2="4117.958" y1="1059.397" y2="1075.397"/><polygon fill="#181818" points="4113.958,1065.397,4117.958,1075.397,4121.958,1065.397,4117.958,1069.397" style="stroke:#181818;stroke-width:1;"/><line style="stroke:#181818;stroke-width:1;" x1="1146.0215" x2="1146.0215" y1="1055.397" y2="1059.397"/><line style="stroke:#181818;stroke-width:1;" x1="1146.0215" x2="3768.8477" y1="1059.397" y2="1059.397"/><line style="stroke:#181818;stroke-width:1;" x1="3768.8477" x2="3768.8477" y1="1059.397" y2="1075.397"/><polygon fill="#181818" points="3764.8477,1065.397,3768.8477,1075.397,3772.8477,1065.397,3768.8477,1069.397" style="stroke:#181818;stroke-width:1;"/><line style="stroke:#181818;stroke-width:1;" x1="4117.958" x2="4117.958" y1="1163.3345" y2="1169.3345"/><line style="stroke:#181818;stroke-width:1;" x1="4117.958" x2="3656.1465" y1="1169.3345" y2="1169.3345"/><line style="stroke:#181818;stroke-width:1;" x1="3656.1465" x2="3656.1465" y1="1169.3345" y2="1183.3345"/><polygon fill="#181818" points="3652.1465,1173.3345,3656.1465,1183.3345,3660.1465,1173.3345,3656.1465,1177.3345" style="stroke:#181818;stroke-width:1;"/><text fill="#000000" font-family="sans-serif" font-size="18" lengthAdjust="spacing" textLength="41.0273" x="81.1201" y="66.75">User</text><text fill="#000000" font-family="sans-serif" font-size="18" lengthAdjust="spacing" textLength="64.8105" x="989.0928" y="66.75">Facade</text><text fill="#000000" font-family="sans-serif" font-size="18" lengthAdjust="spacing" textLength="159.6006" x="1990.6792" y="66.75">UserManagement</text><text fill="#000000" font-family="sans-serif" font-size="18" lengthAdjust="spacing" textLength="123.126" x="2298.9146" y="66.75">Authenticator</text><text fill="#000000" font-family="sans-serif" font-size="18" lengthAdjust="spacing" textLength="146.1445" x="2439.7246" y="66.75">ProgressTracker</text><text fill="#000000" font-family="sans-serif" font-size="18" lengthAdjust="spacing" textLength="190.7402" x="2654.4814" y="66.75">IActivityDataProvider</text><text fill="#000000" font-family="sans-serif" font-size="18" lengthAdjust="spacing" textLength="151.4531" x="2913.834" y="66.75">IProgressTracker</text><text fill="#000000" font-family="sans-serif" font-size="18" lengthAdjust="spacing" textLength="102.6035" x="3077.5" y="66.75">ISocialFeed</text><text fill="#000000" font-family="sans-serif" font-size="18" lengthAdjust="spacing" textLength="152.7715" x="3226.8584" y="66.75">ICalendarService</text><text fill="#000000" font-family="sans-serif" font-size="18" lengthAdjust="spacing" textLength="175.1133" x="3443.6025" y="66.75">INotificationService</text><text fill="#000000" font-family="sans-serif" font-size="18" lengthAdjust="spacing" textLength="148.8604" x="3757.5269" y="66.75">AnalyticsSystem</text><text fill="#000000" font-family="sans-serif" font-size="18" lengthAdjust="spacing" textLength="147.4629" x="4043.2266" y="66.75">CalendarService</text><!--SRC=[hLPDRzim3BtxL_0q9C3s1vB3a3PBKM3jYgPRpwnDEqHjoP3eT1douqV9TXel7ss1tGpfYU_fKIGjB2N1eYdBBykD5wfWbWglMJOmPomSLl055Yo6l8TPNIV9zgSdjqsye9DaygCc4zQdoMH99QK2tst11go3UofO8xgfdbbWYXbj4yvXT4ilq6YChsEG5Pa4OE8ww2YiNvlSZgUw79bkq6115HdP1kGQIyvG2DZKZGJKnEEQOa0G2_EBUBBdq-tKcfnT1Is7Gs5hfWcLdi9k6TIEKaUPCZ2MlcMUDK6QS8fYtP1u3tkAAWPL3fDndYIJEVkwn0tSe1fpGwPHHrvMhBwFRgt0jzyiOs0F8t4DZKEWpie5eJIE50uGd5kIm9LLubVh1WA26IGH4Pty38L-nniTTLFnDJcljaIWxu1tpXPEy_tWC7qcrqVUc7IEWZ5o7tF0tLy_neAGbYnA3ru7-LTao0KBxqeqfwzGTB17wvvj8m4yu3nw3yrAYAm-csFIiYu5xVwUfil6YwtuprkYqXxt8LLDdRr7LGlB3jN53EmgyhGw2RWUDf1rtQ-6r6bYrvpjCbgGxE-UJgnVsHV0lY_ufghGRGP2Vx4MzMqZZaDvmGFN_bo2PGSDoA7Wuwyl9qbNbrXQn-HFA-qTDJifeWI7KfSsrGBM0gFihCuM5s13aQ_hhzWxw-KTqdnBdTC_rR7K-e97GeTF9PqfS8NrgF-VwPr8PT47gSyIXoBJ5MMDTgwk3Cxex90TiEj7uPqBLxGJhIdLDebkIMxDwGSFQ_VaFFHeJVGmGDiExgbYatLZvV3yqURLKyCddHZjySFdSq-rTUBVxc4jSE3tp62vqSdYstdxve4-9rSEwzKxtfUB4GAYcp-wTn7QY4x7lGcact469Kck9eT1TYGLapACPGCAsHcJ0QsrmyLXeOs7Yq8dRs-LhePmW8Ko9STl6sOEsupJ-Bm00q9dqBJz4SYrzbUwurTF5btcerA86lMVmzP_0G00]--></g></svg>